<?xml version="1.0" encoding="UTF-8"?>
<svg version="1.1" xmlns="http://www.w3.org/2000/svg" width="1024" height="1024">
<path d="M0 0 C337.92 0 675.84 0 1024 0 C1024 337.92 1024 675.84 1024 1024 C686.08 1024 348.16 1024 0 1024 C0 686.08 0 348.16 0 0 Z " fill="#151D2A" transform="translate(0,0)"/>
<path d="M0 0 C12.52162065 4.18124788 22.671482 20.47296188 28.5546875 31.73046875 C37.44073444 49.5811686 41.43320971 66.66142281 41.375 86.625 C41.37445618 87.32965393 41.37391235 88.03430786 41.37335205 88.76031494 C41.33366538 99.96624378 40.38242166 110.28127564 37 121 C36.55982831 122.50518859 36.11972633 124.01039756 35.6796875 125.515625 C30.88583501 141.31876148 23.08786585 155.00652247 14.65820312 169.12548828 C5.883406 183.84724691 -0.76998626 197.09909107 -0.4375 214.625 C-0.4257373 215.84469482 -0.41397461 217.06438965 -0.40185547 218.32104492 C-0.19284281 229.3921387 0.96069959 240.06345487 4.08984375 250.70703125 C5.20772526 254.75155535 5.2155513 257.83267489 5 262 C3.38737649 263.61262351 1.64460187 263.13278385 -0.58653259 263.14044189 C-1.57788712 263.14615204 -2.56924164 263.15186218 -3.59063721 263.15774536 C-4.68728699 263.15886322 -5.78393677 263.15998108 -6.91381836 263.16113281 C-8.63560051 263.16858017 -8.63560051 263.16858017 -10.39216614 263.17617798 C-14.20806466 263.19084264 -18.02392163 263.1976083 -21.83984375 263.203125 C-24.47921247 263.20887232 -27.11858116 263.2146301 -29.75794983 263.22039795 C-34.58961191 263.22997568 -39.42126494 263.23586875 -44.25293535 263.2388947 C-51.37366262 263.2433782 -58.49419819 263.26093738 -65.61486715 263.2898953 C-71.77382527 263.3140766 -77.93270395 263.32183705 -84.09170723 263.32357025 C-86.71647753 263.32660792 -89.3412468 263.33467357 -91.96598625 263.34775543 C-95.62973639 263.364714 -99.29301422 263.36296068 -102.95678711 263.35644531 C-104.05141266 263.3656601 -105.14603821 263.37487488 -106.27383423 263.3843689 C-107.26800858 263.37879974 -108.26218292 263.37323059 -109.28648376 263.36749268 C-110.15351394 263.36895924 -111.02054411 263.3704258 -111.91384792 263.3719368 C-112.60227811 263.24919765 -113.29070829 263.12645851 -114 263 C-116.38224023 259.42663966 -116.22276423 257.91967948 -116.16015625 253.6875 C-116.1437207 251.82738281 -116.1437207 251.82738281 -116.12695312 249.9296875 C-116.10568359 248.63289062 -116.08441406 247.33609375 -116.0625 246 C-116.02811332 243.43755572 -115.9979621 240.87505005 -115.97265625 238.3125 C-115.95468994 237.17425781 -115.93672363 236.03601563 -115.91821289 234.86328125 C-115.86407875 231.92607777 -115.86407875 231.92607777 -117 229 C-125.4147884 226.44204545 -134.14078074 226.36451227 -142.875 225.96484375 C-152.84604523 225.36838168 -162.97430544 223.69480833 -170 216 C-174.88088235 209.08768897 -175.87453946 201.93331429 -176.640625 193.734375 C-176.92983397 190.15187777 -176.92983397 190.15187777 -177.51171875 187.2578125 C-178.26441687 182.23581063 -178.37205113 177.19531099 -178.5625 172.125 C-178.60568359 171.05507813 -178.64886719 169.98515625 -178.69335938 168.8828125 C-178.79892817 166.25532246 -178.90103791 163.62774578 -179 161 C-183.45407061 158.62133807 -188.15452389 157.7410342 -193.06835938 156.76367188 C-197.97480477 155.65546818 -201.0064296 154.29410393 -204 150 C-204.53525092 143.79488602 -203.42179519 139.50428282 -200.9296875 133.87109375 C-200.61097687 133.11893082 -200.29226624 132.36676788 -199.96389771 131.59181213 C-198.94761053 129.20107115 -197.91205725 126.81929418 -196.875 124.4375 C-196.20177008 122.86711663 -195.52988427 121.29615632 -194.859375 119.72460938 C-193.86730354 117.39984535 -192.87444256 115.07547464 -191.87640381 112.75326538 C-184.93659872 97.73983298 -184.93659872 97.73983298 -181.4375 81.8125 C-181.31181641 80.18248047 -181.31181641 80.18248047 -181.18359375 78.51953125 C-181.12300781 77.68808594 -181.06242187 76.85664063 -181 76 C-177.73385608 76.37978418 -174.64723243 76.81105637 -171.484375 77.734375 C-138.59500006 87.05596255 -100.65775581 74.83904634 -71.81933594 58.78613281 C-54.1828319 48.69160558 -38.01414339 36.66353988 -23 23 C-22.34306152 22.40477539 -21.68612305 21.80955078 -21.00927734 21.19628906 C-13.96049434 14.78707072 -7.02159937 8.40955667 -1 1 C-0.67 0.67 -0.34 0.34 0 0 Z " fill="#9D4FD6" transform="translate(593,321)"/>
<path d="M0 0 C1.66898138 1.66898138 1.16155407 3.69729448 1.19287109 5.99121094 C1.20893402 7.05611755 1.22499695 8.12102417 1.24154663 9.21820068 C1.28584896 14.10281883 1.32707389 18.9872983 1.35009766 23.87207031 C1.36665382 26.45028716 1.39393892 29.02845817 1.43212891 31.60644531 C1.48683506 35.31599848 1.50876479 39.02447299 1.5234375 42.734375 C1.54610687 43.8866156 1.56877625 45.0388562 1.59213257 46.22601318 C1.5710013 54.21512584 1.5710013 54.21512584 -1.34521484 58.22363281 C-4 60 -4 60 -7 60.6875 C-10.42929147 59.90162071 -11.80655867 58.62934026 -13.97021484 55.90063477 C-15.91337399 52.31422085 -15.51850942 48.59939713 -15.3125 44.625 C-15.27866211 43.37783203 -15.27866211 43.37783203 -15.24414062 42.10546875 C-15.18563654 40.06952647 -15.09596795 38.03452055 -15 36 C-15.66 36 -16.32 36 -17 36 C-17.21011719 36.65355469 -17.42023438 37.30710937 -17.63671875 37.98046875 C-19.51947946 42.15059491 -22.11447277 45.6316565 -24.8125 49.3125 C-25.67766235 50.49912231 -25.67766235 50.49912231 -26.56030273 51.7097168 C-35.94678418 64.47426158 -45.98016531 76.61510145 -57 88 C-57.7744043 88.80163574 -58.54880859 89.60327148 -59.34667969 90.42919922 C-78.81491681 110.48258751 -78.81491681 110.48258751 -90.20849609 118.69580078 C-92.19151429 120.13942073 -94.13570521 121.62841244 -96.08203125 123.12109375 C-125.65093544 145.50760396 -162.15050031 162.60403858 -200 159 C-208.95504684 157.76082297 -217.55694762 155.26572793 -225 150 C-225.62132812 149.57074219 -226.24265625 149.14148438 -226.8828125 148.69921875 C-233.14088057 143.89053008 -237.89792523 136.8822304 -239 129 C-240.12862231 116.98823394 -237.53700863 108.03923026 -229.90942383 98.73046875 C-226.44153784 94.65344505 -222.82644023 90.74540973 -219 87 C-218.34 87.33 -217.68 87.66 -217 88 C-217.45890625 88.58265625 -217.9178125 89.1653125 -218.390625 89.765625 C-225.28628088 98.9791484 -228.94604491 108.24773443 -228.5 119.88671875 C-227.48392864 126.21335055 -224.69241748 130.78216221 -219.76171875 134.84375 C-203.796994 145.23227902 -183.87483891 143.24095918 -166.02978516 139.52880859 C-163.83831891 138.95787813 -161.7788428 138.21299415 -159.66796875 137.39453125 C-156 136 -156 136 -153 136 C-153.26557253 129.90511047 -153.93912989 126.7376818 -158 122 C-157.75 119.6875 -157.75 119.6875 -157 118 C-156.01 118 -155.02 118 -154 118 C-153.90097867 112.25257371 -153.82845918 106.50564608 -153.78027344 100.75756836 C-153.76018226 98.80305327 -153.73290411 96.8485981 -153.69824219 94.89428711 C-153.64961399 92.08171792 -153.6270064 89.26994473 -153.609375 86.45703125 C-153.58872986 85.58601273 -153.56808472 84.7149942 -153.54681396 83.81758118 C-153.54485676 78.50244199 -154.14935125 75.96437898 -158 72 C-158 71.34 -158 70.68 -158 70 C-159.485 69.505 -159.485 69.505 -161 69 C-160.67 67.35 -160.34 65.7 -160 64 C-156 64 -156 64 -154 65 C-153.98018066 63.69329346 -153.96036133 62.38658691 -153.93994141 61.0402832 C-153.86378281 56.1852718 -153.77508094 51.33055608 -153.68261719 46.47583008 C-153.64436986 44.37595463 -153.6095096 42.27601462 -153.578125 40.17602539 C-153.5323825 37.15487619 -153.47440277 34.13416984 -153.4140625 31.11328125 C-153.40251129 30.17664139 -153.39096008 29.24000153 -153.37905884 28.27497864 C-153.27737241 23.76869291 -153.13217126 20.08853191 -151 16 C-149.35 16.33 -147.7 16.66 -146 17 C-145.15808218 19.9248633 -144.88180687 22.50741656 -144.90234375 25.546875 C-144.90717773 26.81337891 -144.90717773 26.81337891 -144.91210938 28.10546875 C-144.92467773 29.41451172 -144.92467773 29.41451172 -144.9375 30.75 C-144.94201172 31.63816406 -144.94652344 32.52632813 -144.95117188 33.44140625 C-144.962926 35.62767329 -144.97935751 37.81380179 -145 40 C-143.68 39.01 -142.36 38.02 -141 37 C-139.68 37.66 -138.36 38.32 -137 39 C-137.59544705 42.40623845 -138.80329444 44.0386254 -141.0390625 46.62109375 C-145.8516448 53.63860393 -144.63517033 61.91949592 -144.375 70.0625 C-144.3448557 71.70763336 -144.31748778 73.35282006 -144.29296875 74.99804688 C-144.22733925 79.00003101 -144.12407369 82.99941875 -144 87 C-142.35 87.33 -140.7 87.66 -139 88 C-139.44751022 90.90881641 -140.18896791 92.24900219 -142.00878906 94.64697266 C-144.32711979 98.55084149 -144.60177175 101.6127435 -144.609375 106.0234375 C-144.62591125 106.76961334 -144.64244751 107.51578918 -144.65948486 108.28457642 C-144.70774291 110.6481365 -144.72928476 113.01105435 -144.75 115.375 C-144.7781785 116.98570901 -144.80810856 118.59638839 -144.83984375 120.20703125 C-144.9134949 124.13796788 -144.96320414 128.06855265 -145 132 C-110.00909046 115.18845846 -77.50879498 90.12162268 -54 59 C-53.23300781 58.03835938 -52.46601562 57.07671875 -51.67578125 56.0859375 C-43.76536235 46.12826337 -35.52623253 35.4879909 -30 24 C-30.68964844 24.144375 -31.37929688 24.28875 -32.08984375 24.4375 C-47.69651598 27.52029945 -47.69651598 27.52029945 -53.125 23.9375 C-55 21 -55 21 -55.0625 17.375 C-53.85837656 13.55013732 -53.34412285 12.98863931 -50 11 C-46.78295898 9.97265625 -46.78295898 9.97265625 -42.99609375 9.0625 C-41.97830589 8.81318726 -41.97830589 8.81318726 -40.93995667 8.55883789 C-38.77452812 8.03027055 -36.6062558 7.51472641 -34.4375 7 C-32.30068432 6.48400826 -30.1645368 5.96532562 -28.02850342 5.44610596 C-26.63813831 5.1085506 -25.24739287 4.77255775 -23.85626221 4.43817139 C-18.94652572 3.25271629 -14.08142642 1.94815369 -9.23120117 0.54003906 C-6.02794023 -0.23527697 -3.27738668 -0.28499015 0 0 Z " fill="#A359DA" transform="translate(633,226)"/>
<path d="M0 0 C4.95 0 9.9 0 15 0 C18.84676416 8.30535371 22.3858898 16.70103547 25.8125 25.1875 C26.31945013 26.43823672 26.82661048 27.68888825 27.33398438 28.93945312 C28.5580476 31.95880909 29.78001011 34.97899643 31 38 C34.91030408 30.56758183 38.02462542 22.83161316 41.1875 15.0625 C42.00463272 13.05729141 42.82268616 11.05248604 43.64387512 9.04893494 C44.38120132 7.24986832 45.11489102 5.44931259 45.84838867 3.64868164 C47 1 47 1 48 0 C52.95 0 57.9 0 63 0 C63 19.47 63 38.94 63 59 C59.04 59 55.08 59 51 59 C50.505 41.675 50.505 41.675 50 24 C46.55912142 32.15084972 46.55912142 32.15084972 43.12011719 40.30249023 C40.47430947 46.56309615 37.79428542 52.80410805 35 59 C32.69 59 30.38 59 28 59 C24.14607413 51.73259693 21.21776995 44.16392359 18.25 36.5 C16.5175 32.045 14.785 27.59 13 23 C12.67 34.88 12.34 46.76 12 59 C8.04 59 4.08 59 0 59 C0 39.53 0 20.06 0 0 Z " fill="#F8F9F9" transform="translate(517,672)"/>
<path d="M0 0 C3.96 0 7.92 0 12 0 C12 19.8 12 39.6 12 60 C8.04 60 4.08 60 0 60 C-0.33 58.68 -0.66 57.36 -1 56 C-2.175625 56.9590625 -2.175625 56.9590625 -3.375 57.9375 C-8.31217728 61.81671072 -12.87041131 61.62422968 -19 61 C-24.83486537 58.13561154 -27.92114687 54.19623672 -30.75 48.4375 C-33.23742981 41.09958206 -33.13009628 33.60820841 -29.875 26.5625 C-27.28861626 22.00518928 -24.29390628 18.03734472 -19.08984375 16.3984375 C-13.69421881 15.36973891 -9.4053028 15.24715922 -4.5 17.875 C-2 20 -2 20 -1 22 C-0.67 14.74 -0.34 7.48 0 0 Z " fill="#F8F8F8" transform="translate(694,671)"/>
<path d="M0 0 C6.74531808 4.19907218 10.77912628 8.75015029 13.76953125 16.1015625 C13.76953125 16.7615625 13.76953125 17.4215625 13.76953125 18.1015625 C7.33453125 18.5965625 7.33453125 18.5965625 0.76953125 19.1015625 C-0.22046875 17.4515625 -1.21046875 15.8015625 -2.23046875 14.1015625 C-7.4061148 10.34921911 -13.07657301 10.28653762 -19.23046875 11.1015625 C-24.32323438 13.46606083 -26.11308935 16.00060304 -28.23046875 21.1015625 C-29.10193991 27.76831686 -29.55371893 34.89325462 -26.04296875 40.8515625 C-23.04797508 44.66789792 -20.65014897 46.80882936 -15.6796875 47.41015625 C-11.08729785 47.61522913 -7.93977298 47.43088232 -3.73046875 45.4765625 C-0.67691425 42.84555621 -0.67691425 42.84555621 1.76953125 37.1015625 C-3.18046875 37.1015625 -8.13046875 37.1015625 -13.23046875 37.1015625 C-13.23046875 33.4715625 -13.23046875 29.8415625 -13.23046875 26.1015625 C-3.99046875 26.1015625 5.24953125 26.1015625 14.76953125 26.1015625 C14.76953125 36.42403201 14.72023303 44.31107821 7.51953125 52.0390625 C2.33799726 57.05386397 -3.78252889 59.59923559 -10.94140625 59.6484375 C-11.69679687 59.63296875 -12.4521875 59.6175 -13.23046875 59.6015625 C-13.98585937 59.61703125 -14.74125 59.6325 -15.51953125 59.6484375 C-23.213999 59.59555456 -29.71897494 56.46409702 -35.23046875 51.1015625 C-42.44093649 41.52253995 -43.61936744 30.75066562 -42.23046875 19.1015625 C-40.00736622 11.27108082 -34.94839866 5.3331527 -28.30859375 0.78515625 C-20.27334463 -3.5496492 -8.31780416 -3.87801763 0 0 Z " fill="#F5F6F5" transform="translate(239.23046875,672.8984375)"/>
<path d="M0 0 C0.79019531 0.00563965 1.58039063 0.0112793 2.39453125 0.01708984 C14.04117422 0.25656683 24.82775835 2.92733212 33.34765625 11.31640625 C40.08063496 19.30735126 42.99272616 27.93905111 42.3125 38.3125 C39.12967553 36.85200668 36.51979556 35.05274459 33.7578125 32.90625 C32.89542969 32.24496094 32.03304687 31.58367187 31.14453125 30.90234375 C29.34473485 29.51289054 27.54783596 28.11967575 25.75390625 26.72265625 C19.58306553 21.97239954 19.58306553 21.97239954 12.3125 19.3125 C12.32419025 21.65474686 12.32419025 21.65474686 13.3125 24.3125 C15.41933455 26.10479305 17.38682704 27.56895923 19.6875 29.0625 C20.96031923 29.93068944 22.23112567 30.80183639 23.5 31.67578125 C24.13808594 32.11229004 24.77617187 32.54879883 25.43359375 32.99853516 C28.27210671 34.98357631 30.97980314 37.08877842 33.6875 39.25 C34.58210938 39.96027344 35.47671875 40.67054688 36.3984375 41.40234375 C37.34589844 42.34787109 37.34589844 42.34787109 38.3125 43.3125 C38.3125 44.3025 38.3125 45.2925 38.3125 46.3125 C27.43695407 49.65882182 17.17949911 49.40820572 7.0390625 44.12890625 C-6.52365561 35.95887299 -11.87690727 21.81142171 -16.33984375 7.30078125 C-16.6875 5.3125 -16.6875 5.3125 -15.6875 2.3125 C-10.45878966 0.29001049 -5.56557956 -0.0416942 0 0 Z " fill="#A85DDC" transform="translate(426.6875,244.6875)"/>
<path d="M0 0 C5.63722393 0.49462094 9.64334923 2.01098462 14.5625 4.75 C15.19607422 5.08515625 15.82964844 5.4203125 16.48242188 5.765625 C22.67154597 9.13108074 27.6545212 12.99004726 31.6875 18.875 C32.24824219 19.67679688 32.80898438 20.47859375 33.38671875 21.3046875 C37.0061848 27.35173732 38.53460332 32.3090862 38.4375 39.25 C38.43210205 39.98927734 38.4267041 40.72855469 38.42114258 41.49023438 C38.25102473 47.67095854 37.2834315 53.64108839 34 59 C33.01 59.33 32.02 59.66 31 60 C30.78384033 59.45174561 30.56768066 58.90349121 30.3449707 58.33862305 C24.50911004 43.52547707 24.50911004 43.52547707 18 29 C16.68 29.33 15.36 29.66 14 30 C14.72355322 33.33906048 15.90812149 36.32645108 17.25 39.46484375 C17.6934375 40.51220703 18.136875 41.55957031 18.59375 42.63867188 C19.52984107 44.83458552 20.46733721 47.02990074 21.40625 49.22460938 C21.8496875 50.27326172 22.293125 51.32191406 22.75 52.40234375 C23.15734375 53.35616943 23.5646875 54.30999512 23.984375 55.29272461 C24.94940852 57.86514209 25.54790651 60.29511725 26 63 C16.79623285 61.8259124 9.01688319 57.01100337 2.72265625 50.27734375 C-4.53105262 40.68797352 -5.9292832 29.70163182 -5 18 C-3.93496296 12.05081233 -2.70932886 5.41865772 0 0 Z " fill="#AC63DE" transform="translate(454,173)"/>
<path d="M0 0 C3.96 0 7.92 0 12 0 C12.26554687 1.08539062 12.53109375 2.17078125 12.8046875 3.2890625 C13.16133082 4.73440647 13.5181088 6.17971722 13.875 7.625 C14.04902344 8.33785156 14.22304688 9.05070313 14.40234375 9.78515625 C15.20316793 13.01811314 16.05270034 16.15517321 17.125 19.3125 C18.10873091 22.33395924 18.15035257 24.84259608 18 28 C18.66 28 19.32 28 20 28 C19.94972656 27.18660156 19.89945312 26.37320313 19.84765625 25.53515625 C20.03430651 21.20391314 21.13444136 17.54769873 22.4375 13.4375 C22.89650068 11.95764066 23.35358356 10.4771849 23.80859375 8.99609375 C24.11494751 8.02434204 24.11494751 8.02434204 24.42749023 7.03295898 C25.0786566 4.72069361 25.52888884 2.35555579 26 0 C29.96 0 33.92 0 38 0 C38.79554186 2.64472123 39.58649163 5.29068116 40.375 7.9375 C40.59671875 8.67291016 40.8184375 9.40832031 41.046875 10.16601562 C42.60122796 15.4005278 43.88194843 20.65565023 45 26 C45.79298919 23.167031 46.58442272 20.33364215 47.375 17.5 C47.70757812 16.31277344 47.70757812 16.31277344 48.046875 15.1015625 C49.44481389 10.08542885 50.75888215 5.05726524 52 0 C55.96 0 59.92 0 64 0 C63.38654924 5.13431612 62.26886605 9.92879992 60.75 14.875 C60.30191567 16.36453291 59.8540044 17.85411788 59.40625 19.34375 C59.06013672 20.48650391 59.06013672 20.48650391 58.70703125 21.65234375 C57.53220436 25.55328827 56.39327843 29.46471758 55.25 33.375 C53.15321101 40.54036697 53.15321101 40.54036697 52 44 C48.04 44 44.08 44 40 44 C38.65177569 40.62943924 37.57999 37.70362011 36.7109375 34.2421875 C36.49179687 33.36949219 36.27265625 32.49679687 36.046875 31.59765625 C35.82515625 30.69917969 35.6034375 29.80070313 35.375 28.875 C35.03082031 27.51568359 35.03082031 27.51568359 34.6796875 26.12890625 C34.463125 25.25878906 34.2465625 24.38867188 34.0234375 23.4921875 C33.82669434 22.70183105 33.62995117 21.91147461 33.42724609 21.09716797 C33 19 33 19 33 16 C32.34 16 31.68 16 31 16 C30.83177734 17.40958984 30.83177734 17.40958984 30.66015625 18.84765625 C29.95284508 23.79883445 28.68117575 28.59866073 27.4375 33.4375 C27.20353516 34.35982422 26.96957031 35.28214844 26.72851562 36.23242188 C26.15557555 38.48910422 25.57823537 40.74466867 25 43 C20.71 43 16.42 43 12 43 C9.88386652 36.73977178 7.8888631 30.45727599 6 24.125 C5.73944824 23.25238525 5.47889648 22.37977051 5.21044922 21.48071289 C0 3.96102545 0 3.96102545 0 0 Z " fill="#F6F6F6" transform="translate(342,688)"/>
<path d="M0 0 C6.10928547 3.12671235 10.00101136 7.95020438 12.125 14.4375 C13.0380521 22.03918957 12.4976696 28.99960452 8.125 35.4375 C4.0159975 39.87064655 -0.15753611 43.14008172 -6.265625 43.80859375 C-13.93055938 43.94048027 -20.01811833 43.97656639 -25.875 38.4375 C-31.94866924 31.88433055 -32.49442798 26.04677193 -32.23828125 17.43359375 C-31.89009165 12.16645705 -30.52909449 8.32255306 -26.875 4.4375 C-18.95849074 -2.49487283 -9.79926533 -3.77148195 0 0 Z " fill="#F7F7F7" transform="translate(325.875,688.5625)"/>
<path d="M0 0 C4.29 0 8.58 0 13 0 C13.33 7.26 13.66 14.52 14 22 C15.65 20.68 17.3 19.36 19 18 C22.45844824 16.27077588 26.21165265 16.64863557 30 17 C35.35755096 18.92063148 38.45837216 21.91674432 41 27 C41.08658569 29.55362604 41.11562516 32.0795442 41.09765625 34.6328125 C41.0962413 35.38464813 41.09482635 36.13648376 41.09336853 36.91110229 C41.08776465 39.3157751 41.07521157 41.72035527 41.0625 44.125 C41.0574855 45.75390491 41.0529225 47.38281127 41.04882812 49.01171875 C41.03779397 53.00784827 41.02052679 57.00390842 41 61 C37.04 61 33.08 61 29 61 C28.97494385 60.13721436 28.9498877 59.27442871 28.92407227 58.38549805 C28.82888615 55.18176231 28.72965556 51.97818463 28.62768555 48.7746582 C28.58439782 47.38864017 28.54271836 46.00257094 28.50268555 44.61645508 C28.44483416 42.62308202 28.38070224 40.62989435 28.31640625 38.63671875 C28.27974854 37.43748779 28.24309082 36.23825684 28.20532227 35.00268555 C28.12266975 31.95005651 28.12266975 31.95005651 27 29 C25.58506449 28.89115881 24.16767057 28.81402383 22.75 28.75 C21.96109375 28.70359375 21.1721875 28.6571875 20.359375 28.609375 C17.05712474 29.15610518 16.06511502 30.39727239 14 33 C13.36004039 36.0849946 13.36004039 36.0849946 13.390625 39.515625 C13.35839844 40.76601563 13.32617188 42.01640625 13.29296875 43.3046875 C13.27169922 45.25761719 13.27169922 45.25761719 13.25 47.25 C13.22035156 48.56742188 13.19070313 49.88484375 13.16015625 51.2421875 C13.08945464 54.49446134 13.0424643 57.74723492 13 61 C8.71 61 4.42 61 0 61 C0 40.87 0 20.74 0 0 Z " fill="#F4F5F5" transform="translate(446,670)"/>
<path d="M0 0 C6.07409364 2.73216953 10.174568 7.26592912 13.0234375 13.22265625 C13.6484375 16.34765625 13.6484375 16.34765625 13.6484375 25.34765625 C3.4184375 25.34765625 -6.8115625 25.34765625 -17.3515625 25.34765625 C-15.17096417 32.1959152 -15.17096417 32.1959152 -11.3515625 34.34765625 C-7.03675687 34.83612481 -5.00858258 34.78566964 -1.3515625 32.34765625 C2.31387649 29.90403025 4.32267341 29.94712254 8.6484375 30.34765625 C11.0859375 30.84765625 11.0859375 30.84765625 12.6484375 31.34765625 C10.9231154 36.83731748 7.85024325 40.03924506 2.93359375 42.9609375 C-3.58824462 45.71391327 -11.47770805 45.72538691 -18.15234375 43.3515625 C-24.07596222 39.83721407 -27.50436706 34.940995 -29.3515625 28.34765625 C-30.36312276 20.90725437 -30.51475161 14.13525346 -25.84765625 7.9609375 C-18.52059738 0.05995757 -10.75191043 -2.98267283 0 0 Z " fill="#F6F7F6" transform="translate(787.3515625,687.65234375)"/>
<path d="M0 0 C0.86798993 10.03711986 -6.0673149 21.24487585 -12.25 28.75 C-19.12874001 35.64049854 -26.74415166 38.23614114 -36.375 38.5 C-41.39273494 38.45385991 -44.63440676 37.47955145 -49 35 C-44.03616471 29.4298163 -37.87511548 26.06443764 -31.50976562 22.28515625 C-30.67509766 21.77597656 -29.84042969 21.26679688 -28.98046875 20.7421875 C-27.83421021 20.05938721 -27.83421021 20.05938721 -26.66479492 19.36279297 C-26.1154126 18.91307129 -25.56603027 18.46334961 -25 18 C-25 17.01 -25 16.02 -25 15 C-29.8856878 15.55221375 -33.30183177 17.75654604 -37.375 20.3125 C-38.65320021 21.10098326 -39.93184433 21.88874739 -41.2109375 22.67578125 C-41.83323242 23.06072754 -42.45552734 23.44567383 -43.09667969 23.84228516 C-46.02881281 25.62578634 -49.01160006 27.31275094 -52 29 C-53.09489602 20.97076252 -49.02552065 14.24188774 -44.46484375 7.84765625 C-33.49829696 -4.46613216 -14.7458233 -4.36913283 0 0 Z " fill="#A95FDC" transform="translate(551,229)"/>
<path d="M0 0 C5.13308791 2.61320839 8.1797908 5.53937241 10 11 C10.08481773 13.58630224 10.11598229 16.14478056 10.09765625 18.73046875 C10.0962413 19.48088943 10.09482635 20.23131012 10.09336853 21.00447083 C10.0877756 23.3988546 10.07522444 25.79314453 10.0625 28.1875 C10.05748408 29.81184761 10.05292134 31.43619668 10.04882812 33.06054688 C10.03780848 37.04040069 10.02054873 41.02018444 10 45 C6.04 45 2.08 45 -2 45 C-2.0093457 44.14245117 -2.01869141 43.28490234 -2.02832031 42.40136719 C-2.07241291 39.21027321 -2.13406056 36.02013244 -2.20751953 32.82958984 C-2.23569099 31.45048349 -2.25692472 30.07121682 -2.27099609 28.69189453 C-2.29247545 26.70577051 -2.34123132 24.72000091 -2.390625 22.734375 C-2.41157227 21.54038086 -2.43251953 20.34638672 -2.45410156 19.11621094 C-3.10214603 15.41690878 -4.00172417 14.20481168 -7 12 C-11.56286886 11.39700305 -11.56286886 11.39700305 -15.68286133 13.09887695 C-17.66376808 15.95806525 -17.43898229 18.40776045 -17.51171875 21.85546875 C-17.52966995 22.51710526 -17.54762115 23.17874176 -17.56611633 23.86042786 C-17.62020898 25.96938747 -17.65410931 28.07812099 -17.6875 30.1875 C-17.72067427 31.61917208 -17.75516405 33.05081433 -17.79101562 34.48242188 C-17.87840887 37.98831349 -17.93847679 41.49317716 -18 45 C-22.29 45 -26.58 45 -31 45 C-31 30.48 -31 15.96 -31 1 C-27.04 1 -23.08 1 -19 1 C-19 2.98 -19 4.96 -19 7 C-18.34 7 -17.68 7 -17 7 C-16.6596875 6.1028125 -16.6596875 6.1028125 -16.3125 5.1875 C-12.67727254 -0.87121244 -6.39313991 -0.9323329 0 0 Z " fill="#F2F2F2" transform="translate(645,687)"/>
<path d="M0 0 C3.23207407 1.94061107 5.51055898 4.02064242 7.4375 7.3125 C7.53125 9.97265625 7.53125 9.97265625 7.4375 12.3125 C3.74342157 12.54178763 0.12512743 12.6769748 -3.5625 12.3125 C-5.8125 10.3125 -5.8125 10.3125 -7.5625 8.3125 C-11.2300213 7.97832071 -11.2300213 7.97832071 -14.5625 8.3125 C-14.8925 9.6325 -15.2225 10.9525 -15.5625 12.3125 C-11.60172674 14.62295107 -7.99376277 15.71782246 -3.5 16.6875 C1.70303063 17.90111012 4.21165802 19.08553464 7.4375 23.3125 C7.7675 23.6425 8.0975 23.9725 8.4375 24.3125 C8.88594616 28.48649889 8.87906271 32.20859322 7.3125 36.125 C3.44010499 40.64279418 -0.94102947 43.09482155 -6.85546875 43.5859375 C-19.68008423 43.92038083 -19.68008423 43.92038083 -25.109375 39.7421875 C-27.13678863 37.74747409 -28.48075915 35.94924332 -29.5625 33.3125 C-29.5625 31.9925 -29.5625 30.6725 -29.5625 29.3125 C-27.62622231 29.20442869 -25.68822244 29.1268775 -23.75 29.0625 C-22.13158203 28.99289062 -22.13158203 28.99289062 -20.48046875 28.921875 C-17.5625 29.3125 -17.5625 29.3125 -15.96875 31.3125 C-15.5046875 31.9725 -15.040625 32.6325 -14.5625 33.3125 C-12.28360658 33.79418728 -12.28360658 33.79418728 -9.875 33.5625 C-8.66263672 33.50835938 -8.66263672 33.50835938 -7.42578125 33.453125 C-6.81089844 33.40671875 -6.19601562 33.3603125 -5.5625 33.3125 C-5.2325 31.6625 -4.9025 30.0125 -4.5625 28.3125 C-5.73167969 27.99796875 -6.90085937 27.6834375 -8.10546875 27.359375 C-9.65382152 26.92771302 -11.20198903 26.49538614 -12.75 26.0625 C-13.51892578 25.85753906 -14.28785156 25.65257812 -15.08007812 25.44140625 C-19.70652536 24.13091047 -23.03493475 22.74509234 -26.5625 19.3125 C-28.60219799 15.62161793 -29.07434637 12.49257873 -28.5625 8.3125 C-26.48153515 4.1505703 -24.01472181 1.16326248 -19.8125 -0.9921875 C-13.45070137 -2.95815999 -6.07370348 -2.78662426 0 0 Z " fill="#F5F5F4" transform="translate(743.5625,688.6875)"/>
<path d="M0 0 C4.29 0 8.58 0 13 0 C13 3.96 13 7.92 13 12 C15.97 12 18.94 12 22 12 C22 15.3 22 18.6 22 22 C19.03 22 16.06 22 13 22 C13.33 29.26 13.66 36.52 14 44 C17.465 44.495 17.465 44.495 21 45 C21.19406478 46.64507218 21.38007935 48.29109594 21.5625 49.9375 C21.66691406 50.85402344 21.77132812 51.77054688 21.87890625 52.71484375 C21.91886719 53.46894531 21.95882812 54.22304688 22 55 C20.21927258 56.78072742 17.72356123 56.25615294 15.3125 56.3125 C10.03518764 56.25609167 6.91465273 55.81427702 3 52 C-0.9725332 46.24928527 -0.34141996 40.3264382 -0.1875 33.625 C-0.17396484 32.50738281 -0.16042969 31.38976562 -0.14648438 30.23828125 C-0.11127164 27.49168789 -0.06202096 24.74609711 0 22 C-2.31 22 -4.62 22 -7 22 C-7 18.7 -7 15.4 -7 12 C-4.69 12 -2.38 12 0 12 C0 8.04 0 4.08 0 0 Z " fill="#F1F2F2" transform="translate(812,676)"/>
<path d="M0 0 C3.96 0 7.92 0 12 0 C12 3.63 12 7.26 12 11 C14.97 11 17.94 11 21 11 C21 13.97 21 16.94 21 20 C18.03 20 15.06 20 12 20 C12.13816959 23.64616671 12.28681534 27.29183074 12.4375 30.9375 C12.47681641 31.97841797 12.51613281 33.01933594 12.55664062 34.09179688 C12.59853516 35.08115234 12.64042969 36.07050781 12.68359375 37.08984375 C12.72025146 38.00628662 12.75690918 38.92272949 12.79467773 39.86694336 C12.77003864 41.9820728 12.77003864 41.9820728 14 43 C16.32817964 43.36760731 18.6618385 43.70241581 21 44 C21.33 47.3 21.66 50.6 22 54 C18.07486948 55.96256526 13.28912771 55.34188699 9 55 C4.78264219 53.29511067 2.54845798 50.72782551 0 47 C-0.45410156 44.0456543 -0.45410156 44.0456543 -0.390625 40.82421875 C-0.37773437 39.66728516 -0.36484375 38.51035156 -0.3515625 37.31835938 C-0.31804687 36.12017578 -0.28453125 34.92199219 -0.25 33.6875 C-0.23195313 32.46998047 -0.21390625 31.25246094 -0.1953125 29.99804688 C-0.14825131 26.99789578 -0.0825131 23.99935111 0 21 C-2.64 21 -5.28 21 -8 21 C-8 17.7 -8 14.4 -8 11 C-5.36 11 -2.72 11 0 11 C0 7.37 0 3.74 0 0 Z " fill="#F7F8F8" transform="translate(417,677)"/>
<path d="M0 0 C5.51501407 3.88763287 9.09967908 7.46764682 11 14 C11.1875 17.4375 11.1875 17.4375 11 20 C6.22431104 17.81353999 2.0764748 14.66622847 -2.22265625 11.6796875 C-4.88688042 9.74124934 -4.88688042 9.74124934 -8 10 C-8 10.99 -8 11.98 -8 13 C-5.45196799 15.0529817 -5.45196799 15.0529817 -2.25 17 C1.2580314 19.23700553 4.71272684 21.44677813 8 24 C7.505 25.485 7.505 25.485 7 27 C-10.37402125 27.81440725 -10.37402125 27.81440725 -17.59765625 21.6328125 C-22.84375586 16.23912441 -27.73672966 7.65110928 -28.1640625 0.1015625 C-28.10992187 -0.59195312 -28.05578125 -1.28546875 -28 -2 C-19.94491255 -4.5743063 -7.23724034 -4.60255958 0 0 Z " fill="#9D51D5" transform="translate(461,318)"/>
<path d="M0 0 C0.763125 0.00064453 1.52625 0.00128906 2.3125 0.00195312 C5.57988579 0.02774828 8.25633815 0.14794605 11.375 1.1875 C11.20198972 8.72131122 9.59947563 13.95250906 5.375 20.1875 C4.80072266 21.05568359 4.80072266 21.05568359 4.21484375 21.94140625 C1.08341438 26.17679716 -2.60823413 28.75530746 -7.625 30.1875 C-17.81030351 31.09484824 -17.81030351 31.09484824 -21.625 29.1875 C-19.91590803 24.1855575 -15.37492732 22.12561336 -11.1484375 19.45507812 C-9.59253855 18.43575593 -8.1024976 17.31747351 -6.625 16.1875 C-6.625 15.1975 -6.625 14.2075 -6.625 13.1875 C-11.33290686 13.66612269 -14.23887287 15.86547773 -17.8125 18.75 C-23.38125948 23.1875 -23.38125948 23.1875 -25.625 23.1875 C-25.59102387 15.84865524 -23.6231622 11.52452065 -18.625 6.1875 C-12.75392771 0.74601837 -7.71618551 -0.12509174 0 0 Z " fill="#9F53D5" transform="translate(521.625,283.8125)"/>
<path d="M0 0 C2.05078125 0.03255208 4.1015625 0.06510417 6.15234375 0.09765625 C6.15234375 4.05765625 6.15234375 8.01765625 6.15234375 12.09765625 C4.58484375 12.18015625 3.01734375 12.26265625 1.40234375 12.34765625 C-1.81883747 12.5171921 -3.39874332 12.74992425 -5.97070312 14.7421875 C-8.38471514 17.77163441 -8.3845084 19.55082009 -8.45703125 23.39453125 C-8.48925781 24.59980469 -8.52148438 25.80507813 -8.5546875 27.046875 C-8.57595703 28.92826172 -8.57595703 28.92826172 -8.59765625 30.84765625 C-8.62730469 32.11738281 -8.65695312 33.38710938 -8.6875 34.6953125 C-8.75818659 37.82908461 -8.80518631 40.96337475 -8.84765625 44.09765625 C-12.80765625 44.09765625 -16.76765625 44.09765625 -20.84765625 44.09765625 C-20.84765625 29.90765625 -20.84765625 15.71765625 -20.84765625 1.09765625 C-16.88765625 1.09765625 -12.92765625 1.09765625 -8.84765625 1.09765625 C-8.51765625 2.74765625 -8.18765625 4.39765625 -7.84765625 6.09765625 C-7.04328125 5.29328125 -6.23890625 4.48890625 -5.41015625 3.66015625 C-1.84765625 0.09765625 -1.84765625 0.09765625 0 0 Z " fill="#F9F9F9" transform="translate(283.84765625,686.90234375)"/>
<path d="M0 0 C3.96 0 7.92 0 12 0 C12 14.19 12 28.38 12 43 C8.04 43 4.08 43 0 43 C0 28.81 0 14.62 0 0 Z " fill="#FAFAFA" transform="translate(592,688)"/>
<path d="M0 0 C2.9375 1.8125 2.9375 1.8125 5 5 C5.92917422 11.3980282 5.92633041 16.66611718 2 22 C-1.75047482 24.50031654 -3.55856266 24.53603554 -8 24 C-11.79931241 20.94403132 -13.6827968 18.63278657 -14.2734375 13.73046875 C-14.45293545 9.23611625 -14.57886603 6.0168906 -11.625 2.4375 C-7.45539826 -1.43427305 -5.54016447 -1.3146153 0 0 Z " fill="#1C2330" transform="translate(320,698)"/>
<path d="M0 0 C2 2 2 2 2.375 4.8125 C1.92199358 8.66305455 0.6183364 10.21801758 -2 13 C-0.63676257 15.0399719 -0.63676257 15.0399719 1 17 C1.66 17 2.32 17 3 17 C3.66 15.68 4.32 14.36 5 13 C5.99 13.33 6.98 13.66 8 14 C7.608125 15.216875 7.21625 16.43375 6.8125 17.6875 C5.94993845 21.03661828 5.86496347 21.70537485 7.375 25 C7.91125 25.66 8.4475 26.32 9 27 C7.35 27 5.7 27 4 27 C4 26.01 4 25.02 4 24 C2.989375 24.680625 1.97875 25.36125 0.9375 26.0625 C-2.03926472 27.7557609 -3.08460792 28 -6.6875 28 C-10.3443751 26.89603771 -11.86542883 26.15916533 -14 23 C-14.5625 20.0625 -14.5625 20.0625 -14 17 C-11.5 14.125 -11.5 14.125 -9 12 C-9.5259375 10.9171875 -9.5259375 10.9171875 -10.0625 9.8125 C-11.12787856 6.61636431 -11.0812528 5.1605851 -10 2 C-7.4833357 -2.19444049 -4.29836374 -1.01597688 0 0 Z " fill="#999B9F" transform="translate(618,766)"/>
<path d="M0 0 C0.66 0.66 1.32 1.32 2 2 C2.33 1.34 2.66 0.68 3 0 C3.99 0 4.98 0 6 0 C6.14522934 3.91627663 6.23404757 7.83186153 6.3125 11.75 C6.35439453 12.86117187 6.39628906 13.97234375 6.43945312 15.1171875 C6.5629973 23.3205205 6.5629973 23.3205205 3.734375 26.734375 C-0.39980739 28.64791085 -2.45552325 28.57707641 -7 28 C-9.5 26.125 -9.5 26.125 -11 24 C-11 23.34 -11 22.68 -11 22 C-9.68 22 -8.36 22 -7 22 C-6.67 22.66 -6.34 23.32 -6 24 C-3.36 24 -0.72 24 2 24 C2 22.02 2 20.04 2 18 C1.01 18.66 0.02 19.32 -1 20 C-3.875 20.5 -3.875 20.5 -7 20 C-10.10139516 17.37055628 -11.62225447 15.73641089 -12.484375 11.7734375 C-12.73841396 7.55356806 -12.33863556 5.5028225 -9.9375 1.9375 C-6.31310142 -0.45306076 -4.26372358 -0.5631333 0 0 Z " fill="#9EA1A5" transform="translate(584,773)"/>
<path d="M0 0 C3.15954305 2.54137159 4.71540886 4.14622659 6 8 C6.43243266 13.62162453 5.66769491 17.14098427 3 22 C0.38246269 24.24360341 -1.01189426 23.9995752 -4.5 23.875 C-8.30972781 22.92256805 -9.64628244 22.07793835 -12 19 C-13.44440034 14.66679898 -13.54168843 10.5285153 -13 6 C-9.5159282 0.3093494 -6.58106189 -0.66926053 0 0 Z " fill="#1C2330" transform="translate(688,698)"/>
<path d="M0 0 C3.0216321 0.73251687 4.80104733 2.27158096 6.93359375 4.46875 C8.46574263 7.53304776 8.16297923 10.0853142 7.93359375 13.46875 C6.2822007 17.0074494 5.21754146 18.27945153 1.93359375 20.46875 C-1.16119343 20.86807738 -3.10673604 21.11365868 -6.06640625 20.46875 C-9.1447639 17.90345196 -10.61014819 16.35361938 -11.54296875 12.5 C-11.81629652 8.75972526 -11.21260461 6.06394764 -9.06640625 2.96875 C-5.69978951 0.16323605 -4.23958901 -0.32057384 0 0 Z " fill="#909498" transform="translate(378.06640625,772.53125)"/>
<path d="M0 0 C3.0216321 0.73251687 4.80104733 2.27158096 6.93359375 4.46875 C8.46574263 7.53304776 8.16297923 10.0853142 7.93359375 13.46875 C6.2822007 17.0074494 5.21754146 18.27945153 1.93359375 20.46875 C-5.15810931 21.14415029 -5.15810931 21.14415029 -8.50390625 18.65625 C-11.33290408 14.69565303 -11.55057886 11.22978066 -11.06640625 6.46875 C-8.111974 1.39081957 -5.74532084 -0.4344288 0 0 Z " fill="#93979B" transform="translate(693.06640625,772.53125)"/>
<path d="M0 0 C2.9375 2.4375 2.9375 2.4375 5 5 C5.33 5.33 5.66 5.66 6 6 C6.04466504 10.40397289 5.79598865 13.97291787 3.0625 17.5 C-0.72403067 20.25384048 -3.30942724 20.40435972 -8 20 C-10.36497439 18.13291495 -11.66030715 16.67938569 -13 14 C-13.42038217 5.31210191 -13.42038217 5.31210191 -11 2 C-7.33476845 -0.4434877 -4.26029643 -0.84707648 0 0 Z " fill="#929599" transform="translate(269,773)"/>
<path d="M0 0 C3.63354502 0.94501473 4.93542865 2.37566977 6.9375 5.50390625 C7.9526866 10.57983924 7.74739899 14.23843908 4.9375 18.62890625 C0.77344076 21.23144328 -1.20152472 21.19833129 -6.0625 20.50390625 C-8.49369623 18.63375531 -9.70319173 17.2225228 -11.0625 14.50390625 C-11.51519417 9.9769645 -11.75511379 6.79886529 -9.0625 3.00390625 C-5.72755309 0.22478382 -4.21994126 -0.37563871 0 0 Z " fill="#95989C" transform="translate(770.0625,772.49609375)"/>
<path d="M0 0 C2.9375 2.125 2.9375 2.125 5 5 C5 6.98 5 8.96 5 11 C0.38 11 -4.24 11 -9 11 C-8.34 12.65 -7.68 14.3 -7 16 C-2.83861737 16.08159574 0.9472484 15.98248524 5 15 C3.25 18.875 3.25 18.875 1 20 C-2.0826338 20.47844415 -4.92434762 20.55149629 -8 20 C-11.60762193 16.98137757 -12.81618826 15.14371747 -13.5625 10.5 C-12.9051093 6.40956896 -11.59081908 4.20042356 -9 1 C-5.86128812 -0.56935594 -3.46144178 -0.35201103 0 0 Z " fill="#868A8F" transform="translate(474,773)"/>
<path d="M0 0 C1.95193565 1.54426792 2.89577182 2.41819008 3.34057617 4.90112305 C3.32486572 5.59761963 3.30915527 6.29411621 3.29296875 7.01171875 C3.28330078 7.76904297 3.27363281 8.52636719 3.26367188 9.30664062 C3.23853516 10.09232422 3.21339844 10.87800781 3.1875 11.6875 C3.16719727 12.88342773 3.16719727 12.88342773 3.14648438 14.10351562 C3.11117089 16.06929967 3.05736447 18.03473582 3 20 C2.360625 19.814375 1.72125 19.62875 1.0625 19.4375 C0.0415625 19.2209375 0.0415625 19.2209375 -1 19 C-1.33 19.33 -1.66 19.66 -2 20 C-9.21592649 20.46554364 -9.21592649 20.46554364 -12 18.8125 C-13.41113901 16.25481055 -13.56152444 14.87781273 -13 12 C-10.8342985 9.49590764 -9.23669679 8.1440146 -5.88671875 7.75390625 C-3.92276836 7.75041788 -1.95945545 7.86715556 0 8 C-0.33 6.68 -0.66 5.36 -1 4 C-3.91652174 3.83318891 -3.91652174 3.83318891 -7 4 C-7.66 4.66 -8.32 5.32 -9 6 C-9.99 6 -10.98 6 -12 6 C-9.75518148 -0.25342303 -6.5725419 -1.09325449 0 0 Z " fill="#94989C" transform="translate(496,773)"/>
<path d="M0 0 C3.70231632 1.85115816 5.51767858 3.03535716 7.375 6.75 C7.58125 7.4925 7.7875 8.235 8 9 C6.68 9 5.36 9 4 9 C3.4225 8.34 2.845 7.68 2.25 7 C-0.22298062 4.80179501 -0.88742366 4.63930865 -4.0625 4.5 C-7.93397578 4.58444598 -7.93397578 4.58444598 -9.7265625 6.71875 C-11.20985825 9.37594239 -11.37242649 10.97601689 -11.3125 14 C-11.30863281 14.845625 -11.30476562 15.69125 -11.30078125 16.5625 C-10.98117503 19.15255559 -10.38908923 20.80101776 -9 23 C-5.98131566 24.50934217 -3.32702771 24.17510672 0 24 C3.24849977 22.27773504 3.24849977 22.27773504 4 19 C5.32 19 6.64 19 8 19 C7.18221657 22.34547769 6.54207779 24.49180208 4 26.875 C-0.3714487 28.51429326 -4.39509401 28.82555058 -9 28 C-12.56930584 25.24866008 -15.71277855 22.12744257 -16.3359375 17.51171875 C-16.43699456 10.20529351 -15.31475469 6.55152288 -10.25 1.125 C-6.85529832 -0.57235084 -3.66563329 -0.63443653 0 0 Z " fill="#85888E" transform="translate(244,765)"/>
<path d="M0 0 C5.94 0 11.88 0 18 0 C18 0.99 18 1.98 18 3 C13.38 3 8.76 3 4 3 C4 5.64 4 8.28 4 11 C8.29 11 12.58 11 17 11 C17 11.99 17 12.98 17 14 C10.565 14.495 10.565 14.495 4 15 C3.67 17.97 3.34 20.94 3 24 C7.95 24 12.9 24 18 24 C18 24.99 18 25.98 18 27 C12.06 27 6.12 27 0 27 C0 18.09 0 9.18 0 0 Z " fill="#999DA1" transform="translate(641,766)"/>
<path d="M0 0 C1.32 0 2.64 0 4 0 C4.33 5.28 4.66 10.56 5 16 C6.98 16 8.96 16 11 16 C12.99616554 14.00383446 12.40983427 10.18298037 12.5625 7.4375 C12.60568359 6.72658203 12.64886719 6.01566406 12.69335938 5.28320312 C12.79971777 3.52238088 12.90038846 1.7612168 13 0 C14.32 0 15.64 0 17 0 C17 6.6 17 13.2 17 20 C15.35 19.67 13.7 19.34 12 19 C11.67 19.33 11.34 19.66 11 20 C5.20411664 20.46740995 5.20411664 20.46740995 3 20 C0.10636943 17.50772311 -0.00351152 15.95336707 -0.29296875 12.109375 C-0.27314945 10.65595991 -0.23754845 9.20268833 -0.1875 7.75 C-0.17396484 7.00492188 -0.16042969 6.25984375 -0.14648438 5.4921875 C-0.11127204 3.66114584 -0.05746851 1.83047831 0 0 Z " fill="#8A8E94" transform="translate(346,773)"/>
<path d="M0 0 C1.32 0 2.64 0 4 0 C4.33 5.28 4.66 10.56 5 16 C6.98 16 8.96 16 11 16 C12.99616554 14.00383446 12.40983427 10.18298037 12.5625 7.4375 C12.60568359 6.72658203 12.64886719 6.01566406 12.69335938 5.28320312 C12.79971777 3.52238088 12.90038846 1.7612168 13 0 C14.32 0 15.64 0 17 0 C17 6.6 17 13.2 17 20 C15.35 19.67 13.7 19.34 12 19 C11.67 19.33 11.34 19.66 11 20 C5.20411664 20.46740995 5.20411664 20.46740995 3 20 C0.10636943 17.50772311 -0.00351152 15.95336707 -0.29296875 12.109375 C-0.27314945 10.65595991 -0.23754845 9.20268833 -0.1875 7.75 C-0.17396484 7.00492188 -0.16042969 6.25984375 -0.14648438 5.4921875 C-0.11127204 3.66114584 -0.05746851 1.83047831 0 0 Z " fill="#8A8F94" transform="translate(390,773)"/>
<path d="M0 0 C0.99 0 1.98 0 3 0 C3.33 0.66 3.66 1.32 4 2 C4.66 1.34 5.32 0.68 6 0 C9.72850874 -0.41427875 12.05367179 -0.64537578 15.2109375 1.5078125 C17.70977782 4.9887298 17.43870422 8.14205428 17.25 12.25 C17.23195313 12.99507812 17.21390625 13.74015625 17.1953125 14.5078125 C17.14835649 16.33909701 17.07661652 18.16971649 17 20 C15.68 20 14.36 20 13 20 C12.93941406 18.92878906 12.87882812 17.85757813 12.81640625 16.75390625 C12.73201463 15.35675609 12.64736594 13.95962143 12.5625 12.5625 C12.52318359 11.85544922 12.48386719 11.14839844 12.44335938 10.41992188 C12.52375562 6.91309581 12.52375562 6.91309581 11 4 C8.5 3.83333333 8.5 3.83333333 6 4 C4.00383446 5.99616554 4.59016573 9.81701963 4.4375 12.5625 C4.39431641 13.27341797 4.35113281 13.98433594 4.30664062 14.71679688 C4.20028223 16.47761912 4.09961154 18.2387832 4 20 C2.68 20 1.36 20 0 20 C0 13.4 0 6.8 0 0 Z " fill="#8E9296" transform="translate(279,773)"/>
<path d="M0 0 C0.99 0 1.98 0 3 0 C3 0.66 3 1.32 3 2 C3.99 1.34 4.98 0.68 6 0 C9.74386392 -0.40842152 12.04224073 -0.65432757 15.20703125 1.5078125 C17.71091099 4.98815078 17.43879144 8.1401556 17.25 12.25 C17.23195313 12.99507812 17.21390625 13.74015625 17.1953125 14.5078125 C17.14835649 16.33909701 17.07661652 18.16971649 17 20 C15.68 20 14.36 20 13 20 C12.93941406 18.92878906 12.87882813 17.85757813 12.81640625 16.75390625 C12.73201463 15.35675609 12.64736594 13.95962143 12.5625 12.5625 C12.52318359 11.85544922 12.48386719 11.14839844 12.44335938 10.41992188 C12.52375562 6.91309581 12.52375562 6.91309581 11 4 C8.5 3.83333333 8.5 3.83333333 6 4 C4.00383446 5.99616554 4.59016573 9.81701963 4.4375 12.5625 C4.39431641 13.27341797 4.35113281 13.98433594 4.30664062 14.71679688 C4.20028223 16.47761912 4.09961154 18.2387832 4 20 C2.68 20 1.36 20 0 20 C0 13.4 0 6.8 0 0 Z " fill="#8A8E93" transform="translate(782,773)"/>
<path d="M0 0 C0.99 0 1.98 0 3 0 C3.33 0.66 3.66 1.32 4 2 C4.66 1.34 5.32 0.68 6 0 C9.72850874 -0.41427875 12.05367179 -0.64537578 15.2109375 1.5078125 C17.70977782 4.9887298 17.43870422 8.14205428 17.25 12.25 C17.23195313 12.99507812 17.21390625 13.74015625 17.1953125 14.5078125 C17.14835649 16.33909701 17.07661652 18.16971649 17 20 C15.68 20 14.36 20 13 20 C12.93941406 18.92878906 12.87882812 17.85757813 12.81640625 16.75390625 C12.73201463 15.35675609 12.64736594 13.95962143 12.5625 12.5625 C12.52318359 11.85544922 12.48386719 11.14839844 12.44335938 10.41992188 C12.52375562 6.91309581 12.52375562 6.91309581 11 4 C8.5 3.83333333 8.5 3.83333333 6 4 C4.00383446 5.99616554 4.59016573 9.81701963 4.4375 12.5625 C4.39431641 13.27341797 4.35113281 13.98433594 4.30664062 14.71679688 C4.20028223 16.47761912 4.09961154 18.2387832 4 20 C2.68 20 1.36 20 0 20 C0 13.4 0 6.8 0 0 Z " fill="#8A8F94" transform="translate(324,773)"/>
<path d="M0 0 C6.75 0.75 6.75 0.75 9 3 C9.52981019 6.97357645 9.31881474 8.54170381 7 11.875 C6.34 12.57625 5.68 13.2775 5 14 C6.36323743 16.0399719 6.36323743 16.0399719 8 18 C8.66 18 9.32 18 10 18 C10.66 16.68 11.32 15.36 12 14 C12.99 14.33 13.98 14.66 15 15 C14.4121875 16.8253125 14.4121875 16.8253125 13.8125 18.6875 C12.94993845 22.03661828 12.86496347 22.70537485 14.375 26 C14.91125 26.66 15.4475 27.32 16 28 C14.35 28 12.7 28 11 28 C11 27.01 11 26.02 11 25 C10.29875 25.495 9.5975 25.99 8.875 26.5 C5.62880281 28.1936681 3.60659844 28.25162315 0 28 C0 27.34 0 26.68 0 26 C2.31 25.34 4.62 24.68 7 24 C6.525625 23.236875 6.05125 22.47375 5.5625 21.6875 C4 19 4 19 3 16 C2.01 15.67 1.02 15.34 0 15 C0.25 12.625 0.25 12.625 1 10 C3.0625 8.6875 3.0625 8.6875 5 8 C5 6.68 5 5.36 5 4 C4.01 3.67 3.02 3.34 2 3 C2 2.34 2 1.68 2 1 C1.34 0.67 0.68 0.34 0 0 Z " fill="#95989A" transform="translate(611,765)"/>
<path d="M0 0 C1.32 0.33 2.64 0.66 4 1 C4.33 0.67 4.66 0.34 5 0 C10.73211781 -0.56381487 10.73211781 -0.56381487 13 0 C16.16999244 2.87228881 16.94651281 4.48384859 17.390625 8.76953125 C17.36431837 10.11774585 17.31701804 11.46569518 17.25 12.8125 C17.23195313 13.50537109 17.21390625 14.19824219 17.1953125 14.91210938 C17.14851064 16.60867664 17.07677624 18.30452476 17 20 C15.68 20 14.36 20 13 20 C12.93941406 18.92878906 12.87882813 17.85757813 12.81640625 16.75390625 C12.73201463 15.35675609 12.64736594 13.95962143 12.5625 12.5625 C12.52318359 11.85544922 12.48386719 11.14839844 12.44335938 10.41992188 C12.52375562 6.91309581 12.52375562 6.91309581 11 4 C8.54190002 3.7499227 8.54190002 3.7499227 6 4 C3.14206684 6.85793316 3.59200059 9.14665584 3.375 13.125 C3.30023437 14.40632812 3.22546875 15.68765625 3.1484375 17.0078125 C3.09945312 17.99523437 3.05046875 18.98265625 3 20 C2.01 20 1.02 20 0 20 C0 13.4 0 6.8 0 0 Z " fill="#959B9F" transform="translate(551,773)"/>
<path d="M0 0 C1.32 0 2.64 0 4 0 C4.06058594 1.07121094 4.12117187 2.14242187 4.18359375 3.24609375 C4.26798537 4.64324391 4.35263406 6.04037857 4.4375 7.4375 C4.47681641 8.14455078 4.51613281 8.85160156 4.55664062 9.58007812 C4.47624438 13.08690419 4.47624438 13.08690419 6 16 C8.45809998 16.2500773 8.45809998 16.2500773 11 16 C13.85793316 13.14206684 13.40799941 10.85334416 13.625 6.875 C13.69976563 5.59367188 13.77453125 4.31234375 13.8515625 2.9921875 C13.90054688 2.00476563 13.94953125 1.01734375 14 0 C14.99 0 15.98 0 17 0 C17 6.6 17 13.2 17 20 C16.01 20 15.02 20 14 20 C13.67 19.34 13.34 18.68 13 18 C12.34 18.66 11.68 19.32 11 20 C4.77205882 20.56617647 4.77205882 20.56617647 2.125 18.625 C-0.40957157 14.96395217 -0.11410657 11.67819422 -0.0625 7.375 C-0.05798828 6.66859375 -0.05347656 5.9621875 -0.04882812 5.234375 C-0.03703875 3.48954725 -0.01910324 1.744763 0 0 Z " fill="#8E9398" transform="translate(714,773)"/>
<path d="M0 0 C2.5 2 2.5 2 4 4 C2.0625 4.5625 2.0625 4.5625 0 5 C-0.33 4.67 -0.66 4.34 -1 4 C-2.99958364 3.95919217 -5.00045254 3.95745644 -7 4 C-7 4.99 -7 5.98 -7 7 C-6.37351562 7.19335938 -5.74703125 7.38671875 -5.1015625 7.5859375 C-3.87566406 7.97652344 -3.87566406 7.97652344 -2.625 8.375 C-1.81289063 8.63023437 -1.00078125 8.88546875 -0.1640625 9.1484375 C2 10 2 10 4 12 C4.375 14.4375 4.375 14.4375 4 17 C2.22513338 19.1446305 0.84460623 19.87365521 -1.90625 20.28515625 C-5.33248854 20.43217768 -7.45658046 20.29888075 -10.5 18.625 C-12 17 -12 17 -12 15 C-8.37 15.33 -4.74 15.66 -1 16 C-1 15.01 -1 14.02 -1 13 C-3.97 12.01 -6.94 11.02 -10 10 C-11.31690141 3.65492958 -11.31690141 3.65492958 -10.0625 1.0625 C-6.79591736 -0.620285 -3.54076333 -0.67680587 0 0 Z " fill="#969A9D" transform="translate(423,773)"/>
<path d="M0 0 C2.5 1.5625 2.5 1.5625 4 4 C3.9375 7.625 3.9375 7.625 3 11 C-0.69486103 13.46324069 -2.63293092 13.38991688 -7 13 C-8.9375 11.9375 -8.9375 11.9375 -10 10 C-10.36528977 6.5906288 -10.6140629 4.11976176 -8.9375 1.0625 C-5.8347167 -0.63902633 -3.46230815 -0.42519574 0 0 Z " fill="#F1F2F1" transform="translate(601,669)"/>
<path d="M0 0 C1.32 0.33 2.64 0.66 4 1 C4.33 0.67 4.66 0.34 5 0 C12.39604466 -0.47716417 12.39604466 -0.47716417 14.60717773 1.26977539 C16.30330523 3.376779 16.35320167 4.34139267 16.29296875 7.01171875 C16.28330078 7.76904297 16.27363281 8.52636719 16.26367188 9.30664062 C16.23853516 10.09232422 16.21339844 10.87800781 16.1875 11.6875 C16.16719727 12.88342773 16.16719727 12.88342773 16.14648438 14.10351562 C16.11117089 16.06929967 16.05736447 18.03473582 16 20 C15.01 20 14.02 20 13 20 C12.93941406 18.92878906 12.87882813 17.85757813 12.81640625 16.75390625 C12.73201463 15.35675609 12.64736594 13.95962143 12.5625 12.5625 C12.52318359 11.85544922 12.48386719 11.14839844 12.44335938 10.41992188 C12.52375562 6.91309581 12.52375562 6.91309581 11 4 C8 3.83333333 8 3.83333333 5 4 C3.00383446 5.99616554 3.59016573 9.81701963 3.4375 12.5625 C3.39431641 13.27341797 3.35113281 13.98433594 3.30664062 14.71679688 C3.20028223 16.47761912 3.09961154 18.2387832 3 20 C2.01 20 1.02 20 0 20 C0 13.4 0 6.8 0 0 Z " fill="#979B9E" transform="translate(520,773)"/>
<path d="M0 0 C3 0.4375 3 0.4375 4.875 1.5 C6.64796631 4.55344197 6.36343372 6.98487962 6 10.4375 C4.875 12.875 4.875 12.875 3 14.4375 C0 14.9375 0 14.9375 -3 14.4375 C-5.57271448 12.20781412 -5.95311909 10.81254726 -6.375 7.4375 C-5.79227959 2.77573673 -4.81414955 0.70206348 0 0 Z " fill="#1D232F" transform="translate(265,775.5625)"/>
<path d="M0 0 C3.5 -0.375 3.5 -0.375 7 0 C8.99825961 2.99738941 9.27550398 3.63347508 9.25 7 C9.25515625 7.680625 9.2603125 8.36125 9.265625 9.0625 C9 11 9 11 7 14 C3.5 14.3125 3.5 14.3125 0 14 C-2 12 -2 12 -2.265625 9.94140625 C-2.26046875 9.15636719 -2.2553125 8.37132812 -2.25 7.5625 C-2.25515625 6.78003906 -2.2603125 5.99757813 -2.265625 5.19140625 C-2 3 -2 3 0 0 Z " fill="#1B212E" transform="translate(688,776)"/>
<path d="M0 0 C3.06997072 -0.39191116 5.11365285 -0.47271848 7.875 1 C9.68523932 4.21820324 9.53967465 7.40216898 9 11 C7.875 13 7.875 13 6 14 C2.9375 14.3125 2.9375 14.3125 0 14 C-2 12 -2 12 -2.265625 9.94140625 C-2.26046875 9.15636719 -2.2553125 8.37132812 -2.25 7.5625 C-2.25515625 6.78003906 -2.2603125 5.99757813 -2.265625 5.19140625 C-2 3 -2 3 0 0 Z " fill="#1E2331" transform="translate(373,776)"/>
<path d="M0 0 C3.0625 0.3125 3.0625 0.3125 4.9375 1.375 C6.71046631 4.42844197 6.42593372 6.85987962 6.0625 10.3125 C4.9375 12.75 4.9375 12.75 3.0625 14.3125 C0 14.6875 0 14.6875 -2.9375 14.3125 C-4.9375 12.3125 -4.9375 12.3125 -5.203125 10 C-5.19796875 9.113125 -5.1928125 8.22625 -5.1875 7.3125 C-5.19265625 6.425625 -5.1978125 5.53875 -5.203125 4.625 C-4.78088977 0.94906979 -3.57729598 0.3805634 0 0 Z " fill="#1C222E" transform="translate(767.9375,775.6875)"/>
<path d="M0 0 C3.0625 0.3125 3.0625 0.3125 4.9375 1.375 C6.73080867 4.46347604 6.49091969 6.82393969 6.0625 10.3125 C4.4375 12.8125 4.4375 12.8125 2.0625 14.3125 C-1.0625 14.3125 -1.0625 14.3125 -3.9375 13.3125 C-5.375 11.6875 -5.375 11.6875 -5.9375 9.3125 C-5.33439579 0.56748891 -5.33439579 0.56748891 0 0 Z " fill="#1F2430" transform="translate(580.9375,775.6875)"/>
<path d="M0 0 C1.859375 0.1953125 1.859375 0.1953125 4 1 C5.265625 3.1796875 5.265625 3.1796875 6.25 5.875 C6.75273438 7.20144531 6.75273438 7.20144531 7.265625 8.5546875 C8 11 8 11 8 14 C8.66 14 9.32 14 10 14 C10.18175781 13.11248047 10.18175781 13.11248047 10.3671875 12.20703125 C11.26744643 7.96196415 12.20456621 3.97560339 14 0 C15.32 0 16.64 0 18 0 C15.80962826 6.72045875 13.44234339 13.36724003 11 20 C9.68 20 8.36 20 7 20 C5.8278551 17.04380781 4.66322524 14.08471211 3.5 11.125 C3.16613281 10.28324219 2.83226562 9.44148437 2.48828125 8.57421875 C2.01455078 7.36572266 2.01455078 7.36572266 1.53125 6.1328125 C1.23798828 5.38918457 0.94472656 4.64555664 0.64257812 3.87939453 C0 2 0 2 0 0 Z " fill="#939599" transform="translate(662,773)"/>
<path d="M0 0 C1.32 0 2.64 0 4 0 C4 1.65 4 3.3 4 5 C5.32 5 6.64 5 8 5 C8 5.99 8 6.98 8 8 C6.68 8 5.36 8 4 8 C4.33 12.29 4.66 16.58 5 21 C5.99 21.33 6.98 21.66 8 22 C8 22.99 8 23.98 8 25 C5.6568787 24.74438677 3.32156597 24.40729228 1 24 C-0.50156874 20.99686252 -0.09281204 18.20932478 -0.0625 14.875 C-0.05347656 13.59367188 -0.04445313 12.31234375 -0.03515625 10.9921875 C-0.02355469 10.00476563 -0.01195312 9.01734375 0 8 C-1.32 8 -2.64 8 -4 8 C-4 7.01 -4 6.02 -4 5 C-2.68 5 -1.36 5 0 5 C0 3.35 0 1.7 0 0 Z " fill="#888C92" transform="translate(738,768)"/>
<path d="M0 0 C3.0625 2.3125 3.0625 2.3125 5 5 C5 5.99 5 6.98 5 8 C-1.27 8 -7.54 8 -14 8 C-13 3 -13 3 -11.5 1.1875 C-7.68428152 -0.62496628 -4.13825937 -0.80261614 0 0 Z " fill="#1F2733" transform="translate(784,697)"/>
<path d="M0 0 C0.33 0 0.66 0 1 0 C1.14528105 3.74959217 1.23406281 7.49846105 1.3125 11.25 C1.35439453 12.31347656 1.39628906 13.37695312 1.43945312 14.47265625 C1.56296983 22.32831875 1.56296983 22.32831875 -1.265625 25.703125 C-5.39672313 27.66244583 -7.44239231 27.57874383 -12 27 C-14.5 25.125 -14.5 25.125 -16 23 C-16 22.34 -16 21.68 -16 21 C-14.68 21 -13.36 21 -12 21 C-11.67 21.66 -11.34 22.32 -11 23 C-8.36 23 -5.72 23 -3 23 C-3 16.4 -3 9.8 -3 3 C-2.34 3 -1.68 3 -1 3 C-0.67 2.01 -0.34 1.02 0 0 Z " fill="#A6A9AE" transform="translate(589,774)"/>
<path d="M0 0 C0.99 0 1.98 0 3 0 C3 7.92 3 15.84 3 24 C7.29 24 11.58 24 16 24 C16 24.99 16 25.98 16 27 C10.72 27 5.44 27 0 27 C0 18.09 0 9.18 0 0 Z " fill="#969B9F" transform="translate(442,766)"/>
<path d="M0 0 C0.66 0.268125 1.32 0.53625 2 0.8125 C1.62129944 3.25923777 1.32689887 4.51035107 -0.51879883 6.21630859 C-2.60709159 7.5572982 -4.69766112 8.88862258 -6.8125 10.1875 C-7.90014648 10.90099609 -7.90014648 10.90099609 -9.00976562 11.62890625 C-9.71423828 12.06847656 -10.41871094 12.50804687 -11.14453125 12.9609375 C-11.78753174 13.36489746 -12.43053223 13.76885742 -13.09301758 14.18505859 C-15 14.8125 -15 14.8125 -17.2409668 13.92822266 C-17.82144775 13.56003418 -18.40192871 13.1918457 -19 12.8125 C-15.17528514 7.1760781 -7.21430518 -0.45089407 0 0 Z " fill="#1D2032" transform="translate(525,243.1875)"/>
<path d="M0 0 C0.33 0 0.66 0 1 0 C1.12117187 0.67546875 1.24234375 1.3509375 1.3671875 2.046875 C1.53476563 2.93890625 1.70234375 3.8309375 1.875 4.75 C2.03742188 5.63171875 2.19984375 6.5134375 2.3671875 7.421875 C2.97480082 9.89733667 3.67822299 11.82641115 5 14 C8.01868434 15.50934217 10.67297229 15.17510672 14 15 C17.24849977 13.27773504 17.24849977 13.27773504 18 10 C19.32 10 20.64 10 22 10 C21.18221657 13.34547769 20.54207779 15.49180208 18 17.875 C13.63119029 19.51330364 9.6018807 19.83120998 5 19 C2.17575712 16.80977082 0.58491397 15.16982793 -1 12 C-1.09584979 10.1478437 -1.12983606 8.29212847 -1.125 6.4375 C-1.12757813 5.44621094 -1.13015625 4.45492187 -1.1328125 3.43359375 C-1 1 -1 1 0 0 Z " fill="#94989B" transform="translate(230,774)"/>
<path d="M0 0 C0.99 0 1.98 0 3 0 C3 1.65 3 3.3 3 5 C4.65 5 6.3 5 8 5 C8 5.99 8 6.98 8 8 C6.35 8 4.7 8 3 8 C3.33 12.29 3.66 16.58 4 21 C4.99 21.33 5.98 21.66 7 22 C7 22.99 7 23.98 7 25 C4.625 25.125 4.625 25.125 2 25 C0 23 0 23 -0.1953125 19.5234375 C-0.18201493 18.14049032 -0.15816232 16.75761346 -0.125 15.375 C-0.11597656 14.66859375 -0.10695313 13.9621875 -0.09765625 13.234375 C-0.07407603 11.48943902 -0.03820461 9.74467705 0 8 C-1.32 8 -2.64 8 -4 8 C-4 7.01 -4 6.02 -4 5 C-2.68 5 -1.36 5 0 5 C0 3.35 0 1.7 0 0 Z " fill="#979A9E" transform="translate(303,768)"/>
<path d="M0 0 C1.95193565 1.54426792 2.89577182 2.41819008 3.34057617 4.90112305 C3.32486572 5.59761963 3.30915527 6.29411621 3.29296875 7.01171875 C3.28330078 7.76904297 3.27363281 8.52636719 3.26367188 9.30664062 C3.23853516 10.09232422 3.21339844 10.87800781 3.1875 11.6875 C3.17396484 12.48478516 3.16042969 13.28207031 3.14648438 14.10351562 C3.11117089 16.06929967 3.05736447 18.03473582 3 20 C1.02 19.67 -0.96 19.34 -3 19 C-2.71125 18.443125 -2.4225 17.88625 -2.125 17.3125 C-0.9586747 14.91505355 0.0339881 12.48403061 1 10 C-0.98 10 -2.96 10 -5 10 C-5 9.67 -5 9.34 -5 9 C-3.35 9 -1.7 9 0 9 C-0.33 7.35 -0.66 5.7 -1 4 C-3.91652174 3.83318891 -3.91652174 3.83318891 -7 4 C-7.66 4.66 -8.32 5.32 -9 6 C-9.99 6 -10.98 6 -12 6 C-9.75518148 -0.25342303 -6.5725419 -1.09325449 0 0 Z " fill="#9CA0A3" transform="translate(496,773)"/>
<path d="M0 0 C2.475 0.495 2.475 0.495 5 1 C5.33 0.67 5.66 0.34 6 0 C7.66617115 -0.04063832 9.33388095 -0.042721 11 0 C11 0.99 11 1.98 11 3 C10.030625 3.309375 9.06125 3.61875 8.0625 3.9375 C5.15934208 4.69523342 5.15934208 4.69523342 4 6 C3.76472227 8.34987262 3.58613583 10.70556039 3.4375 13.0625 C3.35371094 14.35285156 3.26992188 15.64320313 3.18359375 16.97265625 C3.12300781 17.97167969 3.06242187 18.97070312 3 20 C2.01 20 1.02 20 0 20 C0 13.4 0 6.8 0 0 Z " fill="#909599" transform="translate(505,773)"/>
<path d="M0 0 C4.4297642 0.79102932 5.89210172 1.98974785 8.5 5.625 C8.8125 8.9375 8.8125 8.9375 8.5 11.625 C5.53 11.625 2.56 11.625 -0.5 11.625 C-0.5 10.965 -0.5 10.305 -0.5 9.625 C1.48 9.625 3.46 9.625 5.5 9.625 C4.3624438 7.03358714 4.3624438 7.03358714 2.5 4.625 C-0.8504383 3.91964457 -2.2888443 4.51238363 -5.3125 6.125 C-6.034375 6.62 -6.75625 7.115 -7.5 7.625 C-7.83 6.965 -8.16 6.305 -8.5 5.625 C-5.76057998 2.30449088 -4.30649943 0.76901776 0 0 Z " fill="#929699" transform="translate(470.5,772.375)"/>
<path d="M0 0 C0.99 0 1.98 0 3 0 C3 9.24 3 18.48 3 28 C2.01 28 1.02 28 0 28 C0 18.76 0 9.52 0 0 Z " fill="#979CA1" transform="translate(706,765)"/>
<path d="M0 0 C0.99 0.33 1.98 0.66 3 1 C2.608125 2.216875 2.21625 3.43375 1.8125 4.6875 C0.94993845 8.03661828 0.86496347 8.70537485 2.375 12 C2.91125 12.66 3.4475 13.32 4 14 C2.35 14 0.7 14 -1 14 C-1 13.01 -1 12.02 -1 11 C-1.70125 11.495 -2.4025 11.99 -3.125 12.5 C-6.37119719 14.1936681 -8.39340156 14.25162315 -12 14 C-12 13.34 -12 12.68 -12 12 C-9.69 11.34 -7.38 10.68 -5 10 C-5 8.68 -5 7.36 -5 6 C-3.68 6 -2.36 6 -1 6 C-1.020625 5.195625 -1.04125 4.39125 -1.0625 3.5625 C-1 1 -1 1 0 0 Z " fill="#9EA1A3" transform="translate(623,779)"/>
<path d="M0 0 C1.32 0 2.64 0 4 0 C4 6.6 4 13.2 4 20 C2.68 20 1.36 20 0 20 C0 13.4 0 6.8 0 0 Z " fill="#898D91" transform="translate(315,773)"/>
<path d="M0 0 C0.33 0 0.66 0 1 0 C1.6875 2.8125 1.6875 2.8125 2 6 C0.23961173 8.59425639 -2.07666078 9.94434973 -5 11 C-8.625 11.25 -8.625 11.25 -12 11 C-12.66 10.34 -13.32 9.68 -14 9 C-14 7.68 -14 6.36 -14 5 C-9.38 5 -4.76 5 0 5 C0 3.35 0 1.7 0 0 Z " fill="#181E2A" transform="translate(479,779)"/>
<path d="M0 0 C0 0.66 0 1.32 0 2 C-0.78375 2.268125 -1.5675 2.53625 -2.375 2.8125 C-5.28114923 3.84814432 -5.28114923 3.84814432 -7 7 C-7.35766166 10.36201958 -7.40668845 12.3028198 -5.6875 15.25 C-3.92000675 17.20781904 -3.92000675 17.20781904 -1 19 C-6.51532033 19.36768802 -6.51532033 19.36768802 -8.8125 17.625 C-11.49303594 13.95689818 -11.3488161 10.39508283 -11 6 C-9.06880147 0.35495814 -5.5706222 -0.24758321 0 0 Z " fill="#969A9D" transform="translate(267,773)"/>
<path d="M0 0 C1.32 0 2.64 0 4 0 C8 4.11111111 8 4.11111111 8 8 C5.01787087 9.49106457 2.28390342 9.11941467 -1 9 C-2 8 -2 8 -2.1875 5.0625 C-2 2 -2 2 0 0 Z " fill="#161C28" transform="translate(610,781)"/>
<path d="M0 0 C0.99 0 1.98 0 3 0 C4.59412284 3.18824568 4.10174735 6.62896662 4.0625 10.125 C4.05798828 10.87910156 4.05347656 11.63320313 4.04882812 12.41015625 C4.03703499 14.27347127 4.01909942 16.13674555 4 18 C2.68 18 1.36 18 0 18 C0 12.06 0 6.12 0 0 Z " fill="#868A8F" transform="translate(292,775)"/>
<path d="M0 0 C4.70697582 0.42790689 8.775232 2.55219329 12 6 C12 7.32 12 8.64 12 10 C11.01 10.33 10.02 10.66 9 11 C6.51953125 9.56640625 6.51953125 9.56640625 3.8125 7.5625 C2.91144531 6.90378906 2.01039063 6.24507813 1.08203125 5.56640625 C0.39496094 5.04949219 -0.29210937 4.53257812 -1 4 C-0.67 2.68 -0.34 1.36 0 0 Z " fill="#1C1B33" transform="translate(453,327)"/>
<path d="M0 0 C4.95 0 9.9 0 15 0 C15 0.99 15 1.98 15 3 C10.38 3 5.76 3 1 3 C1 5.64 1 8.28 1 11 C5.29 11 9.58 11 14 11 C14 11.33 14 11.66 14 12 C9.38 12 4.76 12 0 12 C0 8.04 0 4.08 0 0 Z " fill="#7E8389" transform="translate(644,766)"/>
<path d="M0 0 C2 2 2 2 2.1953125 5.4765625 C2.18201493 6.85950968 2.15816232 8.24238654 2.125 9.625 C2.11597656 10.33140625 2.10695313 11.0378125 2.09765625 11.765625 C2.07407603 13.51056098 2.03820461 15.25532295 2 17 C0.68 17 -0.64 17 -2 17 C-2.05398987 14.72942623 -2.09278742 12.45848712 -2.125 10.1875 C-2.14820313 8.92292969 -2.17140625 7.65835938 -2.1953125 6.35546875 C-2 3 -2 3 0 0 Z " fill="#81868B" transform="translate(566,776)"/>
<path d="M0 0 C0.99 0 1.98 0 3 0 C3 6.6 3 13.2 3 20 C2.01 20 1.02 20 0 20 C0 13.4 0 6.8 0 0 Z " fill="#989EA2" transform="translate(542,773)"/>
<path d="M0 0 C0.99 0 1.98 0 3 0 C3 6.6 3 13.2 3 20 C2.01 20 1.02 20 0 20 C0 13.4 0 6.8 0 0 Z " fill="#9FA3A5" transform="translate(751,773)"/>
<path d="M0 0 C0.66 0 1.32 0 2 0 C2 0.99 2 1.98 2 3 C2.66 3 3.32 3 4 3 C3.67 8.61 3.34 14.22 3 20 C2.01 20 1.02 20 0 20 C0 13.4 0 6.8 0 0 Z " fill="#9DA2A5" transform="translate(520,773)"/>
<path d="M0 0 C4.15778498 0.07573379 6.22144865 1.40894865 9.1875 4.375 C8.8575 5.695 8.5275 7.015 8.1875 8.375 C7.671875 7.715 7.15625 7.055 6.625 6.375 C4.2406528 4.04379541 4.2406528 4.04379541 0.5625 4 C-2.88082602 4.02686266 -2.88082602 4.02686266 -4.8125 6.375 C-5.8025 6.375 -6.7925 6.375 -7.8125 6.375 C-5.80140803 2.06551721 -5.03186732 0.49493777 0 0 Z " fill="#94999C" transform="translate(690.8125,772.625)"/>
<path d="M0 0 C0.66 0.66 1.32 1.32 2 2 C2.33 1.34 2.66 0.68 3 0 C3.99 0.33 4.98 0.66 6 1 C4.68 2.32 3.36 3.64 2 5 C1.34 4.67 0.68 4.34 0 4 C-2.91281944 3.81003352 -5.45742473 3.88268643 -8.3125 4.5 C-11.17859675 7.04764155 -10.76056029 10.28868443 -11 14 C-11.33 14 -11.66 14 -12 14 C-12.47138774 9.19184502 -12.70477383 6.04648236 -9.9375 1.9375 C-6.31310142 -0.45306076 -4.26372358 -0.5631333 0 0 Z " fill="#92979B" transform="translate(584,773)"/>
<path d="M0 0 C0.66 0.33 1.32 0.66 2 1 C1.52949219 1.61746094 1.05898438 2.23492187 0.57421875 2.87109375 C-3.47977946 8.38553852 -6.31395602 13.35216945 -8 20 C-8.33 20 -8.66 20 -9 20 C-9.185625 18.824375 -9.185625 18.824375 -9.375 17.625 C-9.79117993 14.85942178 -9.79117993 14.85942178 -12 13 C-8.04 8.71 -4.08 4.42 0 0 Z " fill="#A352D7" transform="translate(414,313)"/>
<path d="M0 0 C3.36704285 -0.2295711 5.41370268 -0.33943529 8.375 1.375 C8.91125 1.91125 9.4475 2.4475 10 3 C10 3.66 10 4.32 10 5 C10.99 6.485 10.99 6.485 12 8 C8.70342144 8 6.83635572 7.25666731 3.8125 6 C2.91144531 5.62875 2.01039063 5.2575 1.08203125 4.875 C0.39496094 4.58625 -0.29210937 4.2975 -1 4 C-0.67 2.68 -0.34 1.36 0 0 Z " fill="#1F2432" transform="translate(416,776)"/>
<path d="M0 0 C1.98 0 3.96 0 6 0 C6.33 1.65 6.66 3.3 7 5 C-0.5 6.5 -0.5 6.5 -8 8 C-8 7.34 -8 6.68 -8 6 C-7.05125 5.7525 -6.1025 5.505 -5.125 5.25 C-1.91306809 4.3142923 -1.91306809 4.3142923 -0.625 1.875 C-0.41875 1.25625 -0.2125 0.6375 0 0 Z " fill="#1D232F" transform="translate(489,776)"/>
<path d="M0 0 C0.515625 0.165 1.03125 0.33 1.5625 0.5 C6.45328112 1.50323715 11.17298434 1.17018562 16 0 C14.25 3.875 14.25 3.875 12 5 C9.94140625 5.203125 9.94140625 5.203125 7.5625 5.25 C6.38880859 5.28867187 6.38880859 5.28867187 5.19140625 5.328125 C2.49198652 4.92393381 1.62540456 4.15326907 0 2 C0 1.34 0 0.68 0 0 Z " fill="#989C9F" transform="translate(463,788)"/>
<path d="M0 0 C2.69186315 0.40621677 4.13951408 1.26584006 5.94140625 3.29296875 C5.94140625 4.28296875 5.94140625 5.27296875 5.94140625 6.29296875 C4.95140625 6.29296875 3.96140625 6.29296875 2.94140625 6.29296875 C2.94140625 5.63296875 2.94140625 4.97296875 2.94140625 4.29296875 C-1.06868715 4.11432244 -1.06868715 4.11432244 -5.05859375 4.29296875 C-5.71859375 4.95296875 -6.37859375 5.61296875 -7.05859375 6.29296875 C-7.71859375 5.30296875 -8.37859375 4.31296875 -9.05859375 3.29296875 C-6.72461901 -0.20799336 -4.01021095 -0.15509103 0 0 Z " fill="#979AA0" transform="translate(378.05859375,772.70703125)"/>
<path d="M0 0 C0.556875 0.226875 1.11375 0.45375 1.6875 0.6875 C1.47265625 2.515625 1.47265625 2.515625 0.6875 4.6875 C-1.37890625 6.171875 -1.37890625 6.171875 -3.875 7.4375 C-5.11443359 8.07945312 -5.11443359 8.07945312 -6.37890625 8.734375 C-7.01699219 9.04890625 -7.65507812 9.3634375 -8.3125 9.6875 C-8.1475 9.089375 -7.9825 8.49125 -7.8125 7.875 C-7.2010876 5.57405664 -7.2010876 5.57405664 -7.3125 2.6875 C-3.28618421 -0.44407895 -3.28618421 -0.44407895 0 0 Z " fill="#1F2038" transform="translate(514.3125,296.3125)"/>
<path d="M0 0 C2.0625 0.4375 2.0625 0.4375 4 1 C5.45606519 5.52092968 4.27032841 8.51648796 3 13 C2.34 12.01 1.68 11.02 1 10 C0.443125 9.195625 -0.11375 8.39125 -0.6875 7.5625 C-2 5 -2 5 -1.75 2.75 C-1 1 -1 1 0 0 Z " fill="#222035" transform="translate(469,201)"/>
<path d="M0 0 C0.99 1.32 1.98 2.64 3 4 C-0.68955337 6.45970225 -3.71611123 6.57750613 -8 6 C-10.5 4.625 -10.5 4.625 -12 3 C-12 2.34 -12 1.68 -12 1 C-8.37 1.33 -4.74 1.66 -1 2 C-0.67 1.34 -0.34 0.68 0 0 Z " fill="#8C9095" transform="translate(423,787)"/>
<path d="M0 0 C0.33 0 0.66 0 1 0 C1.02578125 0.84304688 1.0515625 1.68609375 1.078125 2.5546875 C1.13484375 3.65039062 1.1915625 4.74609375 1.25 5.875 C1.29640625 6.96554687 1.3428125 8.05609375 1.390625 9.1796875 C1.68846128 12.1332065 1.68846128 12.1332065 4.046875 13.3828125 C4.69140625 13.58648438 5.3359375 13.79015625 6 14 C6 14.99 6 15.98 6 17 C3.69 16.67 1.38 16.34 -1 16 C-1.02692484 13.70839681 -1.04636124 11.41670454 -1.0625 9.125 C-1.07410156 7.84882812 -1.08570313 6.57265625 -1.09765625 5.2578125 C-1 2 -1 2 0 0 Z " fill="#9A9EA1" transform="translate(740,776)"/>
<path d="M0 0 C0.33 0 0.66 0 1 0 C1.33 1.65 1.66 3.3 2 5 C2.66 3.68 3.32 2.36 4 1 C4.33 3.64 4.66 6.28 5 9 C6.98 9.66 8.96 10.32 11 11 C10.01 11.33 9.02 11.66 8 12 C8 12.66 8 13.32 8 14 C4.74322102 13.73593684 3.38010847 13.43253722 1.1875 10.9375 C-0.38336495 7.05167618 -0.21217982 4.17286983 0 0 Z " fill="#8C9094" transform="translate(759,779)"/>
<path d="M0 0 C-0.875 4.875 -0.875 4.875 -2 6 C-3.99958364 6.04080783 -6.00045254 6.04254356 -8 6 C-8.33 4.35 -8.66 2.7 -9 1 C-6.04335481 -0.4783226 -3.25770263 -0.06032783 0 0 Z " fill="#212734" transform="translate(496,784)"/>
<path d="M0 0 C2.64 0.66 5.28 1.32 8 2 C8.33 3.32 8.66 4.64 9 6 C8 7 8 7 5.25 7.1875 C2.03256076 7.00187851 -0.10756683 6.36114502 -3 5 C-1.68 4.67 -0.36 4.34 1 4 C0.67 2.68 0.34 1.36 0 0 Z " fill="#222936" transform="translate(414,783)"/>
<path d="M0 0 C7.93333333 -0.62222222 7.93333333 -0.62222222 12 1.75 C13.95829554 3.95308249 14.69025617 5.10905762 15 8 C13.68 8 12.36 8 11 8 C9.33333333 6.33333333 7.66666667 4.66666667 6 3 C2.83298577 1.66436389 2.83298577 1.66436389 0 1 C0 0.67 0 0.34 0 0 Z " fill="#9C9EA2" transform="translate(237,766)"/>
<path d="M0 0 C2.625 0.25 2.625 0.25 4.4375 1.625 C5.625 3.25 5.625 3.25 5.625 5.25 C1.995 5.25 -1.635 5.25 -5.375 5.25 C-2.90277778 0.30555556 -2.90277778 0.30555556 0 0 Z " fill="#1C212F" transform="translate(470.375,775.75)"/>
<path d="M0 0 C0.99 0 1.98 0 3 0 C3.02715383 1.74991334 3.04646551 3.49994945 3.0625 5.25 C3.07410156 6.22453125 3.08570313 7.1990625 3.09765625 8.203125 C3.01195577 10.65758678 2.70706066 12.66168914 2 15 C1.34 15 0.68 15 0 15 C0 10.05 0 5.1 0 0 Z " fill="#A1A5A9" transform="translate(728,773)"/>
<path d="M0 0 C1.32 0 2.64 0 4 0 C4.33 0.66 4.66 1.32 5 2 C8.02934491 2.65772428 8.02934491 2.65772428 11 3 C11.33 3.99 11.66 4.98 12 6 C4.65306122 6.48979592 4.65306122 6.48979592 1.5 4.125 C0 2 0 2 0 0 Z " fill="#8E9398" transform="translate(573,795)"/>
<path d="M0 0 C-2.92870509 4.39305763 -7.03927056 4.85521628 -12 6 C-9.51338724 -0.92699268 -6.80769872 -0.10980159 0 0 Z " fill="#8F9395" transform="translate(496,773)"/>
<path d="M0 0 C1.67542976 0.28604898 3.34385343 0.61781233 5 1 C4.6875 3.375 4.6875 3.375 4 6 C3.01 6.66 2.02 7.32 1 8 C-1 6 -1 6 -1.1875 3.4375 C-1 1 -1 1 0 0 Z " fill="#242A37" transform="translate(612,768)"/>
<path d="M0 0 C5.42857143 -0.36190476 5.42857143 -0.36190476 7.875 1.1875 C9.34781139 3.56036279 9.22223194 5.25913944 9 8 C5.63856582 6.87952194 4.42471166 5.50292817 2 3 C1.34 2.67 0.68 2.34 0 2 C0 1.34 0 0.68 0 0 Z " fill="#9FA2A4" transform="translate(418,782)"/>
<path d="M0 0 C6.0546875 -0.1953125 6.0546875 -0.1953125 8 0 C8.66 0.66 9.32 1.32 10 2 C9.625 4.125 9.625 4.125 9 6 C8.01 5.34 7.02 4.68 6 4 C4.0103005 3.60986284 2.00980131 3.26797351 0 3 C0 2.01 0 1.02 0 0 Z " fill="#9DA0A4" transform="translate(556,773)"/>
<path d="M0 0 C-0.763125 0.515625 -1.52625 1.03125 -2.3125 1.5625 C-5.61575607 4.55847644 -6.48625726 6.85712514 -8 11 C-8.33 11 -8.66 11 -9 11 C-9.36180905 3.64321608 -9.36180905 3.64321608 -7.875 1 C-5.21065116 -0.42098605 -2.96508915 -0.19767261 0 0 Z " fill="#9DA0A4" transform="translate(769,774)"/>
<path d="M0 0 C0.33 0 0.66 0 1 0 C1.6875 2.8125 1.6875 2.8125 2 6 C0.75 7.875 0.75 7.875 -1 9 C-1.99 9 -2.98 9 -4 9 C-4 8.34 -4 7.68 -4 7 C-7.3 6.67 -10.6 6.34 -14 6 C-14 5.67 -14 5.34 -14 5 C-9.38 5 -4.76 5 0 5 C0 3.35 0 1.7 0 0 Z " fill="#383D48" transform="translate(479,779)"/>
<path d="M0 0 C0.66 0.33 1.32 0.66 2 1 C2 2.98 2 4.96 2 7 C-0.97 7 -3.94 7 -7 7 C-7 6.34 -7 5.68 -7 5 C-5.02 5 -3.04 5 -1 5 C-0.67 3.35 -0.34 1.7 0 0 Z " fill="#A4A7A7" transform="translate(477,777)"/>
<path d="M0 0 C0.33 0 0.66 0 1 0 C1.33 1.65 1.66 3.3 2 5 C4.97 5.495 4.97 5.495 8 6 C6.68 6.33 5.36 6.66 4 7 C4 7.66 4 8.32 4 9 C5.32 9.33 6.64 9.66 8 10 C4.625 9.75 4.625 9.75 1 9 C-0.5 7.25 -0.5 7.25 -1 5 C-0.625 2.25 -0.625 2.25 0 0 Z " fill="#7A7F84" transform="translate(607,784)"/>
<path d="M0 0 C0.99 0.33 1.98 0.66 3 1 C3 3.64 3 6.28 3 9 C2.34 8.34 1.68 7.68 1 7 C0.34 7.99 -0.32 8.98 -1 10 C-1.125 2.25 -1.125 2.25 0 0 Z " fill="#8C8E94" transform="translate(368,777)"/>
<path d="M0 0 C7.38461538 -0.49230769 7.38461538 -0.49230769 10.5 2 C10.995 2.66 11.49 3.32 12 4 C8.18332364 5.46795245 5.67140851 4.59626457 2 3 C1.34 2.01 0.68 1.02 0 0 Z " fill="#8D9296" transform="translate(415,773)"/>
<path d="M0 0 C1.67542976 0.28604898 3.34385343 0.61781233 5 1 C5 3 5 5 5 7 C2.5625 6.25 2.5625 6.25 0 5 C-0.875 2.9375 -0.875 2.9375 -1 1 C-0.67 0.67 -0.34 0.34 0 0 Z " fill="#222239" transform="translate(453,327)"/>
<path d="M0 0 C0.33 1.65 0.66 3.3 1 5 C0.67 4.34 0.34 3.68 0 3 C-2.64 3.33 -5.28 3.66 -8 4 C-8.66 3.01 -9.32 2.02 -10 1 C-6.78548731 -0.60725635 -3.56387464 -0.05748185 0 0 Z " fill="#868A8E" transform="translate(496,781)"/>
<path d="M0 0 C0.33 0 0.66 0 1 0 C1.33 3.63 1.66 7.26 2 11 C1.01 11.33 0.02 11.66 -1 12 C-1.02687279 10.18757948 -1.04633715 8.37504767 -1.0625 6.5625 C-1.07410156 5.55316406 -1.08570313 4.54382813 -1.09765625 3.50390625 C-1 1 -1 1 0 0 Z " fill="#A2A4A5" transform="translate(230,774)"/>
<path d="M0 0 C3.375 -0.125 3.375 -0.125 7 0 C7.66 0.66 8.32 1.32 9 2 C9.33 1.34 9.66 0.68 10 0 C10.99 0.33 11.98 0.66 13 1 C11.68 2.32 10.36 3.64 9 5 C5.22454612 3.90931332 2.52956528 3.0916909 0 0 Z " fill="#8B9096" transform="translate(577,773)"/>
<path d="M0 0 C0 2.31 0 4.62 0 7 C-1.32 7.33 -2.64 7.66 -4 8 C-4 5.69 -4 3.38 -4 1 C-1 0 -1 0 0 0 Z " fill="#888C90" transform="translate(701,779)"/>
<path d="M0 0 C0.99 0 1.98 0 3 0 C1.66666667 2.66666667 0.33333333 5.33333333 -1 8 C-1.66 7.67 -2.32 7.34 -3 7 C-2.25 2.25 -2.25 2.25 0 0 Z " fill="#A2A4A5" transform="translate(610,766)"/>
<path d="M0 0 C0.66 0.33 1.32 0.66 2 1 C-2.11378556 7.70459519 -2.11378556 7.70459519 -5.8125 8.9375 C-6.8953125 8.9684375 -6.8953125 8.9684375 -8 9 C-7.04270084 7.87411986 -6.08412105 6.7493285 -5.125 5.625 C-4.59132813 4.99851562 -4.05765625 4.37203125 -3.5078125 3.7265625 C-2.38567993 2.44163349 -1.20628025 1.20628025 0 0 Z " fill="#8D48BB" transform="translate(414,313)"/>
<path d="M0 0 C4.95 0.99 4.95 0.99 10 2 C8.68 2.33 7.36 2.66 6 3 C6 3.66 6 4.32 6 5 C4.125 4.75 4.125 4.75 2 4 C1.34 2.68 0.68 1.36 0 0 Z " fill="#919598" transform="translate(463,788)"/>
<path d="M0 0 C3.465 1.485 3.465 1.485 7 3 C6.01 3.33 5.02 3.66 4 4 C4 4.66 4 5.32 4 6 C2.68 5.67 1.36 5.34 0 5 C-0.5625 3.0625 -0.5625 3.0625 -1 1 C-0.67 0.67 -0.34 0.34 0 0 Z " fill="#8E9397" transform="translate(348,787)"/>
<path d="M0 0 C1.4540625 0.0309375 1.4540625 0.0309375 2.9375 0.0625 C2.9375 0.7225 2.9375 1.3825 2.9375 2.0625 C2.174375 2.35125 1.41125 2.64 0.625 2.9375 C-2.21279308 4.02519013 -2.21279308 4.02519013 -5.0625 6.0625 C-3.98897059 0.08140756 -3.98897059 0.08140756 0 0 Z " fill="#9CA0A4" transform="translate(264.0625,772.9375)"/>
<path d="M0 0 C0.33 0 0.66 0 1 0 C1 3.63 1 7.26 1 11 C-2 8 -2 8 -3 6 C-2.06553465 3.96855359 -1.06775224 1.96466413 0 0 Z " fill="#1C2431" transform="translate(566,697)"/>
<path d="M0 0 C1.54571278 2.31856917 2.79618552 4.50638429 4 7 C3.34 7.66 2.68 8.32 2 9 C0.5 7.8125 0.5 7.8125 -1 6 C-1.25 3.375 -1.25 3.375 -1 1 C-0.67 0.67 -0.34 0.34 0 0 Z " fill="#9FA2A5" transform="translate(369,783)"/>
<path d="M0 0 C1.32 0.66 2.64 1.32 4 2 C4 2.66 4 3.32 4 4 C4.99 5.485 4.99 5.485 6 7 C2.48283697 7 1.62878252 6.17554415 -1 4 C-0.67 2.68 -0.34 1.36 0 0 Z " fill="#2A303D" transform="translate(422,777)"/>
<path d="M0 0 C0.66 0 1.32 0 2 0 C2.33 1.98 2.66 3.96 3 6 C0.525 7.485 0.525 7.485 -2 9 C-1.34 6.03 -0.68 3.06 0 0 Z " fill="#494F59" transform="translate(373,704)"/>
<path d="M0 0 C0.99 0.33 1.98 0.66 3 1 C2.01 2.98 1.02 4.96 0 7 C-0.66 7 -1.32 7 -2 7 C-2.125 4.625 -2.125 4.625 -2 2 C-1.34 1.34 -0.68 0.68 0 0 Z " fill="#A1A3A4" transform="translate(485,783)"/>
<path d="M0 0 C1.98 0.495 1.98 0.495 4 1 C3.67 2.32 3.34 3.64 3 5 C1.68 4.67 0.36 4.34 -1 4 C-0.67 2.68 -0.34 1.36 0 0 Z " fill="#84888D" transform="translate(542,765)"/>
<path d="M0 0 C1.98 0 3.96 0 6 0 C6.33 0.99 6.66 1.98 7 3 C4.36 3 1.72 3 -1 3 C-0.67 2.01 -0.34 1.02 0 0 Z " fill="#8B9195" transform="translate(688,790)"/>
<path d="M0 0 C4.75 0.875 4.75 0.875 7 2 C7 2.66 7 3.32 7 4 C5.35 4 3.7 4 2 4 C1.34 2.68 0.68 1.36 0 0 Z " fill="#939699" transform="translate(411,788)"/>
<path d="M0 0 C1.73543126 2.60314689 2.61121812 3.98694043 3 7 C2.34 7.66 1.68 8.32 1 9 C0.01 8.34 -0.98 7.68 -2 7 C-1.34 4.69 -0.68 2.38 0 0 Z " fill="#919497" transform="translate(774,781)"/>
<path d="M0 0 C0.33 0 0.66 0 1 0 C1 3.96 1 7.92 1 12 C1.66 12 2.32 12 3 12 C2.67 12.99 2.34 13.98 2 15 C1.34 15 0.68 15 0 15 C0 10.05 0 5.1 0 0 Z " fill="#24283C" transform="translate(488,251)"/>
<path d="M0 0 C0.66 0.99 1.32 1.98 2 3 C-0.55068845 5.35448165 -1.71017358 5.98327924 -5.25 6.1875 C-6.1575 6.125625 -7.065 6.06375 -8 6 C-8 5.67 -8 5.34 -8 5 C-6.8553125 4.87625 -6.8553125 4.87625 -5.6875 4.75 C-2.47626739 3.85384206 -1.70625501 2.78388975 0 0 Z " fill="#878B91" transform="translate(585,787)"/>
<path d="M0 0 C1.32 0 2.64 0 4 0 C3.1875 2.4375 3.1875 2.4375 2 5 C1.01 5.33 0.02 5.66 -1 6 C-0.67 4.02 -0.34 2.04 0 0 Z " fill="#96989B" transform="translate(676,773)"/>
<path d="M0 0 C0.66 0.33 1.32 0.66 2 1 C2 2.65 2 4.3 2 6 C-0.475 5.01 -0.475 5.01 -3 4 C-2.01 2.68 -1.02 1.36 0 0 Z " fill="#A25CD4" transform="translate(505,260)"/>
<path d="M0 0 C0.66 0.33 1.32 0.66 2 1 C2 3.64 2 6.28 2 9 C-0.57781906 6.42218094 -0.62129616 4.5598161 -1 1 C-0.67 0.67 -0.34 0.34 0 0 Z " fill="#A6A8A9" transform="translate(775,777)"/>
<path d="M0 0 C1.32 0 2.64 0 4 0 C4 1.32 4 2.64 4 4 C2.35 3.67 0.7 3.34 -1 3 C-0.67 2.01 -0.34 1.02 0 0 Z " fill="#A5A7A9" transform="translate(751,765)"/>
<path d="M0 0 C0.99 0 1.98 0 3 0 C2.34 1.65 1.68 3.3 1 5 C-0.32 5 -1.64 5 -3 5 C-1.125 1.125 -1.125 1.125 0 0 Z " fill="#9DA0A4" transform="translate(686,774)"/>
<path d="M0 0 C0.33 0 0.66 0 1 0 C1 1.98 1 3.96 1 6 C0.01 6 -0.98 6 -2 6 C-2.33 5.01 -2.66 4.02 -3 3 C-2.34 3 -1.68 3 -1 3 C-0.67 2.01 -0.34 1.02 0 0 Z " fill="#A1A5A7" transform="translate(589,774)"/>
<path d="M0 0 C1.98 0.99 1.98 0.99 4 2 C3.67 3.32 3.34 4.64 3 6 C2.34 6 1.68 6 1 6 C0.67 4.02 0.34 2.04 0 0 Z " fill="#9D5FD3" transform="translate(492,263)"/>
<path d="M0 0 C0.66 0.33 1.32 0.66 2 1 C1.34 2.65 0.68 4.3 0 6 C-0.66 6 -1.32 6 -2 6 C-2.33 4.68 -2.66 3.36 -3 2 C-2.01 1.34 -1.02 0.68 0 0 Z " fill="#A45BD6" transform="translate(487,227)"/>
</svg>
