<?xml version="1.0" encoding="UTF-8"?>
<svg version="1.1" xmlns="http://www.w3.org/2000/svg" width="1024" height="1024">
<path d="M0 0 C337.92 0 675.84 0 1024 0 C1024 337.92 1024 675.84 1024 1024 C686.08 1024 348.16 1024 0 1024 C0 686.08 0 348.16 0 0 Z " fill="#181E2B" transform="translate(0,0)"/>
<path d="M0 0 C5.18260612 1.05387326 10.37330343 2.06670365 15.56283569 3.08581543 C16.64162491 3.2988028 17.72041412 3.51179016 18.83189392 3.73123169 C30.89614159 6.10373078 42.99708876 8.26387237 55.10189819 10.41784668 C59.31827004 11.17049232 63.53439054 11.92453348 67.75033569 12.67956543 C69.22856812 12.9442865 69.22856812 12.9442865 70.73666382 13.21435547 C78.84730249 14.67054602 86.94419688 16.18669667 95.02841187 17.78381348 C100.91094799 18.94094456 106.80203978 20.03532941 112.70426941 21.08668518 C116.62606603 21.78584019 120.54622261 22.49399531 124.46643066 23.20199585 C126.41068713 23.5504561 128.35572832 23.89456977 130.30157471 24.23403931 C133.04183741 24.71248941 135.77895499 25.20630552 138.51596069 25.70300293 C139.33259689 25.8414563 140.14923309 25.97990967 140.99061584 26.12255859 C149.10158201 27.62416715 154.89487125 29.79933746 159.70205176 36.68709129 C161.42488003 39.82546676 161.47460466 42.8994833 161.41085815 46.38490295 C161.41724698 47.13081867 161.4236358 47.87673438 161.43021822 48.6452536 C161.44540241 51.12933388 161.4250511 53.61180204 161.40463257 56.0958252 C161.40813621 57.88380459 161.41379753 59.67178086 161.42144775 61.45974731 C161.43568586 66.31003619 161.41863397 71.15975726 161.39516258 76.00999188 C161.37499609 81.1072802 161.38093696 86.20454621 161.38327026 91.30186462 C161.38321668 99.8773223 161.36347093 108.45255978 161.33139038 117.0279541 C161.29467363 126.88943372 161.2856906 136.75062313 161.29268789 146.61216217 C161.29903969 156.1412959 161.28814156 165.6703318 161.26872253 175.19944572 C161.2606267 179.23114371 161.25782447 183.26279113 161.25941467 187.29449654 C161.26177339 227.54224915 161.26177339 227.54224915 157.78939819 245.66784668 C157.569608 246.92968277 157.34981781 248.19151886 157.12336731 249.49159241 C156.6094654 252.39870491 156.0324006 255.28126366 155.41439819 258.16784668 C155.2059729 259.15978027 154.99754761 260.15171387 154.7828064 261.17370605 C153.08605617 268.94693905 150.83167706 276.31459392 147.78939819 283.66784668 C144.01938048 282.41117411 143.22551927 280.88191433 140.85189819 277.73034668 C136.49002981 272.17166813 131.72966198 268.25470223 126.00033569 264.15222168 C123.78939819 261.66784668 123.78939819 261.66784668 123.82846069 258.49206543 C124.14557007 257.23007324 124.46267944 255.96808105 124.78939819 254.66784668 C125.10856683 253.07672192 125.42063123 251.48416135 125.72689819 249.89050293 C126.25613419 247.30554053 126.79116572 244.72184848 127.32846069 242.1385498 C127.58756226 240.8710791 127.58756226 240.8710791 127.85189819 239.57800293 C128.00787476 238.82656006 128.16385132 238.07511719 128.32455444 237.30090332 C129.39454404 231.24006416 129.91594134 225.36803512 129.94761658 219.21398926 C129.95502354 218.15630498 129.95502354 218.15630498 129.96258014 217.07725334 C129.97781145 214.73896369 129.9862763 212.40070116 129.99472046 210.06237793 C130.00431032 208.37648789 130.01432103 206.69060021 130.02471924 205.00471497 C130.0516544 200.44543185 130.07272531 195.8861385 130.09272122 191.32682037 C130.11465137 186.55554866 130.14200555 181.78430808 130.16877747 177.01306152 C130.21860959 167.98581495 130.26358344 158.95855101 130.30679983 149.9312706 C130.35625343 139.65072807 130.41114134 129.37021679 130.46647942 119.08970451 C130.58015386 97.94911437 130.68702433 76.80849437 130.78939819 55.66784668 C130.15130816 55.55755756 129.51321814 55.44726845 128.85579205 55.33363724 C125.90018937 54.82236925 122.94476916 54.31005355 119.98934937 53.79772949 C118.98619438 53.62436066 117.9830394 53.45099182 116.94948578 53.27236938 C110.15365016 52.09333696 103.36881146 50.86386003 96.59017944 49.58972168 C95.54678909 49.39361298 94.50339874 49.19750427 93.4283905 48.99545288 C92.19520332 48.76150314 92.19520332 48.76150314 90.93710327 48.52282715 C72.09933562 44.95492749 53.2506705 41.45447478 34.38223267 38.05249023 C24.59931656 36.28840492 14.8234601 34.49711056 5.06283569 32.61315918 C4.20419418 32.44798798 3.34555267 32.28281677 2.46089172 32.11264038 C-1.5878048 31.33327665 -5.63503203 30.54745221 -9.68008423 29.74938965 C-11.1133863 29.47196292 -12.54673334 29.19476841 -13.98013306 28.91784668 C-15.21352417 28.67550293 -16.44691528 28.43315918 -17.71768188 28.18347168 C-24.61127901 27.16583855 -30.54677371 27.96163711 -37.26528931 29.41394043 C-39.05631027 29.78641434 -40.84766422 30.15728992 -42.63931274 30.5267334 C-43.56046875 30.71741394 -44.48162476 30.90809448 -45.43069458 31.10455322 C-49.89098677 32.0083436 -54.36586077 32.82728023 -58.84341431 33.64050293 C-60.21384132 33.89026131 -60.21384132 33.89026131 -61.61195374 34.14506531 C-63.52401038 34.49312071 -65.43615745 34.84067967 -67.34838867 35.18777466 C-89.96740571 39.29610079 -112.55707245 43.55346202 -135.13882446 47.8614502 C-136.3111412 48.08480042 -137.48345795 48.30815063 -138.69129944 48.53826904 C-140.83653696 48.94710172 -142.98162854 49.35670165 -145.12651062 49.76739502 C-155.80847925 51.8033834 -166.51024465 53.73134842 -177.21060181 55.66784668 C-177.233993 77.64311369 -177.25161151 99.61837864 -177.26241398 121.59365559 C-177.26756373 131.79783355 -177.27458122 142.00200377 -177.28604126 152.20617676 C-177.2960285 161.10320818 -177.30246484 170.00023399 -177.3046903 178.89727086 C-177.30599055 183.60535737 -177.30903289 188.31342782 -177.31633186 193.02150917 C-177.32315587 197.45948432 -177.32520586 201.8974369 -177.32370949 206.33541679 C-177.32398296 207.95786792 -177.32595002 209.58031986 -177.32980728 211.20276642 C-177.44498182 262.17933867 -155.55944671 304.33191379 -120.21060181 339.91784668 C-113.49154782 346.59812269 -106.79551177 352.97644365 -99.21060181 358.66784668 C-98.06252558 359.56638547 -96.91546576 360.46622382 -95.76919556 361.36706543 C-80.00996682 373.61430716 -62.98615045 384.07568348 -45.40151978 393.48132324 C-43.09325974 394.73139498 -40.81003136 396.02075717 -38.52700806 397.31628418 C-37.00520012 398.16322704 -35.48307565 399.00960145 -33.96060181 399.85534668 C-32.92359131 400.45439819 -32.92359131 400.45439819 -31.8656311 401.06555176 C-27.41378348 403.49617397 -25.07686349 403.87476433 -20.21060181 402.66784668 C-17.24557712 401.38223646 -17.24557712 401.38223646 -14.29653931 399.72644043 C-12.66071899 398.85148926 -12.66071899 398.85148926 -10.99185181 397.9588623 C-9.86778931 397.34720215 -8.74372681 396.73554199 -7.58560181 396.10534668 C-5.3475053 394.88815866 -3.10547126 393.67817506 -0.85903931 392.47644043 C0.623302 391.66904419 0.623302 391.66904419 2.1355896 390.84533691 C4.78939819 389.66784668 4.78939819 389.66784668 8.78939819 389.66784668 C10.43783569 391.28503418 10.43783569 391.28503418 12.16439819 393.54284668 C17.43774279 399.84880438 24.02377853 404.11625704 30.78939819 408.66784668 C28.1496542 411.48382358 25.68097087 413.4983402 22.28939819 415.33190918 C20.97237915 416.04866821 20.97237915 416.04866821 19.62875366 416.77990723 C18.22327271 417.52881226 18.22327271 417.52881226 16.78939819 418.29284668 C15.82276245 418.81338623 14.85612671 419.33392578 13.86019897 419.87023926 C7.17185418 423.45059893 0.43918589 426.94152814 -6.33560181 430.35534668 C-7.16962524 430.77703125 -8.00364868 431.19871582 -8.86294556 431.63317871 C-9.64025024 432.01973633 -10.41755493 432.40629395 -11.21841431 432.80456543 C-11.89533325 433.14189697 -12.5722522 433.47922852 -13.26968384 433.82678223 C-19.08824854 436.34816026 -25.6483628 436.72629318 -31.72817993 434.9197998 C-34.36137357 433.84716972 -36.90675276 432.66766226 -39.46060181 431.41784668 C-40.40806274 430.96893066 -41.35552368 430.52001465 -42.33169556 430.05749512 C-71.57101203 416.00755936 -99.46998579 398.70993809 -124.21060181 377.66784668 C-125.30519028 376.75843421 -126.40027085 375.84961382 -127.49575806 374.94128418 C-139.89690382 364.58070161 -151.30443205 353.46632877 -161.21060181 340.66784668 C-162.02013306 339.65206543 -162.82966431 338.63628418 -163.66372681 337.58972168 C-179.0303657 318.18623481 -190.05231399 296.99951055 -198.21060181 273.66784668 C-198.46180786 272.97126953 -198.71301392 272.27469238 -198.97183228 271.55700684 C-203.25076337 259.61697774 -205.52741908 247.21800107 -207.21060181 234.66784668 C-207.29348639 234.05824852 -207.37637096 233.44865036 -207.4617672 232.82057953 C-208.48898909 224.1303929 -208.38198752 215.41330835 -208.4034729 206.67712402 C-208.41138717 204.86599068 -208.41965691 203.05485887 -208.42825317 201.24372864 C-208.45429477 195.33042877 -208.46975121 189.4171224 -208.48403931 183.50378418 C-208.48940416 181.46149314 -208.49478168 179.41920214 -208.50017166 177.37691116 C-208.52176375 168.88395232 -208.54050224 160.39099525 -208.55179405 151.89801598 C-208.56805525 139.75173138 -208.60132777 127.60576535 -208.6581949 115.45960081 C-208.69689382 106.90138317 -208.71642601 98.34325082 -208.72171462 89.78494799 C-208.72536473 84.67957998 -208.73735259 79.57455321 -208.76981735 74.46928024 C-208.79990132 69.67070941 -208.80620865 64.87268641 -208.79443359 60.07404137 C-208.79421297 58.31645985 -208.8025089 56.5588528 -208.82008743 54.80135918 C-208.97591407 38.3218843 -208.97591407 38.3218843 -203.21060181 31.66784668 C-199.32758038 28.49172585 -194.94698841 27.75300368 -190.11685181 26.85534668 C-189.26645325 26.68926407 -188.41605469 26.52318146 -187.53988647 26.35206604 C-184.59860198 25.78081749 -181.65470468 25.22437518 -178.71060181 24.66784668 C-176.56562543 24.25497476 -174.42077389 23.84145386 -172.27603149 23.42736816 C-163.92454254 21.82145506 -155.56767866 20.24436171 -147.21060181 18.66784668 C-145.27529766 18.30255873 -143.339995 17.93726294 -141.4046936 17.57196045 C-121.22685898 13.76399321 -101.04761183 9.96354866 -80.86489868 6.18151855 C-78.67522041 5.77099819 -76.48554347 5.36047076 -74.29586792 4.94993591 C-70.19934405 4.18192383 -66.1025961 3.41512303 -62.00570679 2.64906311 C-60.12898775 2.29749501 -58.25229814 1.94576973 -56.37564087 1.59387207 C-55.48950828 1.42793863 -54.60337568 1.2620052 -53.69039059 1.09104347 C-49.70261354 0.34061154 -45.71922251 -0.42425644 -41.74375916 -1.2375946 C-41.06004871 -1.37738015 -40.37633827 -1.5171657 -39.67190933 -1.66118717 C-37.88825951 -2.02900231 -36.10589058 -2.40301456 -34.32365417 -2.77761841 C-22.61768841 -4.86282801 -11.46165482 -2.33193766 0 0 Z " fill="#B36BFA" transform="translate(535.2106018066406,180.3321533203125)"/>
<path d="M0 0 C9.52834935 7.62267948 16.76854323 16.08901369 22.3125 26.9375 C22.80097412 27.88508179 22.80097412 27.88508179 23.29931641 28.85180664 C27.84798282 38.17976608 29.54180013 47.35674077 29.4375 57.6875 C29.43137695 58.73115723 29.42525391 59.77481445 29.41894531 60.85009766 C29.24053746 69.75813873 27.84385548 77.55730405 25 86 C24.71125 86.92683594 24.4225 87.85367188 24.125 88.80859375 C21.69784985 95.75414397 17.573506 101.29945145 13 107 C12.319375 107.85851562 11.63875 108.71703125 10.9375 109.6015625 C-1.89315351 124.83796355 -19.55448651 132.24316771 -39 135 C-59.37655394 136.22636667 -78.95959316 130.70036349 -94.56396484 117.21362305 C-108.99036259 104.26506242 -119.30173032 86.7529612 -120.41796875 67.1484375 C-121.15853364 44.76177814 -115.99395011 27.04109459 -101 10 C-100.32195313 9.2265625 -99.64390625 8.453125 -98.9453125 7.65625 C-72.92779477 -20.17201072 -29.97358004 -22.36560713 0 0 Z M-94.75 21.1875 C-105.06301201 35.44226419 -110.19004257 51.7222806 -107.49609375 69.28515625 C-103.67054129 87.62594776 -94.74001067 102.8394667 -78.9375 113.1875 C-63.04550162 122.42745777 -46.91035447 124.67383285 -29.0625 120.4375 C-11.51955586 114.99576245 1.55987163 104.33023 10.5 88.3125 C17.46587947 74.04903251 19.58298836 57.35443921 15.09765625 42 C11.21194751 31.37998466 6.11526055 22.87491312 -2 15 C-2.63679687 14.35417969 -3.27359375 13.70835937 -3.9296875 13.04296875 C-15.76658348 1.77090391 -31.85747784 -2.40804596 -47.80273438 -2.37011719 C-66.13863761 -1.85934368 -83.0614636 7.15082012 -94.75 21.1875 Z " fill="#B26BF7" transform="translate(656,454)"/>
<path d="M0 0 C13.74740289 11.26209491 26.35056429 26.47700109 31 44 C31 45.98 31 47.96 31 50 C27.04 50.66 23.08 51.32 19 52 C18.6596875 50.98421875 18.319375 49.9684375 17.96875 48.921875 C10.72535179 28.04968572 -2.34389453 12.1103003 -22.25 2.1875 C-40.39916896 -5.36591136 -60.45207144 -6.97998157 -79 0 C-98.18404856 7.96805087 -113.27194084 20.84475063 -122 40 C-123.58749982 44.28074373 -124.88421548 48.57468514 -126 53 C-126.2626062 53.91446899 -126.2626062 53.91446899 -126.53051758 54.84741211 C-130.61015252 73.55263379 -125.99713794 94.89501266 -116.18359375 110.9765625 C-104.78206094 127.33027623 -88.86144056 138.89009548 -69.33520508 143.58935547 C-64.59707788 144.42255254 -59.79961423 144.48083136 -55 144.625 C-53.40865234 144.68300781 -53.40865234 144.68300781 -51.78515625 144.7421875 C-49.19036585 144.83569346 -46.59520776 144.91889976 -44 145 C-43.505 151.435 -43.505 151.435 -43 158 C-70.07196589 158.76498491 -70.07196589 158.76498491 -82 154 C-83.02867187 153.62617187 -84.05734375 153.25234375 -85.1171875 152.8671875 C-96.80251014 148.37740705 -106.0158398 141.60982019 -115 133 C-115.7115625 132.35160156 -116.423125 131.70320312 -117.15625 131.03515625 C-132.04727054 117.03186962 -140.52975088 95.80545543 -141.22265625 75.6171875 C-141.55894498 59.7802126 -139.89749395 46.46695006 -133 32 C-132.58105469 31.09765625 -132.16210938 30.1953125 -131.73046875 29.265625 C-120.1582027 6.18779184 -98.777964 -7.98578285 -74.93359375 -16.03515625 C-49.12815131 -23.26875485 -20.85822419 -16.11900862 0 0 Z " fill="#B16AF6" transform="translate(568,378)"/>
<path d="M0 0 C35.97 0 71.94 0 109 0 C109.99 2.97 110.98 5.94 112 9 C112.55083252 9.64356445 113.10166504 10.28712891 113.66918945 10.95019531 C115.99131538 14.5268912 115.36292661 18.64053615 115.29296875 22.796875 C115.28872391 23.74564514 115.28447906 24.69441528 115.28010559 25.67193604 C115.26333082 28.69824766 115.22568056 31.7238901 115.1875 34.75 C115.17245162 36.80337579 115.15876348 38.85676203 115.14648438 40.91015625 C115.11343117 45.94036148 115.06165683 50.97006733 115 56 C111.45756548 54.63408831 108.07372071 53.09068516 104.6875 51.375 C103.36298828 50.70597656 103.36298828 50.70597656 102.01171875 50.0234375 C101.34785156 49.68570313 100.68398438 49.34796875 100 49 C100.00112793 48.14768799 100.00225586 47.29537598 100.00341797 46.41723633 C99.9934621 43.23893333 99.95681431 40.06234929 99.90234375 36.88452148 C99.88423402 35.51222472 99.87660619 34.13974633 99.87988281 32.76733398 C100.1738978 25.04656314 100.1738978 25.04656314 97.71411133 17.97607422 C95.24838293 15.83358866 93.14234631 15.02324021 89.9375 14.5 C86.6463317 15.06019886 84.67041272 16.01626484 82 18 C80.79729036 20.40541929 80.79683337 22.10366591 80.68359375 24.7890625 C80.64169922 25.73007812 80.59980469 26.67109375 80.55664062 27.640625 C80.51732422 28.62546875 80.47800781 29.6103125 80.4375 30.625 C80.37272461 32.11386719 80.37272461 32.11386719 80.30664062 33.6328125 C80.20038931 36.08839838 80.09835036 38.54408703 80 41 C69.44191344 40.03644647 69.44191344 40.03644647 65 39 C64.94392578 37.24623047 64.94392578 37.24623047 64.88671875 35.45703125 C64.8210372 33.90882325 64.75459061 32.36064758 64.6875 30.8125 C64.66494141 30.04357422 64.64238281 29.27464844 64.61914062 28.48242188 C64.40168045 23.87622008 63.91512363 20.77080668 61 17 C57.79062591 14.67597049 54.88493979 14.52429309 51 15 C48.30009338 16.79993774 46.4581135 18.083773 45 21 C44.84932786 22.4465242 44.75138964 23.8987934 44.68359375 25.3515625 C44.62075195 26.62773437 44.62075195 26.62773437 44.55664062 27.9296875 C44.51732422 28.81914062 44.47800781 29.70859375 44.4375 30.625 C44.37272461 31.97078125 44.37272461 31.97078125 44.30664062 33.34375 C44.20043285 35.56231239 44.09970041 37.78113565 44 40 C39.05 40.99 34.1 41.98 29 43 C28.98582031 41.46988281 28.97164063 39.93976563 28.95703125 38.36328125 C28.91012527 36.34632421 28.86187792 34.32939804 28.8125 32.3125 C28.80669922 31.30509766 28.80089844 30.29769531 28.79492188 29.25976562 C28.65285499 24.47684725 28.57155435 21.7978151 25.73046875 17.83203125 C22.99780211 15.99852531 21.73969727 15.31796308 18.5 15.375 C17.40171875 15.35566406 17.40171875 15.35566406 16.28125 15.3359375 C12.79394331 16.35107814 11.28298922 18.21976082 9 21 C8.40040843 24.34424382 8.40040843 24.34424382 8.6796875 27.98828125 C8.70221709 29.34828025 8.72299508 30.70830919 8.7421875 32.06835938 C8.80000453 34.1897053 8.8747251 36.30709006 8.98242188 38.42651367 C9.52329583 50.26641013 9.52329583 50.26641013 5.63378906 54.69287109 C1.63698518 57.63435405 -2.5780812 59.79066547 -7 62 C-7.10148186 55.113328 -7.1714999 48.22684908 -7.21972656 41.33959961 C-7.23983265 38.99707839 -7.26712166 36.6546073 -7.30175781 34.31225586 C-7.35031841 30.94372177 -7.37297922 27.57585169 -7.390625 24.20703125 C-7.41127014 23.16102249 -7.43191528 22.11501373 -7.45318604 21.03730774 C-7.45499343 15.17082849 -7.14029918 12.40152121 -3 8 C-2.01 5.36 -1.02 2.72 0 0 Z " fill="#B269F9" transform="translate(457,309)"/>
<path d="M0 0 C0.66550891 -0.00694553 1.33101781 -0.01389106 2.01669365 -0.02104706 C4.24552511 -0.03933583 6.47329437 -0.02904854 8.7021637 -0.01878357 C10.30054013 -0.02584118 11.89890988 -0.03458553 13.49726868 -0.04489136 C17.83824748 -0.06741365 22.17886218 -0.064439 26.5198772 -0.05556989 C30.14324043 -0.05046341 33.76653504 -0.05774982 37.38989121 -0.06504196 C45.93756506 -0.08205014 54.48506044 -0.07846609 63.0327301 -0.06175232 C71.85224313 -0.04483003 80.67126125 -0.06066478 89.49072021 -0.0929752 C97.06197888 -0.11966241 104.63308341 -0.12694947 112.20438439 -0.11846012 C116.72676548 -0.11352832 121.24884877 -0.11575997 125.77119255 -0.13624763 C130.02395096 -0.15459121 134.27599702 -0.1486628 138.52871704 -0.12404823 C140.08918463 -0.11903604 141.64970637 -0.12254081 143.21013069 -0.13519669 C145.34159076 -0.15111589 147.47070168 -0.13619264 149.60205078 -0.11352539 C150.79426459 -0.11293908 151.9864784 -0.11235277 153.21481991 -0.1117487 C157.31174936 0.7030494 158.80642849 2.27598411 161.36451721 5.5146637 C161.98951721 9.0146637 161.98951721 9.0146637 161.36451721 12.5146637 C158.81268445 15.74065801 157.31490535 17.3236912 153.23323059 18.1438694 C152.04968994 18.14575453 150.86614929 18.14763966 149.64674377 18.14958191 C148.984464 18.15738186 148.32218422 18.16518182 147.63983536 18.17321813 C145.4276997 18.19311163 143.21728963 18.17738658 141.00514221 18.16163635 C139.41646828 18.16841375 137.82780221 18.17731758 136.239151 18.18818665 C131.92913536 18.21097239 127.61971843 18.20214688 123.30969238 18.18629122 C118.79832857 18.17362838 114.28701586 18.18537339 109.77565002 18.19322205 C102.19971009 18.2023175 94.62401389 18.19033347 87.04811096 18.16651917 C78.29047741 18.139308 69.53342587 18.14812224 60.77580643 18.17565119 C53.2554692 18.19834427 45.73530715 18.2015414 38.21494675 18.18845785 C33.72389435 18.18066439 29.23311549 18.17961873 24.74208069 18.19614029 C20.51965097 18.21058879 16.29797128 18.20055703 12.07562256 18.17166901 C10.52645106 18.16506013 8.9772164 18.16695259 7.42807007 18.17798233 C5.31195967 18.19165921 3.19824832 18.17450245 1.08229065 18.14958191 C-0.10125 18.14769678 -1.28479065 18.14581165 -2.50419617 18.1438694 C-6.55561354 17.32977116 -8.05645758 15.66800709 -10.63548279 12.5146637 C-11.5428642 9.48818035 -11.09981412 7.764983 -10.63548279 4.5146637 C-7.54430813 0.29134048 -5.09094034 0.01198979 0 0 Z " fill="#B167F8" transform="translate(436.63548278808594,251.48533630371094)"/>
<path d="M0 0 C39.6 0 79.2 0 120 0 C118.02 3.63 116.04 7.26 114 11 C113.67 12.65 113.34 14.3 113 16 C77.69 16 42.38 16 6 16 C5.01 12.7 4.02 9.4 3 6 C2.01 4.68 1.02 3.36 0 2 C0 1.34 0 0.68 0 0 Z " fill="#B069F5" transform="translate(452,281)"/>
<path d="M0 0 C6.15258558 2.79554374 11.0747614 8.06333495 13.57421875 14.3515625 C14.47095821 21.48772073 14.4729985 27.80277267 10.06640625 33.703125 C5.80544638 38.41025868 1.43299981 41.85551591 -5.0390625 42.6875 C-12.37585725 42.79367648 -17.76761526 41.86307595 -23.1796875 36.66796875 C-28.79194624 30.37953426 -29.84871514 25.92952268 -29.66015625 17.47265625 C-29.09760467 9.98134438 -24.89948299 6.65647779 -19.484375 1.98828125 C-14.19973526 -2.21335831 -6.31882754 -1.68909078 0 0 Z " fill="#B36AFA" transform="translate(432.42578125,280.6484375)"/>
<path d="M0 0 C5.57373287 3.30807428 10.03988303 8.06426657 12.546875 14.08984375 C13.53355116 21.37518517 12.65209729 27.92000674 8.546875 34.08984375 C4.45729028 38.60583066 0.08835355 41.63458642 -6.06640625 42.42578125 C-13.403201 42.53195773 -18.79495901 41.6013572 -24.20703125 36.40625 C-29.72827338 30.21979797 -30.972213 25.6916104 -30.83203125 17.35546875 C-30.11040741 11.13611278 -26.98061558 7.25590416 -22.390625 3.21484375 C-15.70510413 -1.62149049 -7.9782537 -2.96008457 0 0 Z " fill="#B26BFA" transform="translate(607.453125,280.91015625)"/>
<path d="M0 0 C4.455 -0.144375 8.91 -0.28875 13.5 -0.4375 C15.58344727 -0.53309204 15.58344727 -0.53309204 17.70898438 -0.63061523 C23.83603994 -0.72651621 28.06536143 -0.71155016 32.84375 3.40234375 C37.15198156 7.87196046 37.34108519 11.13421457 37.28515625 17.23046875 C36.89011412 21.06724783 35.59508601 23.18865682 33 26 C31.68739427 26.70660345 30.35641026 27.3816365 29 28 C29.56589844 29.18078125 30.13179688 30.3615625 30.71484375 31.578125 C31.45592103 33.13532537 32.19679588 34.6926221 32.9375 36.25 C33.31068359 37.02730469 33.68386719 37.80460938 34.06835938 38.60546875 C34.42607422 39.35957031 34.78378906 40.11367188 35.15234375 40.890625 C35.48226318 41.58188477 35.81218262 42.27314453 36.15209961 42.98535156 C37 45 37 45 38 49 C34.7 49 31.4 49 28 49 C27.46632813 47.78441406 26.93265625 46.56882812 26.3828125 45.31640625 C22.82769677 36.61408029 22.82769677 36.61408029 16.17578125 30.6484375 C13.14829913 30.32267977 13.14829913 30.32267977 9 31 C9 36.94 9 42.88 9 49 C6.03 49 3.06 49 0 49 C0 32.83 0 16.66 0 0 Z " fill="#F7F8F8" transform="translate(361,768)"/>
<path d="M0 0 C3.3 0 6.6 0 10 0 C10.33 5.94 10.66 11.88 11 18 C12.65 16.68 14.3 15.36 16 14 C20.29860026 13.05057003 24.18810902 13.72426344 28.3125 15.125 C32.63602472 18.14141259 35.01289796 21.85766841 36 27 C36.53698214 33.65031728 36.57378482 40.16281813 33 46 C29.22551909 50.13542854 25.72671569 51.86074873 20.125 52.3125 C16.8155688 52.28197019 15.96591856 51.9786991 13 50.125 C11 48 11 48 11 46 C10.34 46 9.68 46 9 46 C9 47.65 9 49.3 9 51 C6.03 51 3.06 51 0 51 C0 34.17 0 17.34 0 0 Z " fill="#F4F5F5" transform="translate(518,766)"/>
<path d="M0 0 C1.8125 1.125 1.8125 1.125 3 3 C3.44457356 6.6587893 3.39219259 8.42250541 1.296875 11.5078125 C0.45640625 12.37148438 -0.3840625 13.23515625 -1.25 14.125 C-1.95527832 14.86121582 -1.95527832 14.86121582 -2.67480469 15.61230469 C-4.43016217 17.42860453 -6.21259466 19.21521806 -8 21 C-8.78246094 21.78407227 -9.56492187 22.56814453 -10.37109375 23.37597656 C-13.84845817 26.85731058 -17.3256119 30.33838743 -20.82910156 33.79345703 C-25.2564344 38.17321205 -29.52872218 42.60632168 -33.56738281 47.34863281 C-36.60165364 50.84621426 -38.75562594 52.71825493 -43.3125 53.75 C-48.87153627 52.61934856 -51.38532297 49.18504027 -55 45 C-55.62261719 44.29488281 -56.24523437 43.58976563 -56.88671875 42.86328125 C-58.06470771 41.52175369 -59.23313522 40.17175406 -60.390625 38.8125 C-62.14252447 36.776501 -62.14252447 36.776501 -64.9375 34.3125 C-67 32 -67 32 -67.5625 29.4375 C-66.80948847 26.17445006 -65.69221249 24.96458749 -63 23 C-60.08907691 22.64328505 -58.58700885 22.59282981 -56.1472168 24.28515625 C-55.58687744 24.87167969 -55.02653809 25.45820312 -54.44921875 26.0625 C-53.52592773 27.00996094 -53.52592773 27.00996094 -52.58398438 27.9765625 C-51.95814453 28.64429688 -51.33230469 29.31203125 -50.6875 30 C-50.04232422 30.66773438 -49.39714844 31.33546875 -48.73242188 32.0234375 C-47.14311073 33.67161203 -45.56662098 35.33029098 -44 37 C-40.11611344 35.4181616 -37.49833938 32.77190147 -34.60546875 29.8359375 C-34.09502518 29.32503571 -33.5845816 28.81413391 -33.05867004 28.28775024 C-31.97968943 27.20575408 -30.90313476 26.12133401 -29.82885742 25.03466797 C-28.20858205 23.39631724 -26.58063068 21.76593063 -24.95117188 20.13671875 C-19.9471195 15.1143337 -15.01819554 10.07489966 -10.4934082 4.60791016 C-7.26915078 1.13644385 -4.85595207 -0.74706955 0 0 Z " fill="#AE6AF4" transform="translate(644,488)"/>
<path d="M0 0 C4.77233575 1.61918534 7.25888217 3.7904262 10 8 C12.10364885 12.83839237 12 15.37329179 12 21 C3.75 21 -4.5 21 -13 21 C-11.59628479 26.7018576 -11.59628479 26.7018576 -9 29 C-3.11663097 29.50966413 -3.11663097 29.50966413 2 27 C4.26171875 26.8046875 4.26171875 26.8046875 6.6875 26.875 C7.89986328 26.90207031 7.89986328 26.90207031 9.13671875 26.9296875 C9.75160156 26.95289063 10.36648438 26.97609375 11 27 C10.17938701 31.64684465 7.73717128 33.21544101 4 36 C-0.52783446 38.69802919 -4.86237857 38.51294794 -10 38 C-15.18479602 36.23912588 -17.86460732 33.4418063 -21 29 C-23.69349805 23.09995664 -23.51322847 17.52337333 -22.25 11.3125 C-18.19602994 0.56947934 -10.51468861 -1.04148205 0 0 Z " fill="#F2F3F3" transform="translate(426,780)"/>
<path d="M0 0 C2.75347602 2.10133696 3.8597498 3.70017448 5.375 6.8125 C5.71557617 10.04223633 5.71557617 10.04223633 5.66796875 13.64453125 C5.6534668 15.58295898 5.6534668 15.58295898 5.63867188 17.56054688 C5.61360985 18.9153707 5.58821506 20.27018841 5.5625 21.625 C5.54744013 22.99933445 5.53375401 24.37368468 5.52148438 25.74804688 C5.48616628 29.10326632 5.43683851 32.45768166 5.375 35.8125 C2.405 35.8125 -0.565 35.8125 -3.625 35.8125 C-3.955 34.8225 -4.285 33.8325 -4.625 32.8125 C-5.635625 33.4725 -6.64625 34.1325 -7.6875 34.8125 C-11.48952407 36.95880391 -14.22178637 37.45296744 -18.625 36.8125 C-21.70693978 35.1843054 -23.88920667 33.78240938 -26 31 C-26.92678233 27.75626185 -26.97840896 25.16988508 -26.625 21.8125 C-24.42970172 18.28434205 -22.47808237 16.29593671 -18.625 14.8125 C-16.0165208 14.51835235 -13.48966689 14.30612383 -10.875 14.1875 C-10.17761719 14.14882813 -9.48023438 14.11015625 -8.76171875 14.0703125 C-7.04989182 13.97651376 -5.33748318 13.89343826 -3.625 13.8125 C-4.59276098 10.01702079 -4.59276098 10.01702079 -6.625 6.8125 C-10.04124258 6.47895597 -10.04124258 6.47895597 -13.625 6.8125 C-14.09808594 7.30878906 -14.57117188 7.80507813 -15.05859375 8.31640625 C-16.625 9.8125 -16.625 9.8125 -18.88671875 10.10546875 C-19.68722656 10.07066406 -20.48773438 10.03585937 -21.3125 10 C-22.52486328 9.95939453 -22.52486328 9.95939453 -23.76171875 9.91796875 C-24.37660156 9.88316406 -24.99148438 9.84835937 -25.625 9.8125 C-24.38392597 4.84820389 -22.86393588 2.67378172 -18.625 -0.1875 C-13.36390248 -2.81804876 -5.4001528 -1.76901557 0 0 Z " fill="#F2F3F3" transform="translate(504.625,781.1875)"/>
<path d="M0 0 C3.5 0.5 3.5 0.5 5.2109375 2.06396484 C6.9663451 5.38128625 6.77319843 8.33089162 6.625 11.9765625 C6.60827365 13.46742289 6.59403194 14.95831283 6.58203125 16.44921875 C6.54928177 18.78127523 6.5006586 21.10848615 6.40771484 23.43896484 C5.93021789 33.11407395 5.93021789 33.11407395 9.83984375 41.63964844 C12.61349815 44.14989874 15.47000713 46.31184429 18.5 48.5 C21.359375 51.03369141 21.359375 51.03369141 23.5 53.5 C23.5 57.1875 23.5 57.1875 22.5 60.5 C19.5 62.5 19.5 62.5 17.04296875 62.3125 C14.2725292 61.42732116 12.9214338 60.47626768 10.8125 58.5 C10.13445313 57.87480469 9.45640625 57.24960937 8.7578125 56.60546875 C8.01273438 55.91066406 7.26765625 55.21585937 6.5 54.5 C4.72955001 52.93706566 2.95871002 51.37457298 1.1875 49.8125 C-6.32889668 43.1692797 -6.32889668 43.1692797 -6.88818359 37.71289062 C-6.9079238 36.19413485 -6.91032128 34.67508756 -6.8984375 33.15625 C-6.90130768 32.35014282 -6.90417786 31.54403564 -6.90713501 30.71350098 C-6.90917292 29.01228125 -6.90366214 27.31103795 -6.89111328 25.60986328 C-6.87505499 23.00890609 -6.89097043 20.40950273 -6.91015625 17.80859375 C-6.90817377 16.15364241 -6.90432999 14.49869204 -6.8984375 12.84375 C-6.90451019 12.06761353 -6.91058289 11.29147705 -6.9168396 10.49182129 C-6.87501041 7.27360159 -6.70155465 4.88427241 -5.19384766 2.00976562 C-3.5 0.5 -3.5 0.5 0 0 Z " fill="#AE68F2" transform="translate(514.5,407.5)"/>
<path d="M0 0 C3.3 0 6.6 0 10 0 C10.98996521 2.97595047 11.96707868 5.95517544 12.9375 8.9375 C13.21529297 9.76830078 13.49308594 10.59910156 13.77929688 11.45507812 C15.57237528 17.00714017 16.53617082 22.18158588 17 28 C17.66 28 18.32 28 19 28 C19.08636719 27.319375 19.17273438 26.63875 19.26171875 25.9375 C20.56485673 16.94704349 23.14377279 8.59048489 26 0 C29.3 0 32.6 0 36 0 C35.26659355 4.37981657 33.89264721 8.47064911 32.41796875 12.64453125 C32.16251785 13.37314865 31.90706696 14.10176605 31.64387512 14.85246277 C31.10343069 16.39029013 30.56121324 17.9274954 30.01733398 19.46411133 C29.19465363 21.7922556 28.38120198 24.12348383 27.56835938 26.45507812 C27.03962359 27.95592695 26.51034388 29.45658429 25.98046875 30.95703125 C25.74176559 31.64376419 25.50306244 32.33049713 25.25712585 33.03804016 C20.93706755 45.15517376 20.93706755 45.15517376 16.375 49.5 C11.82972293 51.52012314 7.89665366 51.34837852 3 51 C3 48.69 3 46.38 3 44 C5.64 43.01 8.28 42.02 11 41 C10.51370574 32.90667416 8.16748238 25.872558 5.5 18.25 C4.67446021 15.86027956 3.85144141 13.46968637 3.03125 11.078125 C2.66580078 10.03043945 2.30035156 8.98275391 1.92382812 7.90332031 C1.08704145 5.27354571 0.47773462 2.71508338 0 0 Z " fill="#F1F2F1" transform="translate(638,780)"/>
<path d="M0 0 C2.97 0 5.94 0 9 0 C9 2.64 9 5.28 9 8 C11.64 8 14.28 8 17 8 C17 10.64 17 13.28 17 16 C14.69 16 12.38 16 10 16 C10.33 22.6 10.66 29.2 11 36 C12.98 36.33 14.96 36.66 17 37 C17 39.64 17 42.28 17 45 C7.03348923 45.78545181 7.03348923 45.78545181 2.875 42.625 C0.30495223 39.02693312 -0.12273775 37.35636782 -0.09765625 32.9921875 C-0.09443359 32.00605469 -0.09121094 31.01992188 -0.08789062 30.00390625 C-0.07951172 28.97136719 -0.07113281 27.93882812 -0.0625 26.875 C-0.05798828 25.83472656 -0.05347656 24.79445313 -0.04882812 23.72265625 C-0.03701952 21.14838038 -0.02055075 18.57421854 0 16 C-1.65 16 -3.3 16 -5 16 C-5 13.36 -5 10.72 -5 8 C-3.35 8 -1.7 8 0 8 C0 5.36 0 2.72 0 0 Z " fill="#EFF0F1" transform="translate(617,772)"/>
<path d="M0 0 C3.3 0 6.6 0 10 0 C10 16.83 10 33.66 10 51 C6.7 51 3.4 51 0 51 C0 34.17 0 17.34 0 0 Z " fill="#E8EAEA" transform="translate(444,766)"/>
<path d="M0 0 C2.97 0 5.94 0 9 0 C9 16.83 9 33.66 9 51 C6.03 51 3.06 51 0 51 C0 34.17 0 17.34 0 0 Z " fill="#FAFAFB" transform="translate(579,766)"/>
<path d="M0 0 C2.7912125 1.98322993 3.82597224 3.12986121 4.5 6.5 C3.85643482 9.71782589 2.46694247 10.91851729 0 13 C0.309375 13.598125 0.61875 14.19625 0.9375 14.8125 C2 17 2 17 3 20 C3.66 20 4.32 20 5 20 C5.33 18.35 5.66 16.7 6 15 C6.99 15 7.98 15 9 15 C8.89300781 15.67546875 8.78601563 16.3509375 8.67578125 17.046875 C8.55589844 17.93890625 8.43601562 18.8309375 8.3125 19.75 C8.18488281 20.63171875 8.05726563 21.5134375 7.92578125 22.421875 C8.01602809 25.55676517 8.92615363 26.71823587 11 29 C8.46653542 29.07037402 6.2762137 29.07102638 3.8125 28.4375 C1.91567768 27.77357897 1.91567768 27.77357897 0 29 C-7.10601719 29.5730659 -7.10601719 29.5730659 -10.4375 27.4375 C-12.55357459 24.13642364 -13.06886551 21.92533388 -13 18 C-10.5625 15.0625 -10.5625 15.0625 -8 13 C-8.33 12.01 -8.66 11.02 -9 10 C-9.44522968 3.76678445 -9.44522968 3.76678445 -7.875 1.0625 C-5.06487736 -0.52990283 -3.17235276 -0.45319325 0 0 Z " fill="#B3B6B9" transform="translate(674,858)"/>
<path d="M0 0 C14.76470588 0 14.76470588 0 19 4 C20.56935594 7.13871188 20.35201103 9.53855822 20 13 C17.8272578 15.63016161 16.05326212 17.47336894 13 19 C9.99525503 19.13559318 7.00931153 19.04299016 4 19 C4 22.3 4 25.6 4 29 C2.68 29 1.36 29 0 29 C0 19.43 0 9.86 0 0 Z " fill="#ADB2B7" transform="translate(423,858)"/>
<path d="M0 0 C3.3 0 6.6 0 10 0 C10 12.21 10 24.42 10 37 C6.7 37 3.4 37 0 37 C0 24.79 0 12.58 0 0 Z " fill="#ECEEEE" transform="translate(462,780)"/>
<path d="M0 0 C2.5 1.875 2.5 1.875 4 4 C4 4.66 4 5.32 4 6 C4.66 6 5.32 6 6 6 C6.66 4.02 7.32 2.04 8 0 C9.65 0 11.3 0 13 0 C13 6.93 13 13.86 13 21 C11.35 21 9.7 21 8 21 C7.505 16.05 7.505 16.05 7 11 C5.03177114 12.96822886 5.33751619 16.34808709 5 19 C0.46236032 21.26881984 -3.01989858 21.47429537 -8 21 C-10.5 19.125 -10.5 19.125 -12 17 C-12 16.34 -12 15.68 -12 15 C-10.68 15 -9.36 15 -8 15 C-7.67 15.66 -7.34 16.32 -7 17 C-5.02 17 -3.04 17 -1 17 C-0.67 15.68 -0.34 14.36 0 13 C-1.258125 12.731875 -2.51625 12.46375 -3.8125 12.1875 C-6.23856525 11.56917541 -7.89556895 11.06853288 -10 9.6875 C-11.42215339 7.28761616 -11.41084195 5.73894636 -11 3 C-8.719894 -1.13269212 -4.18405965 -0.78293269 0 0 Z " fill="#282D39" transform="translate(305,866)"/>
<path d="M0 0 C2.92099571 0.7342105 4.66168947 2.21710098 6.34765625 4.69921875 C7.81976334 8.03976945 7.94299996 10.99548781 7.16015625 14.54296875 C4.16015625 20.04296875 4.16015625 20.04296875 1.16015625 21.54296875 C-5.8270329 22.34477734 -5.8270329 22.34477734 -9.83984375 19.16796875 C-12.32402971 15.61068205 -12.56276375 12.14510876 -12.3125 7.890625 C-11.83984375 5.54296875 -11.83984375 5.54296875 -9.90234375 2.41796875 C-6.35541791 0.2463815 -4.10922011 -0.25382495 0 0 Z " fill="#B4B8BC" transform="translate(260.83984375,865.45703125)"/>
<path d="M0 0 C3.47358698 0.79254747 5.08697373 2.73793232 7.19140625 5.5 C8.74617315 8.60953379 8.47785062 11.06266761 8.19140625 14.5 C5.11448317 20.03846154 5.11448317 20.03846154 2.19140625 21.5 C-5.04946966 22.08394161 -5.04946966 22.08394161 -8.24609375 19.625 C-11.53782952 15.14823936 -11.38670456 10.91553801 -10.80859375 5.5 C-8.40458893 0.27390256 -5.38184172 -0.28372147 0 0 Z " fill="#B3B8BD" transform="translate(506.80859375,865.5)"/>
<path d="M0 0 C2.97 0 5.94 0 9 0 C9 12.21 9 24.42 9 37 C6.03 37 3.06 37 0 37 C0 24.79 0 12.58 0 0 Z " fill="#F7F8F8" transform="translate(597,780)"/>
<path d="M0 0 C2.97 0 5.94 0 9 0 C9 12.21 9 24.42 9 37 C6.03 37 3.06 37 0 37 C0 24.79 0 12.58 0 0 Z " fill="#FAFAFB" transform="translate(561,780)"/>
<path d="M0 0 C2.875 1.8125 2.875 1.8125 5 5 C5.88400591 10.12723427 5.77731094 14.44537811 3.4375 19.125 C0.2003942 21.61508138 -1.92999768 22.07267861 -6 22 C-8.41281883 20.15863826 -9.65150913 18.69698174 -11 16 C-11.60587482 10.62502477 -11.93459941 6.40189912 -8.875 1.8125 C-5.45015775 -0.34663968 -3.96628159 -0.82630866 0 0 Z " fill="#1E2634" transform="translate(539,788)"/>
<path d="M0 0 C2.475 0.495 2.475 0.495 5 1 C5.33 0.67 5.66 0.34 6 0 C12.46153846 -0.35897436 12.46153846 -0.35897436 16 2 C16.66 1.34 17.32 0.68 18 0 C21.71080071 -0.41231119 24.04963017 -0.63469928 27.2109375 1.4765625 C29.82950896 5.17000609 29.44001326 8.34315409 29.25 12.75 C29.23195313 13.54277344 29.21390625 14.33554687 29.1953125 15.15234375 C29.14833082 17.10208348 29.07659044 19.05119878 29 21 C27.68 21 26.36 21 25 21 C24.67 15.72 24.34 10.44 24 5 C19.52297636 3.93462795 19.52297636 3.93462795 17 4 C16.67 9.28 16.34 14.56 16 20 C15.01 20 14.02 20 13 20 C12.93941406 18.92878906 12.87882813 17.85757813 12.81640625 16.75390625 C12.73201463 15.35675609 12.64736594 13.95962143 12.5625 12.5625 C12.52318359 11.85544922 12.48386719 11.14839844 12.44335938 10.41992188 C12.52375562 6.91309581 12.52375562 6.91309581 11 4 C8.5 3.83333333 8.5 3.83333333 6 4 C3.94077598 6.05922402 4.58572421 10.21708124 4.4375 13.0625 C4.39431641 13.82111328 4.35113281 14.57972656 4.30664062 15.36132812 C4.20026367 17.24065438 4.09960066 19.12030244 4 21 C2.68 21 1.36 21 0 21 C0 14.07 0 7.14 0 0 Z " fill="#BABFC4" transform="translate(533,866)"/>
<path d="M0 0 C4.03345299 0.99067266 5.16331988 1.5401919 7.5625 4.875 C8.04548108 7.80869051 7.94025024 10.66217705 7.8125 13.625 C7.79445313 14.41777344 7.77640625 15.21054687 7.7578125 16.02734375 C7.71083082 17.97708348 7.63909044 19.92619878 7.5625 21.875 C6.2425 21.875 4.9225 21.875 3.5625 21.875 C3.2325 21.215 2.9025 20.555 2.5625 19.875 C1.5725 20.535 0.5825 21.195 -0.4375 21.875 C-3.55776907 22.20002803 -5.58497535 22.38651479 -8.3125 20.75 C-9.96604531 17.99409116 -9.83115568 16.02424548 -9.4375 12.875 C-7.89243534 10.83832385 -6.71603844 10.01426922 -4.4375 8.875 C-1.7651379 8.74084528 0.88500488 8.83181459 3.5625 8.875 C2.9025 7.555 2.2425 6.235 1.5625 4.875 C-1.92984244 4.77521879 -5.03187148 5.09657062 -8.4375 5.875 C-6.55676448 1.53484111 -4.99643181 -0.18168843 0 0 Z " fill="#A7ABB1" transform="translate(575.4375,865.125)"/>
<path d="M0 0 C11.97506679 -0.4381122 11.97506679 -0.4381122 17 3 C18.44430855 5.88861709 18.37688506 7.79647701 18 11 C16.3125 13.875 16.3125 13.875 13 16 C8.57776229 16.4229501 4.46134916 16.22532066 0 16 C0 10.72 0 5.44 0 0 Z " fill="#28303D" transform="translate(370,775)"/>
<path d="M0 0 C3.46145669 0.86536417 4.94931405 2.62635769 6.9375 5.484375 C6.9375 7.464375 6.9375 9.444375 6.9375 11.484375 C2.3175 11.484375 -2.3025 11.484375 -7.0625 11.484375 C-5.60961014 16.0685713 -5.60961014 16.0685713 -4.0625 17.484375 C-1.60440002 17.7344523 -1.60440002 17.7344523 0.9375 17.484375 C1.5975 16.824375 2.2575 16.164375 2.9375 15.484375 C4.2575 15.484375 5.5775 15.484375 6.9375 15.484375 C5.56766497 18.64553276 4.9484362 19.4770842 1.9375 21.484375 C-5.15420306 22.15977529 -5.15420306 22.15977529 -8.5 19.671875 C-11.5905721 15.34507406 -11.83662625 10.62421326 -11.0625 5.484375 C-8.09246064 0.93650223 -5.26046807 -0.35866828 0 0 Z " fill="#A8ADB3" transform="translate(457.0625,865.515625)"/>
<path d="M0 0 C3.46145669 0.86536417 4.94931405 2.62635769 6.9375 5.484375 C6.9375 7.464375 6.9375 9.444375 6.9375 11.484375 C2.3175 11.484375 -2.3025 11.484375 -7.0625 11.484375 C-5.60961014 16.0685713 -5.60961014 16.0685713 -4.0625 17.484375 C-1.60440002 17.7344523 -1.60440002 17.7344523 0.9375 17.484375 C1.5975 16.824375 2.2575 16.164375 2.9375 15.484375 C4.2575 15.484375 5.5775 15.484375 6.9375 15.484375 C5.56766497 18.64553276 4.9484362 19.4770842 1.9375 21.484375 C-1.15763519 21.88374728 -3.1010906 22.11813966 -6.0625 21.484375 C-9.4717985 18.78534702 -10.71580164 17.26617723 -11.5390625 13.03515625 C-11.79110026 8.59796518 -11.49004954 6.15242115 -9.0625 2.359375 C-5.74695285 0.28715803 -3.84503359 -0.26216138 0 0 Z " fill="#B8BBBF" transform="translate(366.0625,865.515625)"/>
<path d="M0 0 C3.4375 1.6875 3.4375 1.6875 6 4 C6.875 6.75 6.875 6.75 7 9 C5.68 9 4.36 9 3 9 C2.67 7.68 2.34 6.36 2 5 C0.3973218 4.89175157 -1.20745748 4.81429355 -2.8125 4.75 C-4.15248047 4.68039062 -4.15248047 4.68039062 -5.51953125 4.609375 C-8.09785015 4.77896146 -8.09785015 4.77896146 -9.80078125 6.671875 C-11.2413018 9.4684556 -11.40084712 11.36388227 -11.375 14.5 C-11.38273438 15.4384375 -11.39046875 16.376875 -11.3984375 17.34375 C-10.93414498 20.43903345 -10.22884553 21.81664112 -8 24 C-4.91014801 24.39236216 -2.95281103 24.62164443 0 24 C2.31377147 22.10415891 2.31377147 22.10415891 4 20 C4.99 20 5.98 20 7 20 C6.79570164 23.6773705 6.22067989 24.80084985 3.4375 27.3125 C-0.61968351 29.30420827 -3.56951008 30.03260423 -8 29 C-11.80503026 26.87957565 -14.39262542 24.04766144 -16 20 C-16.68781032 14.7054601 -16.65484652 10.30969305 -14.25 5.5 C-9.87323977 0.63693308 -6.74635828 -1.16539778 0 0 Z " fill="#B1B6B9" transform="translate(238,858)"/>
<path d="M0 0 C1.20628008 2.33214148 2.1654738 4.49642139 3 7 C5.10584438 7.80563638 5.10584438 7.80563638 7.5625 8.1875 C8.38878906 8.34605469 9.21507812 8.50460937 10.06640625 8.66796875 C10.70449219 8.77753906 11.34257812 8.88710938 12 9 C7 14 2 19 -3 24 C-3.99 23.67 -4.98 23.34 -6 23 C-7.12862175 17.63904667 -7.09688221 12.44693314 -7 7 C-6.01 6.67 -5.02 6.34 -4 6 C-2.90833725 4.06669397 -2.90833725 4.06669397 -2 2 C-1.34 1.34 -0.68 0.68 0 0 Z " fill="#0E141F" transform="translate(448,447)"/>
<path d="M0 0 C0.78503906 0.00515625 1.57007813 0.0103125 2.37890625 0.015625 C3.55259766 0.00789062 3.55259766 0.00789062 4.75 0 C6.94140625 0.265625 6.94140625 0.265625 9.94140625 2.265625 C9.94140625 3.255625 9.94140625 4.245625 9.94140625 5.265625 C8.62140625 5.265625 7.30140625 5.265625 5.94140625 5.265625 C5.94140625 4.605625 5.94140625 3.945625 5.94140625 3.265625 C3.96140625 3.595625 1.98140625 3.925625 -0.05859375 4.265625 C-0.05859375 5.255625 -0.05859375 6.245625 -0.05859375 7.265625 C0.56789063 7.45898438 1.194375 7.65234375 1.83984375 7.8515625 C3.06574219 8.24214844 3.06574219 8.24214844 4.31640625 8.640625 C5.12851562 8.89585937 5.940625 9.15109375 6.77734375 9.4140625 C8.94140625 10.265625 8.94140625 10.265625 10.94140625 12.265625 C10.81640625 15.765625 10.81640625 15.765625 9.94140625 19.265625 C7.52527857 21.40296872 5.6710665 21.28976248 2.44140625 21.578125 C-1.18549184 21.25429481 -2.60858093 20.91163885 -5.05859375 18.265625 C-5.05859375 17.275625 -5.05859375 16.285625 -5.05859375 15.265625 C-1.18359375 16.140625 -1.18359375 16.140625 -0.05859375 17.265625 C2.27438058 17.30655437 4.6084585 17.30804223 6.94140625 17.265625 C6.43884513 15.25130234 6.43884513 15.25130234 4.94140625 13.265625 C2.62292751 12.5490043 0.28820922 11.88320473 -2.05859375 11.265625 C-4.05859375 10.015625 -4.05859375 10.015625 -5.05859375 8.265625 C-4.58878619 0.59210144 -4.58878619 0.59210144 0 0 Z " fill="#AFB2B7" transform="translate(762.05859375,865.734375)"/>
<path d="M0 0 C0.99 0 1.98 0 3 0 C3.33 0.66 3.66 1.32 4 2 C4.66 1.34 5.32 0.68 6 0 C11.68348624 -0.5412844 11.68348624 -0.5412844 14 0 C16.09759279 1.77778043 16.9015225 3.18291695 17.23168945 5.92236328 C17.2956771 8.20603404 17.26133779 10.46670828 17.1875 12.75 C17.16719727 13.93916016 17.16719727 13.93916016 17.14648438 15.15234375 C17.11125223 17.10185564 17.05744821 19.05101626 17 21 C15.68 21 14.36 21 13 21 C12.93941406 19.85660156 12.87882813 18.71320312 12.81640625 17.53515625 C12.73201572 16.04425695 12.64736698 14.55337225 12.5625 13.0625 C12.52318359 12.30775391 12.48386719 11.55300781 12.44335938 10.77539062 C12.55961976 7.08055813 12.55961976 7.08055813 11 4 C8.54190002 3.7499227 8.54190002 3.7499227 6 4 C3.15385976 6.84614024 3.54420924 9.80369142 3.375 13.625 C3.33632813 14.33140625 3.29765625 15.0378125 3.2578125 15.765625 C3.16352276 17.50998524 3.08067109 19.25495691 3 21 C2.01 21 1.02 21 0 21 C0 14.07 0 7.14 0 0 Z " fill="#B0B5BA" transform="translate(588,866)"/>
<path d="M0 0 C1.32 0 2.64 0 4 0 C4.33 5.61 4.66 11.22 5 17 C11.4 16.8 11.4 16.8 13 15 C13.23653523 12.47403741 13.42173692 9.96892793 13.5625 7.4375 C13.60568359 6.72658203 13.64886719 6.01566406 13.69335938 5.28320312 C13.79971777 3.52238088 13.90038846 1.7612168 14 0 C14.99 0 15.98 0 17 0 C17 6.93 17 13.86 17 21 C16.01 21 15.02 21 14 21 C13.67 20.34 13.34 19.68 13 19 C12.34 19.66 11.68 20.32 11 21 C7.625 21.4375 7.625 21.4375 4 21 C1.69262287 18.90460804 0.20372974 17.2322973 -0.31591797 14.08911133 C-0.39315714 11.94130706 -0.34975776 9.83421029 -0.25 7.6875 C-0.23195313 6.94693359 -0.21390625 6.20636719 -0.1953125 5.44335938 C-0.14847337 3.6283429 -0.07673789 1.81399834 0 0 Z " fill="#AFB5BB" transform="translate(735,866)"/>
<path d="M0 0 C0.99 0 1.98 0 3 0 C3 0.66 3 1.32 3 2 C3.99 1.34 4.98 0.68 6 0 C7.9375 -0.3359375 7.9375 -0.3359375 10 -0.375 C10.680625 -0.40335938 11.36125 -0.43171875 12.0625 -0.4609375 C14 0 14 0 15.73828125 1.4765625 C17.60693446 5.21386891 17.32051926 8.63663509 17.1875 12.75 C17.16719727 13.93916016 17.16719727 13.93916016 17.14648438 15.15234375 C17.11125223 17.10185564 17.05744821 19.05101626 17 21 C15.68 21 14.36 21 13 21 C12.93941406 19.85660156 12.87882812 18.71320312 12.81640625 17.53515625 C12.73201572 16.04425695 12.64736698 14.55337225 12.5625 13.0625 C12.52318359 12.30775391 12.48386719 11.55300781 12.44335938 10.77539062 C12.55961976 7.08055813 12.55961976 7.08055813 11 4 C8.54190002 3.7499227 8.54190002 3.7499227 6 4 C3.14206684 6.85793316 3.59200059 9.14665584 3.375 13.125 C3.30023438 14.40632812 3.22546875 15.68765625 3.1484375 17.0078125 C3.09945313 17.99523437 3.05046875 18.98265625 3 20 C2.01 20 1.02 20 0 20 C0 13.4 0 6.8 0 0 Z " fill="#A8ACB2" transform="translate(272,866)"/>
<path d="M0 0 C2.5 2 2.5 2 4 4 C3.67 4.66 3.34 5.32 3 6 C2.46375 5.690625 1.9275 5.38125 1.375 5.0625 C-1.3984957 3.82172561 -4.00042837 3.4090325 -7 3 C-6.84441127 4.94620656 -6.84441127 4.94620656 -6 7 C-3.96036036 8.31604529 -3.96036036 8.31604529 -1.5 9.1875 C2.95800525 10.95800525 2.95800525 10.95800525 4 12 C4.57416268 17.28229665 4.57416268 17.28229665 2.5 19.875 C-1.03995127 21.46797807 -4.18284365 21.72744988 -8 21 C-10.5 19.125 -10.5 19.125 -12 17 C-12 16.34 -12 15.68 -12 15 C-10.68 15 -9.36 15 -8 15 C-7.67 15.66 -7.34 16.32 -7 17 C-5.02 17 -3.04 17 -1 17 C-0.67 15.68 -0.34 14.36 0 13 C-1.258125 12.731875 -2.51625 12.46375 -3.8125 12.1875 C-6.23856525 11.56917541 -7.89556895 11.06853288 -10 9.6875 C-11.42215339 7.28761616 -11.41084195 5.73894636 -11 3 C-8.72432211 -1.12466618 -4.17834455 -0.79867753 0 0 Z " fill="#ACB0B5" transform="translate(305,866)"/>
<path d="M0 0 C0.99 0 1.98 0 3 0 C3.33 0.66 3.66 1.32 4 2 C4.33 1.34 4.66 0.68 5 0 C12.25868726 -0.48391248 12.25868726 -0.48391248 15.25 1.46875 C17.81164964 5.17399323 17.43923494 8.36120512 17.25 12.75 C17.23195313 13.54277344 17.21390625 14.33554687 17.1953125 15.15234375 C17.14833082 17.10208348 17.07659044 19.05119878 17 21 C15.68 21 14.36 21 13 21 C12.93941406 19.85660156 12.87882812 18.71320312 12.81640625 17.53515625 C12.73201572 16.04425695 12.64736698 14.55337225 12.5625 13.0625 C12.52318359 12.30775391 12.48386719 11.55300781 12.44335938 10.77539062 C12.55961976 7.08055813 12.55961976 7.08055813 11 4 C8.54190002 3.7499227 8.54190002 3.7499227 6 4 C3.14206684 6.85793316 3.59200059 9.14665584 3.375 13.125 C3.30023438 14.40632812 3.22546875 15.68765625 3.1484375 17.0078125 C3.09945313 17.99523437 3.05046875 18.98265625 3 20 C2.01 20 1.02 20 0 20 C0 13.4 0 6.8 0 0 Z " fill="#B4BAC0" transform="translate(378,866)"/>
<path d="M0 0 C0.7734375 -0.01675781 1.546875 -0.03351562 2.34375 -0.05078125 C5.00052926 0.3968283 5.88872529 1.18995543 7.5 3.3125 C7.5 3.9725 7.5 4.6325 7.5 5.3125 C3.87 4.9825 0.24 4.6525 -3.5 4.3125 C-3.5 5.3025 -3.5 6.2925 -3.5 7.3125 C-2.87351562 7.50585938 -2.24703125 7.69921875 -1.6015625 7.8984375 C-0.37566406 8.28902344 -0.37566406 8.28902344 0.875 8.6875 C1.68710937 8.94273437 2.49921875 9.19796875 3.3359375 9.4609375 C5.5 10.3125 5.5 10.3125 7.5 12.3125 C7.375 15.8125 7.375 15.8125 6.5 19.3125 C4.08387232 21.44984372 2.22966025 21.33663748 -1 21.625 C-4.62689809 21.30116981 -6.04998718 20.95851385 -8.5 18.3125 C-8.5 17.3225 -8.5 16.3325 -8.5 15.3125 C-4.625 16.1875 -4.625 16.1875 -3.5 17.3125 C-1.50041636 17.35330783 0.50045254 17.35504356 2.5 17.3125 C2.5 15.9925 2.5 14.6725 2.5 13.3125 C1.86191406 13.10753906 1.22382813 12.90257812 0.56640625 12.69140625 C-0.25988281 12.42199219 -1.08617187 12.15257812 -1.9375 11.875 C-2.76121094 11.60816406 -3.58492188 11.34132813 -4.43359375 11.06640625 C-6.5 10.3125 -6.5 10.3125 -7.5 9.3125 C-7.75 5.875 -7.75 5.875 -7.5 2.3125 C-4.40219052 0.24729368 -3.5459519 0.01772976 0 0 Z " fill="#B7BABE" transform="translate(330.5,865.6875)"/>
<path d="M0 0 C3.4375 1 3.4375 1 5.4375 2.625 C6.90731805 6.11581787 6.42163921 8.39148956 5.4375 12 C3.31878452 14.34572071 2.0349873 14.89543972 -1.0625 15.4375 C-3.5625 15 -3.5625 15 -5.875 13.4375 C-8.20476201 10.07228821 -8.13539582 8.01027077 -7.5625 4 C-5.30132583 0.38212133 -4.292718 0 0 0 Z " fill="#A761EF" transform="translate(515.5625,498)"/>
<path d="M0 0 C3.1875 0.3125 3.1875 0.3125 5.5625 1.875 C7.1875 4.3125 7.1875 4.3125 7.1875 11.3125 C2.5675 11.3125 -2.0525 11.3125 -6.8125 11.3125 C-5.35961014 15.8966963 -5.35961014 15.8966963 -3.8125 17.3125 C-0.07591315 16.88949017 3.56403234 16.32707095 7.1875 15.3125 C5.81766497 18.47365776 5.1984362 19.3052092 2.1875 21.3125 C-2.09732877 21.86794077 -4.10945542 21.77621025 -7.75 19.375 C-10.51727383 15.26601764 -10.28388774 12.12065498 -9.8125 7.3125 C-9.1525 7.3125 -8.4925 7.3125 -7.8125 7.3125 C-7.4825 6.6525 -7.1525 5.9925 -6.8125 5.3125 C-6.8125 6.3025 -6.8125 7.2925 -6.8125 8.3125 C-3.5125 8.3125 -0.2125 8.3125 3.1875 8.3125 C1.30800295 4.74145561 0.01696843 2.76505699 -3.8125 1.3125 C-2.8125 0.3125 -2.8125 0.3125 0 0 Z " fill="#BCC0C4" transform="translate(640.8125,865.6875)"/>
<path d="M0 0 C0 1.32 0 2.64 0 4 C-1.65 4 -3.3 4 -5 4 C-5 5.32 -5 6.64 -5 8 C-3.68 8 -2.36 8 -1 8 C-1 9.32 -1 10.64 -1 12 C-2.32 12 -3.64 12 -5 12 C-5 17.94 -5 23.88 -5 30 C-6.32 30 -7.64 30 -9 30 C-9 24.06 -9 18.12 -9 12 C-10.32 12 -11.64 12 -13 12 C-12.67 10.68 -12.34 9.36 -12 8 C-11.01 8 -10.02 8 -9 8 C-9.061875 7.236875 -9.12375 6.47375 -9.1875 5.6875 C-9 3 -9 3 -7.875 1.1875 C-5.22464043 -0.49106106 -3.06753576 -0.20450238 0 0 Z " fill="#AAAFB5" transform="translate(494,857)"/>
<path d="M0 0 C2.7301041 0.51953474 4.28392836 1.27386427 6.09375 3.3984375 C6.09375 4.3884375 6.09375 5.3784375 6.09375 6.3984375 C4.77375 6.3984375 3.45375 6.3984375 2.09375 6.3984375 C1.76375 5.7384375 1.43375 5.0784375 1.09375 4.3984375 C-1.82277174 4.23162641 -1.82277174 4.23162641 -4.90625 4.3984375 C-7.07137323 6.15318812 -7.07137323 6.15318812 -7.13671875 8.2734375 C-7.12253906 8.9746875 -7.10835937 9.6759375 -7.09375 10.3984375 C-7.08730469 11.0996875 -7.08085938 11.8009375 -7.07421875 12.5234375 C-7.01331133 14.48900123 -7.01331133 14.48900123 -5.90625 16.3984375 C-3.59625 16.3984375 -1.28625 16.3984375 1.09375 16.3984375 C1.42375 15.7384375 1.75375 15.0784375 2.09375 14.3984375 C3.41375 14.3984375 4.73375 14.3984375 6.09375 14.3984375 C4.84398244 18.05160421 4.42276247 19.17909586 1.09375 21.3984375 C-2.28125 21.8359375 -2.28125 21.8359375 -5.90625 21.3984375 C-10.02223872 17.9982729 -11.75072949 15.95364261 -12.28125 10.6484375 C-12.218431 7.51890893 -11.76057761 5.48458044 -9.96875 2.8984375 C-6.34386282 -0.06065408 -4.5402139 -0.31781497 0 0 Z " fill="#B0B4BA" transform="translate(620.90625,865.6015625)"/>
<path d="M0 0 C3.0625 0.5 3.0625 0.5 5.4375 2.0625 C7.68590519 5.43510779 7.63033945 7.52512383 7.0625 11.5 C5.09179117 14.34657942 3.93896044 15.3027964 0.5625 16.0625 C-1.9375 15.5 -1.9375 15.5 -4.25 13.375 C-6.22319575 10.01325909 -6.50854749 8.33417603 -5.9375 4.5 C-4.37581884 1.20311756 -3.62602767 0.6171962 0 0 Z " fill="#AB64F0" transform="translate(513.9375,382.5)"/>
<path d="M0 0 C6.93 0 13.86 0 21 0 C21 1.32 21 2.64 21 4 C18.03 4 15.06 4 12 4 C12 11.92 12 19.84 12 28 C11.01 28 10.02 28 9 28 C9 20.08 9 12.16 9 4 C6.03 4 3.06 4 0 4 C0 2.68 0 1.36 0 0 Z " fill="#A7ADB4" transform="translate(697,858)"/>
<path d="M0 0 C2.375 1.625 2.375 1.625 4 4 C4.44912849 7.14389944 4.504106 9.05480125 3 11.875 C-0.22174836 13.68723346 -3.39862897 13.5327028 -7 13 C-9 11.9375 -9 11.9375 -10 10 C-10.4375 6.5 -10.4375 6.5 -10 3 C-7.15718952 -0.3895048 -4.25588004 -0.62064917 0 0 Z " fill="#AE68F5" transform="translate(460,442)"/>
<path d="M0 0 C3 0.4375 3 0.4375 4.875 1.4375 C6.68719102 4.65917292 6.63360845 7.89214037 6 11.4375 C4.375 14 4.375 14 2 15.4375 C-1.125 15.4375 -1.125 15.4375 -4 14.4375 C-5.8963031 12.11021892 -6.00123599 10.42563451 -6.3125 7.4375 C-5.82532304 2.76060122 -4.80493468 0.70071964 0 0 Z " fill="#232934" transform="translate(258,868.5625)"/>
<path d="M0 0 C2.4294516 3.6441774 2.16179575 5.71241272 2 10 C6.65052872 10.26932521 6.65052872 10.26932521 11 9 C10.67 7.68 10.34 6.36 10 5 C10.99 4.67 11.98 4.34 13 4 C13.66 4.33 14.32 4.66 15 5 C15.33 3.35 15.66 1.7 16 0 C16.99 0 17.98 0 19 0 C18.89300781 0.67546875 18.78601563 1.3509375 18.67578125 2.046875 C18.55589844 2.93890625 18.43601562 3.8309375 18.3125 4.75 C18.12107422 6.07257812 18.12107422 6.07257812 17.92578125 7.421875 C18.01602809 10.55676517 18.92615363 11.71823587 21 14 C18.46653542 14.07037402 16.2762137 14.07102638 13.8125 13.4375 C11.91567768 12.77357897 11.91567768 12.77357897 10 14 C2.89398281 14.5730659 2.89398281 14.5730659 -0.4375 12.4375 C-2.49736105 9.22411676 -2.93089046 6.80102443 -3 3 C-1.5625 1.0625 -1.5625 1.0625 0 0 Z " fill="#B6BABD" transform="translate(664,873)"/>
<path d="M0 0 C3 0.5 3 0.5 4.875 2.125 C6.63642257 5.84355875 6.43462681 8.8918808 5.375 12.8125 C4 14.5 4 14.5 0.875 15.25 C-0.548125 15.37375 -0.548125 15.37375 -2 15.5 C-4.54808744 12.79265709 -5.90475283 11.16673022 -6.4375 7.4375 C-5.74794658 2.80764131 -4.76959147 0.79493191 0 0 Z " fill="#232935" transform="translate(505,868.5)"/>
<path d="M0 0 C1.32 0 2.64 0 4 0 C4 1.65 4 3.3 4 5 C5.32 5 6.64 5 8 5 C8 5.99 8 6.98 8 8 C6.68 8 5.36 8 4 8 C4 12.62 4 17.24 4 22 C5.32 22 6.64 22 8 22 C8 23.32 8 24.64 8 26 C5.125 26.1875 5.125 26.1875 2 26 C-0.45391569 22.31912647 -0.22802759 19.55644412 -0.125 15.3125 C-0.11597656 14.61060547 -0.10695313 13.90871094 -0.09765625 13.18554688 C-0.07413704 11.45688475 -0.03826713 9.72839855 0 8 C-1.32 8 -2.64 8 -4 8 C-4 7.01 -4 6.02 -4 5 C-2.68 5 -1.36 5 0 5 C0 3.35 0 1.7 0 0 Z " fill="#C6C8C9" transform="translate(344,861)"/>
<path d="M0 0 C1.32 0 2.64 0 4 0 C4 1.98 4 3.96 4 6 C5.32 6 6.64 6 8 6 C8 6.99 8 7.98 8 9 C6.68 9 5.36 9 4 9 C4 13.62 4 18.24 4 23 C5.32 23 6.64 23 8 23 C8 24.32 8 25.64 8 27 C5.6875 27.25 5.6875 27.25 3 27 C0.39753483 24.54484418 0.01266003 23.14921951 -0.29296875 19.546875 C-0.25816406 18.29390625 -0.22335937 17.0409375 -0.1875 15.75 C-0.16042969 14.48671875 -0.13335938 13.2234375 -0.10546875 11.921875 C-0.07066406 10.95765625 -0.03585937 9.9934375 0 9 C-0.99 9 -1.98 9 -3 9 C-3 8.01 -3 7.02 -3 6 C-2.01 6 -1.02 6 0 6 C0 4.02 0 2.04 0 0 Z " fill="#B1B7BC" transform="translate(778,860)"/>
<path d="M0 0 C1.32 0 2.64 0 4 0 C4 1.65 4 3.3 4 5 C5.32 5 6.64 5 8 5 C8 5.99 8 6.98 8 8 C6.68 8 5.36 8 4 8 C4.33 12.62 4.66 17.24 5 22 C5.99 22.33 6.98 22.66 8 23 C8 23.99 8 24.98 8 26 C3.57608696 26.35869565 3.57608696 26.35869565 1.34375 24.96875 C-0.72035873 21.9445907 -0.3157224 18.83368446 -0.1875 15.3125 C-0.16719727 14.2596582 -0.16719727 14.2596582 -0.14648438 13.18554688 C-0.11120182 11.45670171 -0.05739583 9.72825235 0 8 C-0.99 8 -1.98 8 -3 8 C-3 7.01 -3 6.02 -3 5 C-2.01 5 -1.02 5 0 5 C0 3.35 0 1.7 0 0 Z " fill="#B5BBC1" transform="translate(401,861)"/>
<path d="M0 0 C0.7425 1.1446875 0.7425 1.1446875 1.5 2.3125 C4.76726846 5.82481359 7.4628744 6.56324356 12 8 C11.67 9.65 11.34 11.3 11 13 C9.02 13 7.04 13 5 13 C4.67 12.01 4.34 11.02 4 10 C2.68 10 1.36 10 0 10 C0.66 11.32 1.32 12.64 2 14 C1.01 14.495 1.01 14.495 0 15 C-0.99 14.67 -1.98 14.34 -3 14 C-3.33 14.66 -3.66 15.32 -4 16 C-4 11.38 -4 6.76 -4 2 C-2.68 1.34 -1.36 0.68 0 0 Z " fill="#1F2430" transform="translate(293,871)"/>
<path d="M0 0 C1.423125 -0.061875 2.84625 -0.12375 4.3125 -0.1875 C5.51326172 -0.23970703 5.51326172 -0.23970703 6.73828125 -0.29296875 C9 0 9 0 10.8046875 1.28515625 C12 3 12 3 11.8125 6.625 C11.544375 7.73875 11.27625 8.8525 11 10 C7.57067929 11.71466036 3.78283935 11.05404056 0 11 C0 7.37 0 3.74 0 0 Z " fill="#232936" transform="translate(427,862)"/>
<path d="M0 0 C1.32 0 2.64 0 4 0 C4 1.32 4 2.64 4 4 C2.02 4.66 0.04 5.32 -2 6 C-2.33 11.28 -2.66 16.56 -3 22 C-4.32 22 -5.64 22 -7 22 C-7 15.07 -7 8.14 -7 1 C-4.525 1.495 -4.525 1.495 -2 2 C-1.34 1.34 -0.68 0.68 0 0 Z " fill="#AAB0B6" transform="translate(728,865)"/>
<path d="M0 0 C2.475 0.495 2.475 0.495 5 1 C5.33 0.67 5.66 0.34 6 0 C7.99958364 -0.04080783 10.00045254 -0.04254356 12 0 C12 0.99 12 1.98 12 3 C9.69 3.66 7.38 4.32 5 5 C4.67 10.28 4.34 15.56 4 21 C2.68 21 1.36 21 0 21 C0 14.07 0 7.14 0 0 Z " fill="#AFB4BA" transform="translate(468,866)"/>
<path d="M0 0 C3.625 0.375 3.625 0.375 5.8359375 1.8515625 C8.45450896 5.54500609 8.06501326 8.71815409 7.875 13.125 C7.85695313 13.91777344 7.83890625 14.71054687 7.8203125 15.52734375 C7.77333082 17.47708348 7.70159044 19.42619878 7.625 21.375 C6.305 21.375 4.985 21.375 3.625 21.375 C3.295 16.095 2.965 10.815 2.625 5.375 C0.975 5.045 -0.675 4.715 -2.375 4.375 C-3.365 3.715 -4.355 3.055 -5.375 2.375 C-3.375 0.375 -3.375 0.375 0 0 Z " fill="#ADB1B6" transform="translate(554.375,865.625)"/>
<path d="M0 0 C3.4375 1.6875 3.4375 1.6875 6 4 C6.875 6.75 6.875 6.75 7 9 C5.68 9 4.36 9 3 9 C2.67 7.68 2.34 6.36 2 5 C0.3973218 4.89175157 -1.20745748 4.81429355 -2.8125 4.75 C-4.15248047 4.68039062 -4.15248047 4.68039062 -5.51953125 4.609375 C-8.11257568 4.7714436 -8.11257568 4.7714436 -9.78125 6.75 C-11.03437612 9.0634636 -11.47059662 10.64715949 -11.6875 13.25 C-11.790625 14.4875 -11.89375 15.725 -12 17 C-12.33 17 -12.66 17 -13 17 C-13.22786458 14.98177083 -13.45572917 12.96354167 -13.68359375 10.9453125 C-13.91292961 8.92595684 -13.91292961 8.92595684 -15 7 C-10.34214865 1.23897333 -7.86125591 -1.05011211 0 0 Z " fill="#ADB1B8" transform="translate(238,858)"/>
<path d="M0 0 C-0.1875 3.3125 -0.1875 3.3125 -1 7 C-3.56512764 9.20885991 -5.29071619 9.89867374 -8.625 10.375 C-11 10 -11 10 -12.875 8.75 C-14 7 -14 7 -13.8125 4.9375 C-13 3 -13 3 -11 1 C-7.25370961 0.30624252 -3.81446899 0 0 0 Z " fill="#282E3B" transform="translate(501,801)"/>
<path d="M0 0 C2.4375 1.75 2.4375 1.75 4 4 C4 5.32 4 6.64 4 8 C-0.95 8 -5.9 8 -11 8 C-10 3 -10 3 -8.875 1.1875 C-5.84814901 -0.72950563 -3.4846244 -0.42793633 0 0 Z " fill="#252D3A" transform="translate(424,787)"/>
<path d="M0 0 C4.875 2.75 4.875 2.75 6 5 C6.039992 6.99960012 6.04346799 9.00047242 6 11 C5.45859375 10.84660156 4.9171875 10.69320312 4.359375 10.53515625 C1.65295977 9.92128392 -0.9850509 9.66791243 -3.75 9.4375 C-4.73484375 9.35371094 -5.7196875 9.26992188 -6.734375 9.18359375 C-7.48203125 9.12300781 -8.2296875 9.06242188 -9 9 C-7.48358862 4.38183807 -7.48358862 4.38183807 -5.2734375 2.63671875 C-3.515625 1.7578125 -1.7578125 0.87890625 0 0 Z " fill="#A5A9AE" transform="translate(367,866)"/>
<path d="M0 0 C3 2.125 3 2.125 5 5 C5 6.98 5 8.96 5 11 C1.04 11 -2.92 11 -7 11 C-5 9 -5 9 -1.375 8.875 C0.295625 8.936875 0.295625 8.936875 2 9 C0.9354148 6.39056942 0.9354148 6.39056942 -1 4 C-4.12635209 3.58253392 -4.12635209 3.58253392 -7 4 C-8.32 6.31 -9.64 8.62 -11 11 C-11.33 11 -11.66 11 -12 11 C-12.48241206 3.64321608 -12.48241206 3.64321608 -10.5 1 C-6.94605752 -0.42157699 -3.72185858 -0.7812218 0 0 Z " fill="#BBBFC3" transform="translate(459,866)"/>
<path d="M0 0 C1.8125 1.1875 1.8125 1.1875 3 3 C3.4334014 5.88934264 3.42525784 7.35092224 1.8125 9.8125 C-0.64907776 11.42525784 -2.11065736 11.4334014 -5 11 C-6.8125 9.8125 -6.8125 9.8125 -8 8 C-8.4334014 5.11065736 -8.42525784 3.64907776 -6.8125 1.1875 C-4.35092224 -0.42525784 -2.88934264 -0.4334014 0 0 Z " fill="#E6E7E9" transform="translate(604,764)"/>
<path d="M0 0 C1.8125 1.1875 1.8125 1.1875 3 3 C3.4334014 5.88934264 3.42525784 7.35092224 1.8125 9.8125 C-0.64907776 11.42525784 -2.11065736 11.4334014 -5 11 C-6.8125 9.8125 -6.8125 9.8125 -8 8 C-8.4334014 5.11065736 -8.42525784 3.64907776 -6.8125 1.1875 C-4.35092224 -0.42525784 -2.88934264 -0.4334014 0 0 Z " fill="#E7E8E9" transform="translate(568,764)"/>
<path d="M0 0 C0.33 0 0.66 0 1 0 C1 4.95 1 9.9 1 15 C-0.32 14.67 -1.64 14.34 -3 14 C-3.99 14.66 -4.98 15.32 -6 16 C-9.12026907 16.32502803 -11.14747535 16.51151479 -13.875 14.875 C-15.4682099 12.21965017 -15.20214032 10.03210482 -15 7 C-13.68 7 -12.36 7 -11 7 C-10.67 8.65 -10.34 10.3 -10 12 C-8.02 11.67 -6.04 11.34 -4 11 C-3.34 8.69 -2.68 6.38 -2 4 C-1.34 4 -0.68 4 0 4 C0 2.68 0 1.36 0 0 Z " fill="#B7BCC2" transform="translate(581,871)"/>
<path d="M0 0 C2.4375 0.75 2.4375 0.75 4.4375 2.75 C4.0625 6.375 4.0625 6.375 3.4375 9.75 C-2.94957103 11.07561852 -2.94957103 11.07561852 -5.5625 9.6875 C-7.07889353 6.74948754 -6.48543717 4.84843192 -5.5625 1.75 C-2.5625 -0.25 -2.5625 -0.25 0 0 Z " fill="#E9EAEB" transform="translate(467.5625,764.25)"/>
<path d="M0 0 C0.78375 0.04125 1.5675 0.0825 2.375 0.125 C2.375 1.445 2.375 2.765 2.375 4.125 C1.405625 4.434375 0.43625 4.74375 -0.5625 5.0625 C-3.46565792 5.82023342 -3.46565792 5.82023342 -4.625 7.125 C-4.86027773 9.47487262 -5.03886417 11.83056039 -5.1875 14.1875 C-5.27128906 15.47785156 -5.35507812 16.76820313 -5.44140625 18.09765625 C-5.50199219 19.09667969 -5.56257812 20.09570312 -5.625 21.125 C-6.615 21.125 -7.605 21.125 -8.625 21.125 C-8.625 14.525 -8.625 7.925 -8.625 1.125 C-7.305 1.455 -5.985 1.785 -4.625 2.125 C-2.625 0.125 -2.625 0.125 0 0 Z " fill="#B9BDC3" transform="translate(527.625,864.875)"/>
<path d="M0 0 C1.32 0 2.64 0 4 0 C4 6.93 4 13.86 4 21 C2.68 21 1.36 21 0 21 C0 14.07 0 7.14 0 0 Z " fill="#ABAFB1" transform="translate(314,866)"/>
<path d="M0 0 C-1.98 0.99 -1.98 0.99 -4 2 C-3.195625 2.4125 -2.39125 2.825 -1.5625 3.25 C1 5 1 5 1.66015625 7.109375 C1.77230469 7.73328125 1.88445313 8.3571875 2 9 C0.39592672 9.02708567 -1.2082785 9.04643483 -2.8125 9.0625 C-4.15248047 9.07990234 -4.15248047 9.07990234 -5.51953125 9.09765625 C-8 9 -8 9 -11 8 C-11 10.31 -11 12.62 -11 15 C-11.33 15 -11.66 15 -12 15 C-12.66964286 7.23214286 -12.66964286 7.23214286 -9.625 3.5625 C-6.14787726 0.1681659 -4.72585948 -0.12436472 0 0 Z " fill="#9EA1A8" transform="translate(642,865)"/>
<path d="M0 0 C3.22821371 2.6352765 4.73635815 4.06431379 5.296875 8.1796875 C5.3125 10.375 5.3125 10.375 5 14 C4.34 12.68 3.68 11.36 3 10 C2.01 11.485 2.01 11.485 1 13 C0.87625 11.88625 0.7525 10.7725 0.625 9.625 C0.3534187 5.96896323 0.3534187 5.96896323 -2 4 C-6.84749424 3.44914838 -9.81168576 4.60667758 -14 7 C-11.56621577 -0.11413851 -7.04943914 -1.38272712 0 0 Z " fill="#B3B6BA" transform="translate(263,866)"/>
<path d="M0 0 C0.33 0 0.66 0 1 0 C1.4375 2.6875 1.4375 2.6875 1 6 C-1.75733545 9.01437519 -4.74173981 10.77122542 -8.75 11.5 C-11.46166803 10.8974071 -12.44192897 10.29610468 -14 8 C-14 6.68 -14 5.36 -14 4 C-9.38 4 -4.76 4 0 4 C0 2.68 0 1.36 0 0 Z " fill="#303742" transform="translate(464,873)"/>
<path d="M0 0 C2.15625 0.3359375 2.15625 0.3359375 5.15625 2.3359375 C5.15625 3.3259375 5.15625 4.3159375 5.15625 5.3359375 C3.83625 5.3359375 2.51625 5.3359375 1.15625 5.3359375 C1.15625 4.6759375 1.15625 4.0159375 1.15625 3.3359375 C-0.82375 3.6659375 -2.80375 3.9959375 -4.84375 4.3359375 C-4.84375 5.3259375 -4.84375 6.3159375 -4.84375 7.3359375 C-3.52375 7.9959375 -2.20375 8.6559375 -0.84375 9.3359375 C-2.16375 9.3359375 -3.48375 9.3359375 -4.84375 9.3359375 C-4.84375 9.9959375 -4.84375 10.6559375 -4.84375 11.3359375 C-6.78125 10.6484375 -6.78125 10.6484375 -8.84375 9.3359375 C-10.00096788 6.40431887 -10.08588298 4.97586038 -8.96875 2.0234375 C-6.01332821 -0.3235151 -3.6803702 -0.0613395 0 0 Z " fill="#A9ADB1" transform="translate(766.84375,865.6640625)"/>
<path d="M0 0 C0.33 1.32 0.66 2.64 1 4 C-4.98121945 9.79161307 -4.98121945 9.79161307 -8.75 10.5625 C-11.43181537 9.89204616 -12.4481653 9.28691429 -14 7 C-14 5.68 -14 4.36 -14 3 C-9.38 3 -4.76 3 0 3 C0 2.01 0 1.02 0 0 Z " fill="#292E3A" transform="translate(373,874)"/>
<path d="M0 0 C3.36591866 1.44253657 5.51047079 3.33264727 8 6 C7.67 6.99 7.34 7.98 7 9 C0.57451737 10.33359073 0.57451737 10.33359073 -1.9375 8.875 C-3.35140315 6.37987679 -3.43413997 4.82190981 -3 2 C-2.01 1.34 -1.02 0.68 0 0 Z " fill="#202632" transform="translate(668,874)"/>
<path d="M0 0 C0.99 0 1.98 0 3 0 C3 7.92 3 15.84 3 24 C2.01 24 1.02 24 0 24 C0 16.08 0 8.16 0 0 Z " fill="#C3C8CC" transform="translate(706,862)"/>
<path d="M0 0 C0.33 0 0.66 0 1 0 C1 1.65 1 3.3 1 5 C2.32 5 3.64 5 5 5 C5 5.99 5 6.98 5 8 C3.68 8 2.36 8 1 8 C1 12.62 1 17.24 1 22 C2.32 22 3.64 22 5 22 C5 23.32 5 24.64 5 26 C2.125 26.1875 2.125 26.1875 -1 26 C-3.1519437 22.77208445 -3.20086443 21.71599191 -3 18 C-2.67 18.99 -2.34 19.98 -2 21 C-1.34 21 -0.68 21 0 21 C0 14.07 0 7.14 0 0 Z " fill="#9DA2A8" transform="translate(347,861)"/>
<path d="M0 0 C0.66 0.33 1.32 0.66 2 1 C2.48 6.4 2.48 6.4 0.5 8.875 C-3.03995127 10.46797807 -6.18284365 10.72744988 -10 10 C-12.5 8.125 -12.5 8.125 -14 6 C-14 5.34 -14 4.68 -14 4 C-12.68 4 -11.36 4 -10 4 C-9.67 4.66 -9.34 5.32 -9 6 C-7.02 6 -5.04 6 -3 6 C-2.01 4.02 -1.02 2.04 0 0 Z " fill="#B2B8BB" transform="translate(307,877)"/>
<path d="M0 0 C0.99 0 1.98 0 3 0 C3.99440216 4.7289347 3.96565891 9.09270118 3.5625 13.875 C3.48418945 14.90753906 3.48418945 14.90753906 3.40429688 15.9609375 C3.27594902 17.64112758 3.13887775 19.32064749 3 21 C2.01 21 1.02 21 0 21 C0 14.07 0 7.14 0 0 Z " fill="#B9C0C5" transform="translate(588,866)"/>
<path d="M0 0 C0.99 0 1.98 0 3 0 C3 6.93 3 13.86 3 21 C2.01 21 1.02 21 0 21 C-0.99440216 16.2710653 -0.96565891 11.90729882 -0.5625 7.125 C-0.51029297 6.43664062 -0.45808594 5.74828125 -0.40429688 5.0390625 C-0.27594902 3.35887242 -0.13887775 1.67935251 0 0 Z " fill="#C0C4C7" transform="translate(749,866)"/>
<path d="M0 0 C2.4294516 3.6441774 2.16179575 5.71241272 2 10 C0.35 10.33 -1.3 10.66 -3 11 C-3 8.03 -3 5.06 -3 2 C-6.63 1.67 -10.26 1.34 -14 1 C-14 0.67 -14 0.34 -14 0 C-4.31186733 -2.74391557 -4.31186733 -2.74391557 0 0 Z M-5 11 C-4.01 11.495 -4.01 11.495 -3 12 C-3.99 12.495 -3.99 12.495 -5 13 C-5 12.34 -5 11.68 -5 11 Z " fill="#B7B9BD" transform="translate(441,861)"/>
<path d="M0 0 C0 5.61 0 11.22 0 17 C-1.32 17 -2.64 17 -4 17 C-4.08097324 14.72975032 -4.13917704 12.45867925 -4.1875 10.1875 C-4.22230469 8.92292969 -4.25710938 7.65835938 -4.29296875 6.35546875 C-4 3 -4 3 -2.55078125 1.05078125 C-1 0 -1 0 0 0 Z " fill="#A8AFB6" transform="translate(395,870)"/>
<path d="M0 0 C0.99 0 1.98 0 3 0 C3.95946595 4.61965088 3.96102244 8.68129125 3.5625 13.375 C3.46066406 14.62023437 3.35882813 15.86546875 3.25390625 17.1484375 C3.17011719 18.08945312 3.08632813 19.03046875 3 20 C2.01 20 1.02 20 0 20 C0 13.4 0 6.8 0 0 Z " fill="#C3C6C9" transform="translate(272,866)"/>
<path d="M0 0 C0.33 0 0.66 0 1 0 C1.33 3.3 1.66 6.6 2 10 C2.66 9.67 3.32 9.34 4 9 C4 12.96 4 16.92 4 21 C2.68 21 1.36 21 0 21 C0 14.07 0 7.14 0 0 Z " fill="#9BA2A9" transform="translate(533,866)"/>
<path d="M0 0 C3.1875 0.3125 3.1875 0.3125 5.625 2.0625 C7.1875 4.3125 7.1875 4.3125 7.125 6.4375 C6.1875 8.3125 6.1875 8.3125 3.1875 10.3125 C0.70703125 10.2890625 0.70703125 10.2890625 -2 9.9375 C-2.90105469 9.82664062 -3.80210937 9.71578125 -4.73046875 9.6015625 C-5.41753906 9.50617187 -6.10460937 9.41078125 -6.8125 9.3125 C-6.8125 8.9825 -6.8125 8.6525 -6.8125 8.3125 C-3.5125 8.3125 -0.2125 8.3125 3.1875 8.3125 C1.30800295 4.74145561 0.01696843 2.76505699 -3.8125 1.3125 C-2.8125 0.3125 -2.8125 0.3125 0 0 Z " fill="#A9ABB1" transform="translate(640.8125,865.6875)"/>
<path d="M0 0 C1.134375 0.020625 2.26875 0.04125 3.4375 0.0625 C3.125 2.4375 3.125 2.4375 2.4375 5.0625 C-0.5625 7.0625 -0.5625 7.0625 -3.25 6.6875 C-4.013125 6.48125 -4.77625 6.275 -5.5625 6.0625 C-4.48849278 0.07874549 -4.48849278 0.07874549 0 0 Z " fill="#2A303B" transform="translate(575.5625,876.9375)"/>
<path d="M0 0 C0.33 1.32 0.66 2.64 1 4 C2.77049689 4.05410687 4.54146849 4.09284119 6.3125 4.125 C7.79169922 4.15980469 7.79169922 4.15980469 9.30078125 4.1953125 C12.22406527 4.20682639 12.22406527 4.20682639 15 2 C15 3.32 15 4.64 15 6 C14.02417969 6.03738281 13.04835938 6.07476563 12.04296875 6.11328125 C10.13451172 6.21189453 10.13451172 6.21189453 8.1875 6.3125 C6.29064453 6.39951172 6.29064453 6.39951172 4.35546875 6.48828125 C1.03396307 6.7113494 1.03396307 6.7113494 -0.94921875 8.54296875 C-1.29597656 9.02378906 -1.64273438 9.50460937 -2 10 C-2 7.36 -2 4.72 -2 2 C-1.34 2 -0.68 2 0 2 C0 1.34 0 0.68 0 0 Z " fill="#C0C3C5" transform="translate(633,871)"/>
<path d="M0 0 C-0.86625 0.61875 -0.86625 0.61875 -1.75 1.25 C-6.18232562 4.69736437 -8.66163164 7.85558961 -11 13 C-11.33 13 -11.66 13 -12 13 C-12.47761194 5.95522388 -12.47761194 5.95522388 -10.5 2 C-6.88152311 -0.89478151 -4.54718722 -0.37893227 0 0 Z " fill="#BABEC3" transform="translate(508,866)"/>
<path d="M0 0 C1.32 0 2.64 0 4 0 C2.63016497 3.16115776 2.0109362 3.9927092 -1 6 C-3.04296875 6.1953125 -3.04296875 6.1953125 -5.1875 6.125 C-7.0746875 6.063125 -7.0746875 6.063125 -9 6 C-9.66 4.68 -10.32 3.36 -11 2 C-10.06027344 2.03480469 -10.06027344 2.03480469 -9.1015625 2.0703125 C-7.87566406 2.09738281 -7.87566406 2.09738281 -6.625 2.125 C-5.40683594 2.15980469 -5.40683594 2.15980469 -4.1640625 2.1953125 C-1.78657757 2.21370051 -1.78657757 2.21370051 0 0 Z " fill="#ACB1B7" transform="translate(460,881)"/>
<path d="M0 0 C0.99 0.33 1.98 0.66 3 1 C2.67 1.99 2.34 2.98 2 4 C-5.04017857 7.33482143 -5.04017857 7.33482143 -8.6875 6.0625 C-9.450625 5.711875 -10.21375 5.36125 -11 5 C-10.67 3.68 -10.34 2.36 -10 1 C-5.78121808 0.80377759 -2.82989106 1.19769832 1 3 C0.67 2.01 0.34 1.02 0 0 Z " fill="#2D313E" transform="translate(337,868)"/>
<path d="M0 0 C0.66 0 1.32 0 2 0 C2 5.28 2 10.56 2 16 C1.01 16 0.02 16 -1 16 C-1.02685095 13.52076199 -1.04676547 11.0418116 -1.0625 8.5625 C-1.07506836 7.50192383 -1.07506836 7.50192383 -1.08789062 6.41992188 C-1.09653588 4.61306441 -1.05220011 2.80612397 -1 1 C-0.67 0.67 -0.34 0.34 0 0 Z " fill="#BBBFC4" transform="translate(287,870)"/>
<path d="M0 0 C0.33 0 0.66 0 1 0 C1.33 5.94 1.66 11.88 2 18 C2.99 17.01 3.98 16.02 5 15 C5.66 15 6.32 15 7 15 C7 15.66 7 16.32 7 17 C6.34 17 5.68 17 5 17 C5.33 18.98 5.66 20.96 6 23 C5.01 23.33 4.02 23.66 3 24 C0.89592904 22.30363829 0.06759322 21.45018536 -0.34057617 18.73168945 C-0.32486572 17.86761475 -0.30915527 17.00354004 -0.29296875 16.11328125 C-0.28330078 15.17548828 -0.27363281 14.23769531 -0.26367188 13.27148438 C-0.23853516 12.29501953 -0.21339844 11.31855469 -0.1875 10.3125 C-0.17396484 9.32443359 -0.16042969 8.33636719 -0.14648438 7.31835938 C-0.11112203 4.87835769 -0.06177033 2.43945281 0 0 Z " fill="#CFD1D4" transform="translate(527,766)"/>
<path d="M0 0 C0.99 0 1.98 0 3 0 C2.68762196 2.88949684 2.35661121 4.58633099 0.4375 6.8125 C-3.1419213 8.55632063 -6.04179842 8.19791008 -10 8 C-10 7.34 -10 6.68 -10 6 C-9.16855469 5.72736328 -9.16855469 5.72736328 -8.3203125 5.44921875 C-7.59585938 5.19785156 -6.87140625 4.94648437 -6.125 4.6875 C-5.40570313 4.44386719 -4.68640625 4.20023438 -3.9453125 3.94921875 C-1.66005095 3.03664453 -1.66005095 3.03664453 0 0 Z " fill="#B4B8BD" transform="translate(242,878)"/>
<path d="M0 0 C0.99773438 0.02320313 1.99546875 0.04640625 3.0234375 0.0703125 C4.52777344 0.09738281 4.52777344 0.09738281 6.0625 0.125 C6.83335937 0.14820313 7.60421875 0.17140625 8.3984375 0.1953125 C8.3984375 0.8553125 8.3984375 1.5153125 8.3984375 2.1953125 C1.7299883 5.91723763 1.7299883 5.91723763 -2.6015625 5.1953125 C-3.2615625 4.2053125 -3.9215625 3.2153125 -4.6015625 2.1953125 C-2.6015625 0.1953125 -2.6015625 0.1953125 0 0 Z " fill="#2B2F3D" transform="translate(639.6015625,878.8046875)"/>
<path d="M0 0 C2.875 -0.125 2.875 -0.125 6 0 C8 2 8 2 8 5 C4.75 5.75 4.75 5.75 1 6 C-1.4375 4.0625 -1.4375 4.0625 -3 2 C-2.01 2 -1.02 2 0 2 C0 1.34 0 0.68 0 0 Z " fill="#232A35" transform="translate(761,878)"/>
<path d="M0 0 C3.0625 0.1875 3.0625 0.1875 5.0625 2.1875 C5.0625 3.1775 5.0625 4.1675 5.0625 5.1875 C1.7625 5.1875 -1.5375 5.1875 -4.9375 5.1875 C-3.69966216 0.23614865 -3.69966216 0.23614865 0 0 Z " fill="#242934" transform="translate(454.9375,868.8125)"/>
<path d="M0 0 C3.0625 0.1875 3.0625 0.1875 5.0625 2.1875 C5.0625 3.1775 5.0625 4.1675 5.0625 5.1875 C1.7625 5.1875 -1.5375 5.1875 -4.9375 5.1875 C-3.69966216 0.23614865 -3.69966216 0.23614865 0 0 Z " fill="#1E232F" transform="translate(363.9375,868.8125)"/>
<path d="M0 0 C0.99 0 1.98 0 3 0 C2.67 6.27 2.34 12.54 2 19 C1.34 19.33 0.68 19.66 0 20 C0 13.4 0 6.8 0 0 Z " fill="#C4C8CC" transform="translate(779,861)"/>
<path d="M0 0 C3.875 0.875 3.875 0.875 5 2 C7.33297433 2.04092937 9.66705225 2.04241723 12 2 C11.67 3.32 11.34 4.64 11 6 C4.67741935 6.36476427 4.67741935 6.36476427 1.5625 4.6875 C0 3 0 3 0 0 Z " fill="#B7BBBE" transform="translate(757,881)"/>
<path d="M0 0 C0.33 0 0.66 0 1 0 C1.45732667 5.71658336 0.52273754 8.48649253 -3 13 C-4.32 12.67 -5.64 12.34 -7 12 C-7 11.34 -7 10.68 -7 10 C-6.34 10 -5.68 10 -5 10 C-4.71125 9.195625 -4.4225 8.39125 -4.125 7.5625 C-3 5 -3 5 -1 4 C-0.34786708 1.97536745 -0.34786708 1.97536745 0 0 Z " fill="#A8ADB2" transform="translate(514,873)"/>
<path d="M0 0 C2.5625 0.1875 2.5625 0.1875 4.5625 2.1875 C4.5625 3.1775 4.5625 4.1675 4.5625 5.1875 C1.2625 5.1875 -2.0375 5.1875 -5.4375 5.1875 C-2.9575 0.2275 -2.9575 0.2275 0 0 Z " fill="#212633" transform="translate(639.4375,868.8125)"/>
<path d="M0 0 C0.99 0 1.98 0 3 0 C3 4.29 3 8.58 3 13 C2.01 13.495 2.01 13.495 1 14 C1 11.69 1 9.38 1 7 C-0.32 7.33 -1.64 7.66 -3 8 C-3 7.01 -3 6.02 -3 5 C-2.01 5 -1.02 5 0 5 C0 3.35 0 1.7 0 0 Z " fill="#C3C8CD" transform="translate(401,861)"/>
<path d="M0 0 C0.94875 0.04125 1.8975 0.0825 2.875 0.125 C2.875 1.445 2.875 2.765 2.875 4.125 C0.895 4.125 -1.085 4.125 -3.125 4.125 C-3.125 5.775 -3.125 7.425 -3.125 9.125 C-4.115 9.62 -4.115 9.62 -5.125 10.125 C-5.3203125 4.0703125 -5.3203125 4.0703125 -5.125 2.125 C-3.125 0.125 -3.125 0.125 0 0 Z " fill="#B3B6BA" transform="translate(491.125,856.875)"/>
<path d="M0 0 C1.65 0.33 3.3 0.66 5 1 C5 2.65 5 4.3 5 6 C3.02 6.99 3.02 6.99 1 8 C-1 5 -1 5 -0.625 2.3125 C-0.41875 1.549375 -0.2125 0.78625 0 0 Z " fill="#2F333E" transform="translate(669,861)"/>
<path d="M0 0 C1.32 0.33 2.64 0.66 4 1 C3.67 2.65 3.34 4.3 3 6 C1.02 6 -0.96 6 -3 6 C-3.33 5.01 -3.66 4.02 -4 3 C-4.99 2.67 -5.98 2.34 -7 2 C-4.03 2.495 -4.03 2.495 -1 3 C-0.67 2.01 -0.34 1.02 0 0 Z " fill="#262E38" transform="translate(301,878)"/>
<path d="M0 0 C2.31 0.66 4.62 1.32 7 2 C6.67 3.65 6.34 5.3 6 7 C4.02 7 2.04 7 0 7 C0 4.69 0 2.38 0 0 Z " fill="#2A2F3B" transform="translate(327,877)"/>
<path d="M0 0 C0.99 0.33 1.98 0.66 3 1 C3 2.98 3 4.96 3 7 C-0.96 7 -4.92 7 -9 7 C-7 5 -7 5 -3.375 4.875 C-1.704375 4.936875 -1.704375 4.936875 0 5 C-0.2784375 4.0409375 -0.2784375 4.0409375 -0.5625 3.0625 C-0.706875 2.381875 -0.85125 1.70125 -1 1 C-0.67 0.67 -0.34 0.34 0 0 Z " fill="#C0C4C7" transform="translate(461,870)"/>
<path d="M0 0 C0.33 0 0.66 0 1 0 C1.33 1.98 1.66 3.96 2 6 C2.33 4.35 2.66 2.7 3 1 C3.33 2.32 3.66 3.64 4 5 C5.32 5.33 6.64 5.66 8 6 C6.75336669 6.50833591 5.50250613 7.00631145 4.25 7.5 C3.55390625 7.7784375 2.8578125 8.056875 2.140625 8.34375 C0 9 0 9 -4 9 C-3.67 7.68 -3.34 6.36 -3 5 C-2.01 5 -1.02 5 0 5 C0 3.35 0 1.7 0 0 Z " fill="#9B9FA5" transform="translate(485,860)"/>
<path d="M0 0 C1.32 0.33 2.64 0.66 4 1 C3.01 1 2.02 1 1 1 C1.17402344 1.81726563 1.34804688 2.63453125 1.52734375 3.4765625 C2.07441469 7.55472767 1.88384856 11.28981031 1.5625 15.375 C1.51029297 16.11105469 1.45808594 16.84710937 1.40429688 17.60546875 C1.27582277 19.40410629 1.13879051 21.20212909 1 23 C0.67 23 0.34 23 0 23 C0 18.38 0 13.76 0 9 C-0.99 9 -1.98 9 -3 9 C-3 8.01 -3 7.02 -3 6 C-2.01 6 -1.02 6 0 6 C0 4.02 0 2.04 0 0 Z " fill="#91979F" transform="translate(778,860)"/>
<path d="M0 0 C0 0.99 0 1.98 0 3 C-0.969375 3.268125 -1.93875 3.53625 -2.9375 3.8125 C-3.948125 4.204375 -4.95875 4.59625 -6 5 C-6.33 5.99 -6.66 6.98 -7 8 C-7.66 8 -8.32 8 -9 8 C-9.22223194 5.25913944 -9.34781139 3.56036279 -7.875 1.1875 C-5.22464043 -0.49106106 -3.06753576 -0.20450238 0 0 Z " fill="#BFBFC2" transform="translate(674,858)"/>
<path d="M0 0 C0.33 0 0.66 0 1 0 C1 4.95 1 9.9 1 15 C0.01 15 -0.98 15 -2 15 C-2 11.37 -2 7.74 -2 4 C-1.34 4 -0.68 4 0 4 C0 2.68 0 1.36 0 0 Z " fill="#BCC2C8" transform="translate(581,871)"/>
<path d="M0 0 C0.66 0 1.32 0 2 0 C2 0.66 2 1.32 2 2 C5.96 2 9.92 2 14 2 C13.67 2.66 13.34 3.32 13 4 C10.56640625 4.37890625 10.56640625 4.37890625 7.5625 4.5625 C3.63464783 4.73109366 3.63464783 4.73109366 0 6 C0 4.02 0 2.04 0 0 Z " fill="#BEC1C4" transform="translate(356,873)"/>
<path d="M0 0 C0.33 0 0.66 0 1 0 C1 4.29 1 8.58 1 13 C0.01 13 -0.98 13 -2 13 C-2.05391993 11.20866022 -2.09275571 9.41686101 -2.125 7.625 C-2.14820313 6.62726562 -2.17140625 5.62953125 -2.1953125 4.6015625 C-2 2 -2 2 0 0 Z " fill="#C8CCCE" transform="translate(380,873)"/>
<path d="M0 0 C0.33 0 0.66 0 1 0 C1 1.65 1 3.3 1 5 C2.32 5 3.64 5 5 5 C5 5.99 5 6.98 5 8 C3.68 8 2.36 8 1 8 C1 12.29 1 16.58 1 21 C0.67 21 0.34 21 0 21 C-0.19569589 18.43788925 -0.38180612 15.87567609 -0.5625 13.3125 C-0.61857422 12.59126953 -0.67464844 11.87003906 -0.73242188 11.12695312 C-0.99955159 7.22685936 -1.00887596 3.78888972 0 0 Z " fill="#9EA4AB" transform="translate(404,861)"/>
<path d="M0 0 C1.32 0 2.64 0 4 0 C2.52307692 4.67692308 2.52307692 4.67692308 -0.125 6.3125 C-0.74375 6.539375 -1.3625 6.76625 -2 7 C-2 6.01 -2 5.02 -2 4 C-3.65 4 -5.3 4 -7 4 C-7 3.67 -7 3.34 -7 3 C-5.5459375 2.814375 -5.5459375 2.814375 -4.0625 2.625 C-2.5465625 2.315625 -2.5465625 2.315625 -1 2 C-0.67 1.34 -0.34 0.68 0 0 Z " fill="#A3A6AC" transform="translate(623,880)"/>
<path d="M0 0 C5.5 -0.36666667 5.5 -0.36666667 7.875 1.375 C9 3 9 3 9 5 C8.34 5 7.68 5 7 5 C6.67 5.66 6.34 6.32 6 7 C5.566875 6.360625 5.13375 5.72125 4.6875 5.0625 C3.08760823 2.73253997 3.08760823 2.73253997 0 2 C0 1.34 0 0.68 0 0 Z " fill="#BFC4C8" transform="translate(385,866)"/>
<path d="M0 0 C1.32 0 2.64 0 4 0 C2.63016497 3.16115776 2.0109362 3.9927092 -1 6 C-3.04296875 6.1953125 -3.04296875 6.1953125 -5.1875 6.125 C-7.0746875 6.063125 -7.0746875 6.063125 -9 6 C-9 5.67 -9 5.34 -9 5 C-6.69 5 -4.38 5 -2 5 C-1.855625 4.360625 -1.71125 3.72125 -1.5625 3.0625 C-1 1 -1 1 0 0 Z " fill="#ACB1B4" transform="translate(369,881)"/>
<path d="M0 0 C1.32 0 2.64 0 4 0 C4 1.32 4 2.64 4 4 C1.69 4.66 -0.62 5.32 -3 6 C-3.33 4.35 -3.66 2.7 -4 1 C-3.01 1 -2.02 1 -1 1 C-0.67 0.67 -0.34 0.34 0 0 Z " fill="#B0B5BD" transform="translate(728,865)"/>
<path d="M0 0 C1.32 0.33 2.64 0.66 4 1 C4.6875 4.3125 4.6875 4.3125 5 8 C3.5625 9.9375 3.5625 9.9375 2 11 C0.768606 7.30581799 1.35567236 4.7943739 2 1 C1.34 0.67 0.68 0.34 0 0 Z " fill="#A165E1" transform="translate(517,500)"/>
<path d="M0 0 C2.97 0.33 5.94 0.66 9 1 C9 1.99 9 2.98 9 4 C3.375 4.25 3.375 4.25 0 2 C0 1.34 0 0.68 0 0 Z " fill="#BDC1C4" transform="translate(612,883)"/>
<path d="M0 0 C0.66 0.33 1.32 0.66 2 1 C2.1875 3.875 2.1875 3.875 2 7 C1.01 7.66 0.02 8.32 -1 9 C-1.66 8.67 -2.32 8.34 -3 8 C-1.125 1.125 -1.125 1.125 0 0 Z " fill="#BFC4C6" transform="translate(307,877)"/>
<path d="M0 0 C0.33 0 0.66 0 1 0 C1 3.96 1 7.92 1 12 C0.01 12 -0.98 12 -2 12 C-2.17835515 7.45194365 -1.99785435 4.1205746 0 0 Z " fill="#C3C8CC" transform="translate(521,874)"/>
<path d="M0 0 C0.66 0 1.32 0 2 0 C1.67 3.3 1.34 6.6 1 10 C0.01 9.67 -0.98 9.34 -2 9 C-2.125 5.625 -2.125 5.625 -2 2 C-1.34 1.34 -0.68 0.68 0 0 Z " fill="#C0C4C5" transform="translate(251,871)"/>
<path d="M0 0 C0.66 0 1.32 0 2 0 C2 1.32 2 2.64 2 4 C2.66 4.33 3.32 4.66 4 5 C2.25 9.875 2.25 9.875 0 11 C0 7.37 0 3.74 0 0 Z " fill="#C1C7CB" transform="translate(534,866)"/>
<path d="M0 0 C1.5 1.1875 1.5 1.1875 3 3 C3.1875 5.6875 3.1875 5.6875 3 8 C2.01 8.495 2.01 8.495 1 9 C1 8.34 1 7.68 1 7 C0.34 7 -0.32 7 -1 7 C-1.625 4.625 -1.625 4.625 -2 2 C-1.34 1.34 -0.68 0.68 0 0 Z " fill="#AAACB2" transform="translate(675,859)"/>
<path d="M0 0 C0.99 0.66 1.98 1.32 3 2 C3.1875 4.625 3.1875 4.625 3 7 C-0.9813783 8.3271261 -4.85045227 8.06915913 -9 8 C-9 7.67 -9 7.34 -9 7 C-6.03 6.34 -3.06 5.68 0 5 C-0.33 3.68 -0.66 2.36 -1 1 C-0.67 0.67 -0.34 0.34 0 0 Z " fill="#5A5E6A" transform="translate(498,788)"/>
<path d="M0 0 C1.65 0 3.3 0 5 0 C6.06671952 3.20015856 5.94845472 4.88544294 5.5625 8.1875 C5.46066406 9.08855469 5.35882813 9.98960937 5.25390625 10.91796875 C5.12822266 11.94857422 5.12822266 11.94857422 5 13 C4.67 13 4.34 13 4 13 C4 9.7 4 6.4 4 3 C2.68 3 1.36 3 0 3 C0 2.01 0 1.02 0 0 Z " fill="#B5B7BA" transform="translate(340,866)"/>
<path d="M0 0 C1.53202706 0.25195908 3.05257128 0.57596777 4.5625 0.9375 C5.38878906 1.13214844 6.21507812 1.32679688 7.06640625 1.52734375 C8.02353516 1.76130859 8.02353516 1.76130859 9 2 C9 2.66 9 3.32 9 4 C7.72125 4.061875 6.4425 4.12375 5.125 4.1875 C4.40570313 4.22230469 3.68640625 4.25710938 2.9453125 4.29296875 C2.30335938 4.19628906 1.66140625 4.09960938 1 4 C0.34 3.01 -0.32 2.02 -1 1 C-0.67 0.67 -0.34 0.34 0 0 Z " fill="#BDC2C4" transform="translate(358,882)"/>
<path d="M0 0 C0.33 0 0.66 0 1 0 C1.33 2.31 1.66 4.62 2 7 C2.66 6.67 3.32 6.34 4 6 C4.33 7.65 4.66 9.3 5 11 C3.68 11.33 2.36 11.66 1 12 C-0.26237731 9.47524538 -0.09856404 7.68799534 -0.0625 4.875 C-0.05347656 3.96492187 -0.04445313 3.05484375 -0.03515625 2.1171875 C-0.02355469 1.41851563 -0.01195312 0.71984375 0 0 Z " fill="#A9ADB1" transform="translate(355,871)"/>
<path d="M0 0 C0.33 0.66 0.66 1.32 1 2 C2.65 2 4.3 2 6 2 C6 2.33 6 2.66 6 3 C5.06027344 3.30744141 5.06027344 3.30744141 4.1015625 3.62109375 C3.28429687 3.89050781 2.46703125 4.15992188 1.625 4.4375 C0.81289062 4.70433594 0.00078125 4.97117187 -0.8359375 5.24609375 C-3.01031799 5.95179729 -3.01031799 5.95179729 -5 7 C-3.75023244 3.34683329 -3.32901247 2.21934164 0 0 Z " fill="#A8ADB3" transform="translate(254,866)"/>
<path d="M0 0 C0.99 0 1.98 0 3 0 C3.6875 2.8125 3.6875 2.8125 4 6 C3.01 6.99 2.02 7.98 1 9 C0.67 6.03 0.34 3.06 0 0 Z " fill="#C2C6CA" transform="translate(588,866)"/>
<path d="M0 0 C3.625 -0.1875 3.625 -0.1875 7 0 C6.34 1.32 5.68 2.64 5 4 C2.69 3.67 0.38 3.34 -2 3 C-1.34 2.01 -0.68 1.02 0 0 Z " fill="#ACB1B7" transform="translate(551,866)"/>
<path d="M0 0 C1.9375 0.8125 1.9375 0.8125 4 2 C4.33 2.99 4.66 3.98 5 5 C0 4 0 4 -5 3 C-4.360625 2.690625 -3.72125 2.38125 -3.0625 2.0625 C-1.06389179 1.1654837 -1.06389179 1.1654837 0 0 Z " fill="#AFB2B6" transform="translate(333,866)"/>
<path d="M0 0 C6.625 -0.25 6.625 -0.25 10 2 C10 2.99 10 3.98 10 5 C9.01 5 8.02 5 7 5 C7 4.01 7 3.02 7 2 C5.02 2 3.04 2 1 2 C0.67 1.34 0.34 0.68 0 0 Z " fill="#B5B9BE" transform="translate(762,866)"/>
<path d="M0 0 C1.9375 0.8125 1.9375 0.8125 4 2 C4.33 2.99 4.66 3.98 5 5 C1.20442119 5 -0.62902617 4.49821059 -4 3 C-2.68 2.01 -1.36 1.02 0 0 Z " fill="#A2A7AD" transform="translate(304,866)"/>
<path d="M0 0 C1.65 0 3.3 0 5 0 C5 1.32 5 2.64 5 4 C3.02 4 1.04 4 -1 4 C-0.67 2.68 -0.34 1.36 0 0 Z " fill="#AFB3B9" transform="translate(525,865)"/>
<path d="M0 0 C-0.33 0.99 -0.66 1.98 -1 3 C-3.64 3 -6.28 3 -9 3 C-9 2.34 -9 1.68 -9 1 C-5.92677456 0.08941469 -3.19902639 -0.08886184 0 0 Z " fill="#C5CACD" transform="translate(241,883)"/>
<path d="M0 0 C0.33 1.32 0.66 2.64 1 4 C-2.3 4 -5.6 4 -9 4 C-9 3.34 -9 2.68 -9 2 C-7.329375 2.061875 -7.329375 2.061875 -5.625 2.125 C-1.95633975 2.41121859 -1.95633975 2.41121859 0 0 Z " fill="#CBCDCE" transform="translate(647,873)"/>
<path d="M0 0 C2.8125 -0.25 2.8125 -0.25 6 0 C7.875 2 7.875 2 9 4 C5.14354879 4.22036864 2.50776784 3.60355101 -1 2 C-0.67 1.34 -0.34 0.68 0 0 Z " fill="#BEC1C5" transform="translate(638,866)"/>
<path d="M0 0 C2.75 1.375 2.75 1.375 5 3 C4.67 3.66 4.34 4.32 4 5 C1.07120629 4.37240135 -1.36095629 3.41377341 -4 2 C-2.3125 0.8125 -2.3125 0.8125 0 0 Z " fill="#ACB0B7" transform="translate(508,866)"/>
<path d="M0 0 C2.97 0.33 5.94 0.66 9 1 C9 1.66 9 2.32 9 3 C6.36 3 3.72 3 1 3 C0.67 2.01 0.34 1.02 0 0 Z " fill="#BDC1C5" transform="translate(449,883)"/>
<path d="M0 0 C1.65 0.99 3.3 1.98 5 3 C3.3125 4.125 3.3125 4.125 1 5 C-1.75 4.125 -1.75 4.125 -4 3 C-2.68 2.01 -1.36 1.02 0 0 Z " fill="#AEB2B8" transform="translate(458,866)"/>
<path d="M0 0 C1.98 0.495 1.98 0.495 4 1 C3.67 2.32 3.34 3.64 3 5 C1.68 4.67 0.36 4.34 -1 4 C-0.67 2.68 -0.34 1.36 0 0 Z " fill="#BABFC5" transform="translate(314,857)"/>
<path d="M0 0 C-0.61875 0.0825 -1.2375 0.165 -1.875 0.25 C-4.14026135 0.79253008 -4.14026135 0.79253008 -5.0625 2.8125 C-5.371875 3.534375 -5.68125 4.25625 -6 5 C-6.97581759 6.35113205 -7.97029741 7.68946944 -9 9 C-9.36337162 5.72965541 -9.28544288 4.39116247 -7.3125 1.6875 C-4.60883753 -0.28544288 -3.27034459 -0.36337162 0 0 Z " fill="#8956C0" transform="translate(586,511)"/>
<path d="M0 0 C-1.32 1.32 -2.64 2.64 -4 4 C-5.32 3.01 -6.64 2.02 -8 1 C-4.93251126 -0.86240388 -3.40254489 -1.2151946 0 0 Z " fill="#A7AAB0" transform="translate(575,875)"/>
<path d="M0 0 C0.33 0 0.66 0 1 0 C1 1.65 1 3.3 1 5 C2.32 5 3.64 5 5 5 C5 5.99 5 6.98 5 8 C3.35 8 1.7 8 0 8 C0 5.36 0 2.72 0 0 Z " fill="#ABAFB3" transform="translate(347,861)"/>
<path d="M0 0 C0.33 0 0.66 0 1 0 C1 3.3 1 6.6 1 10 C0.01 10 -0.98 10 -2 10 C-1.33333333 6.66666667 -0.66666667 3.33333333 0 0 Z " fill="#D2D4D3" transform="translate(316,876)"/>
<path d="M0 0 C1.32 0.33 2.64 0.66 4 1 C4 2.32 4 3.64 4 5 C2.68 4.34 1.36 3.68 0 3 C0 2.01 0 1.02 0 0 Z " fill="#ACB0B4" transform="translate(322,881)"/>
<path d="M0 0 C-0.25 1.875 -0.25 1.875 -1 4 C-3.0625 5.25 -3.0625 5.25 -5 6 C-5 3 -5 3 -3.625 1.3125 C-2 0 -2 0 0 0 Z " fill="#BCBFC2" transform="translate(442,870)"/>
<path d="M0 0 C1.53202706 0.25195908 3.05257128 0.57596777 4.5625 0.9375 C5.38878906 1.13214844 6.21507812 1.32679688 7.06640625 1.52734375 C8.02353516 1.76130859 8.02353516 1.76130859 9 2 C8.67 2.99 8.34 3.98 8 5 C8 4.34 8 3.68 8 3 C5.69 3.33 3.38 3.66 1 4 C0.34 3.01 -0.32 2.02 -1 1 C-0.67 0.67 -0.34 0.34 0 0 Z " fill="#9CA1A7" transform="translate(760,866)"/>
<path d="M0 0 C0.99 0.33 1.98 0.66 3 1 C3.6875 3.0625 3.6875 3.0625 4 5 C2.68 5 1.36 5 0 5 C0 3.35 0 1.7 0 0 Z " fill="#B9BCBF" transform="translate(294,869)"/>
<path d="M0 0 C1.98 0 3.96 0 6 0 C4.768606 2.46278801 3.21935077 3.42497687 1 5 C0.67 3.35 0.34 1.7 0 0 Z " fill="#1A202C" transform="translate(298,869)"/>
<path d="M0 0 C1.65 0 3.3 0 5 0 C5 0.99 5 1.98 5 3 C4.34 3.66 3.68 4.32 3 5 C2.01 4.34 1.02 3.68 0 3 C0 2.01 0 1.02 0 0 Z " fill="#282E3A" transform="translate(493,866)"/>
</svg>
