<?xml version="1.0" standalone="no"?>
<!DOCTYPE svg PUBLIC "-//W3C//DTD SVG 20010904//EN"
 "http://www.w3.org/TR/2001/REC-SVG-20010904/DTD/svg10.dtd">
<svg version="1.0" xmlns="http://www.w3.org/2000/svg"
 width="1024.000000pt" height="1024.000000pt" viewBox="0 0 1024.000000 1024.000000"
 preserveAspectRatio="xMidYMid meet">

<g transform="translate(0.000000,1024.000000) scale(0.100000,-0.100000)"
fill="#8B5CF6" stroke="none">
<path d="M4201 7979 c-314 -35 -613 -187 -844 -429 -247 -258 -361 -529 -360
-860 0 -202 45 -373 145 -546 69 -120 119 -184 228 -287 188 -180 411 -304
850 -477 510 -201 696 -287 871 -403 307 -203 479 -469 479 -741 -1 -276 -186
-534 -478 -665 -252 -114 -612 -92 -902 54 -159 80 -360 269 -486 455 -137
202 -277 469 -355 675 l-38 100 -160 3 -161 2 0 -775 0 -775 170 0 170 0 0
211 0 212 88 -84 c333 -322 697 -484 1164 -521 164 -13 380 -1 518 28 513 108
932 480 1049 931 33 127 41 189 41 327 0 438 -194 801 -601 1127 -255 204
-487 330 -1139 614 -440 192 -623 314 -740 492 -154 234 -126 521 72 729 162
170 350 242 602 231 249 -10 441 -101 642 -301 118 -118 244 -282 934 -1211
355 -479 608 -818 894 -1203 l151 -203 5 1218 5 1218 33 67 c50 101 130 157
239 166 l63 5 0 153 0 154 -560 0 -560 0 0 -155 0 -155 73 0 c40 0 96 -7 125
-15 68 -20 151 -96 183 -167 l24 -53 3 -615 3 -615 -28 40 c-49 73 -458 638
-673 930 -371 505 -421 567 -550 693 -213 209 -485 354 -761 407 -104 19 -318
27 -428 14z"/>
</g>
</svg>
